<svg width="38" height="38" viewBox="0 0 38 38" fill="none" xmlns="http://www.w3.org/2000/svg">
<rect width="38" height="38" rx="19" fill="#EBEEFB"/>
<path d="M19.0013 8.1665C16.163 8.1665 13.8555 10.474 13.8555 13.3123C13.8555 16.0965 16.033 18.3498 18.8713 18.4473C18.958 18.4365 19.0446 18.4365 19.1096 18.4473C19.1313 18.4473 19.1421 18.4473 19.1638 18.4473C19.1746 18.4473 19.1746 18.4473 19.1855 18.4473C21.9588 18.3498 24.1363 16.0965 24.1471 13.3123C24.1471 10.474 21.8396 8.1665 19.0013 8.1665Z" fill="#3553D5"/>
<path d="M24.505 21.3291C21.4825 19.3141 16.5533 19.3141 13.5092 21.3291C12.1333 22.25 11.375 23.4958 11.375 24.8283C11.375 26.1608 12.1333 27.3958 13.4983 28.3058C15.015 29.3241 17.0083 29.8333 19.0017 29.8333C20.995 29.8333 22.9883 29.3241 24.505 28.3058C25.87 27.385 26.6283 26.15 26.6283 24.8066C26.6175 23.4741 25.87 22.2391 24.505 21.3291Z" fill="#3553D5"/>
</svg>
