<svg width="39" height="38" viewBox="0 0 39 38" fill="none" xmlns="http://www.w3.org/2000/svg">
<rect x="0.5" width="38" height="38" rx="19" fill="#F0EFFF"/>
<path d="M24.7 8.1665H21.8833C18.4167 8.1665 16.25 10.3332 16.25 13.7998V18.1873H21.06L18.8175 15.9448C18.655 15.7823 18.5792 15.5765 18.5792 15.3707C18.5792 15.1648 18.655 14.959 18.8175 14.7965C19.1317 14.4823 19.6517 14.4823 19.9658 14.7965L23.595 18.4257C23.9092 18.7398 23.9092 19.2598 23.595 19.574L19.9658 23.2032C19.6517 23.5173 19.1317 23.5173 18.8175 23.2032C18.5033 22.889 18.5033 22.369 18.8175 22.0548L21.06 19.8123H16.25V24.1998C16.25 27.6665 18.4167 29.8332 21.8833 29.8332H24.6892C28.1558 29.8332 30.3225 27.6665 30.3225 24.1998V13.7998C30.3333 10.3332 28.1667 8.1665 24.7 8.1665Z" fill="#605BFF"/>
<path d="M9.48047 18.1875C9.0363 18.1875 8.66797 18.5558 8.66797 19C8.66797 19.4442 9.0363 19.8125 9.48047 19.8125H16.2513V18.1875H9.48047Z" fill="#605BFF"/>
</svg>
