<svg width="39" height="38" viewBox="0 0 39 38" fill="none" xmlns="http://www.w3.org/2000/svg">
<rect x="0.25" width="38" height="38" rx="19" fill="#E6F9F3"/>
<path d="M27.9154 18.9998V25.4998C27.9154 27.894 25.9762 29.8332 23.582 29.8332H14.9154C12.5212 29.8332 10.582 27.894 10.582 25.4998V18.9998C10.582 18.404 11.0695 17.9165 11.6654 17.9165H13.7995C14.3954 17.9165 14.8829 18.404 14.8829 18.9998V22.4015C14.8829 23.2032 15.327 23.9398 16.0312 24.319C16.3454 24.4923 16.692 24.579 17.0495 24.579C17.4612 24.579 17.8729 24.4598 18.2304 24.2215L19.2595 23.5498L20.2129 24.189C20.8737 24.6332 21.7187 24.6873 22.4229 24.3082C23.1379 23.929 23.582 23.2032 23.582 22.3907V18.9998C23.582 18.404 24.0695 17.9165 24.6654 17.9165H26.832C27.4279 17.9165 27.9154 18.404 27.9154 18.9998Z" fill="#04C182"/>
<path d="M29.5404 13.5832V14.6665C29.5404 15.8582 28.9662 16.8332 27.3737 16.8332H11.1237C9.4662 16.8332 8.95703 15.8582 8.95703 14.6665V13.5832C8.95703 12.3915 9.4662 11.4165 11.1237 11.4165H27.3737C28.9662 11.4165 29.5404 12.3915 29.5404 13.5832Z" fill="#04C182"/>
<path d="M18.8616 11.4167H12.8816C12.5133 11.0159 12.5241 10.3984 12.9141 10.0084L14.4525 8.47006C14.8533 8.06923 15.5141 8.06923 15.915 8.47006L18.8616 11.4167Z" fill="#04C182"/>
<path d="M25.6089 11.4167H19.6289L22.5756 8.47006C22.9764 8.06923 23.6372 8.06923 24.0381 8.47006L25.5764 10.0084C25.9664 10.3984 25.9772 11.0159 25.6089 11.4167Z" fill="#04C182"/>
<path d="M21.3828 17.9165C21.9786 17.9165 22.4661 18.404 22.4661 18.9998V22.3907C22.4661 23.2573 21.5019 23.7773 20.7869 23.2898L19.8119 22.6398C19.4544 22.4015 18.9886 22.4015 18.6203 22.6398L17.6019 23.3115C16.8869 23.7882 15.9336 23.2682 15.9336 22.4123V18.9998C15.9336 18.404 16.4211 17.9165 17.0169 17.9165H21.3828Z" fill="#04C182"/>
</svg>
