<svg width="39" height="38" viewBox="0 0 39 38" fill="none" xmlns="http://www.w3.org/2000/svg">
<rect x="0.75" width="38" height="38" rx="19" fill="#F2EDFE"/>
<path d="M12.8927 18.3256C12.7593 18.3256 12.7228 18.4507 12.7191 18.4553C12.2286 19.548 11.63 20.8816 11.3367 22.1742C11.3023 22.3257 11.4654 22.4454 11.5999 22.3677C12.3921 21.9103 12.3662 21.9046 12.4627 21.9304C12.5088 21.9428 12.5481 21.973 12.572 22.0143L13.7503 24.0549C13.8189 24.1737 13.9903 24.1737 14.0589 24.0549L14.2596 23.7073C14.3092 23.6213 14.4194 23.5917 14.5055 23.6414L18.176 25.7607C18.2621 25.8104 18.2916 25.9204 18.242 26.0065L18.1704 26.1305C18.1018 26.2493 18.1875 26.3978 18.3247 26.3978H18.6046C18.703 26.3978 18.7828 26.318 18.7828 26.2196V24.1842C18.7828 24.0858 18.8626 24.006 18.961 24.006H20.9895C21.1267 24.006 21.2124 23.8575 21.1438 23.7387C20.9168 23.3458 20.8839 23.323 20.9094 23.2276C20.9218 23.1815 20.9519 23.1421 20.9933 23.1183L24.6638 20.999C24.7052 20.9751 24.7544 20.9687 24.8004 20.981C24.8466 20.9934 24.8859 21.0235 24.9097 21.0649L25.8298 22.6588C25.8984 22.7776 26.0699 22.7776 26.1385 22.6588C26.6837 21.7145 26.6461 21.7432 26.743 21.7173C26.7891 21.7049 26.8382 21.7114 26.8796 21.7353L27.8861 22.3167C28.021 22.3946 28.1846 22.2741 28.1492 22.1224C27.8525 20.8493 27.266 19.5403 26.7837 18.4649L26.7685 18.4309C26.7398 18.3668 26.6762 18.3256 26.6059 18.3256C19.2036 18.3256 19.9623 18.3272 19.9054 18.3252H19.4254C19.327 18.3252 19.2472 18.405 19.2472 18.5034V20.165C19.2472 20.4079 19.0503 20.6049 18.8074 20.6049H15.0885C14.8456 20.6049 14.6487 20.4079 14.6487 20.165V18.5034C14.6487 18.405 14.5689 18.3252 14.4705 18.3252C13.8261 18.3252 14.0469 18.3256 13.9984 18.3256H12.8927Z" fill="#7432FF"/>
<path d="M27.0798 14.8612C27.2813 14.8612 27.4447 14.6978 27.4447 14.4963C27.4447 14.2947 27.2813 14.1313 27.0798 14.1313C26.8782 14.1313 26.7148 14.2947 26.7148 14.4963C26.7148 14.6978 26.8782 14.8612 27.0798 14.8612Z" fill="#7432FF"/>
<path d="M28.117 10.2368H26.0469C25.9239 10.2368 25.8242 10.3365 25.8242 10.4595V10.4665C25.8242 10.4674 25.8245 10.4683 25.8245 10.4693C25.8245 10.4702 25.8242 10.4711 25.8242 10.4721V14.33C25.8242 14.3312 25.8245 14.3322 25.8245 14.3334C25.8245 14.3345 25.8242 14.3356 25.8242 14.3367V15.4035C25.8242 15.5266 25.9239 15.6263 26.0469 15.6263H28.117C28.24 15.6263 28.3397 15.5266 28.3397 15.4035V10.4595C28.3397 10.3365 28.24 10.2368 28.117 10.2368ZM27.1764 15.2151C26.7029 15.2753 26.3029 14.8753 26.363 14.4017C26.404 14.0789 26.6646 13.8183 26.9874 13.7772C27.461 13.717 27.8611 14.1171 27.8009 14.5907C27.7598 14.9135 27.4992 15.1741 27.1764 15.2151Z" fill="#7432FF"/>
<path d="M15.4063 12.8395C15.4075 12.8444 15.7954 14.3875 15.8495 14.6029C15.8744 14.7019 15.9634 14.7711 16.0655 14.7711H16.2408C16.3775 14.7711 16.482 14.6491 16.4609 14.514C16.3741 13.9585 16.307 13.5224 16.242 13.1054C16.1812 12.7184 16.2721 12.3289 16.498 12.0087L17.8313 10.1141C17.8885 10.0328 18.0008 10.0133 18.0821 10.0705C18.1634 10.1277 18.1829 10.24 18.1257 10.3213L16.7923 12.2161C16.4748 12.6661 16.5976 13.0484 16.6835 13.6024C16.7313 13.9104 16.7843 14.2524 16.8361 14.5829C16.853 14.6913 16.9464 14.7711 17.0561 14.7711C17.902 14.7711 17.8705 14.7778 17.928 14.7534C17.9537 14.7347 18.1931 14.6897 18.1593 14.4725C17.918 12.9208 17.896 12.9505 17.9695 12.8459L19.1 11.2395C19.1514 11.1666 19.241 11.1319 19.3282 11.15C20.0413 11.2985 20.3236 11.1615 20.4425 11.2804C20.5349 11.3724 21.2819 12.6382 21.3275 13.5737C21.3311 13.6498 21.2867 13.7192 21.2179 13.7484C17.6836 15.2666 17.832 15.1435 17.6729 15.3077C17.5248 15.4596 17.4578 15.6728 17.4933 15.8784C17.5015 15.9318 17.5157 15.9816 17.5362 16.0302C17.6783 16.3666 18.0685 16.5243 18.4045 16.3815C18.5353 16.3262 18.4398 16.3666 18.9975 16.1305C21.2557 15.1924 21.1483 15.168 21.2762 15.2246C21.2843 15.2282 22.1479 15.5949 23.236 15.2191C24.3446 14.8367 24.7823 14.235 24.7866 14.2289C24.8203 14.1814 24.875 14.1533 24.9333 14.1533H25.2422C25.3653 14.1533 25.465 14.0535 25.465 13.9305V10.8719C25.465 10.7489 25.3652 10.6492 25.2422 10.6492H24.4706C24.3983 10.6492 24.333 10.6059 24.3048 10.5393C24.3023 10.5339 23.9582 9.80472 22.3815 9.37493C21.4629 9.12477 19.3502 9.03744 18.448 9.00014C18.0375 8.98318 17.7655 8.93649 17.3905 9.1423C17.1686 9.26244 16.9844 9.44305 16.8569 9.66508L15.5236 11.9913C15.3748 12.251 15.3332 12.5522 15.4063 12.8395Z" fill="#7432FF"/>
<path d="M18.1455 16.7944C17.96 16.7944 17.7755 16.7438 17.6131 16.6444C17.6058 16.641 17.5989 16.6371 17.5923 16.6328C17.4178 16.519 17.2835 16.3592 17.2039 16.1706C17.1021 15.93 17.0907 15.6433 17.2027 15.3769C17.2517 15.2601 17.1647 15.1313 17.038 15.1313C17.0333 15.1313 16.7058 15.1313 16.7104 15.1313C16.7058 15.1313 15.0856 15.1313 15.186 15.1313C15.0876 15.1313 15.0078 15.2111 15.0078 15.3095V18.3254V20.0669C15.0078 20.1653 15.0876 20.2451 15.186 20.2451H18.7081C18.8065 20.2451 18.8863 20.1653 18.8863 20.0669C18.8863 19.9357 18.8863 16.7984 18.8863 16.8373C18.8863 16.7096 18.756 16.6234 18.6385 16.6732C18.4905 16.736 18.3622 16.7944 18.1455 16.7944Z" fill="#7432FF"/>
<path d="M15.5177 14.7713C15.4438 14.477 15.0575 12.9403 15.0544 12.928C14.9582 12.5501 15.0129 12.1537 15.2085 11.8125L16.5025 9.55469C16.383 9.56661 16.2703 9.58325 16.2052 9.59765C15.8129 9.68289 15.4687 9.96689 15.284 10.3575L14.2518 12.553C14.1674 12.8356 14.1933 13.1347 14.3253 13.3965C14.3265 13.3989 14.3277 13.4014 14.3288 13.4039L14.9423 14.7713H15.5177Z" fill="#7432FF"/>
<path d="M26.1746 27.6487C26.2611 27.6987 26.3701 27.685 26.4417 27.6154C27.1452 26.9314 27.8423 25.9677 28.2086 24.6549C28.3444 24.1683 28.3672 23.637 28.3122 23.0849C28.3052 23.0141 28.2636 22.9513 28.202 22.9158L27.0471 22.2487C26.9406 22.1871 26.8043 22.2236 26.7428 22.3301L24.4088 26.3723C24.3473 26.4789 24.3838 26.6151 24.4903 26.6766L26.1746 27.6487Z" fill="#7432FF"/>
<path d="M13.35 27.6761L14.7126 26.8896C14.8192 26.8281 14.8557 26.6919 14.7942 26.5853L12.4601 22.543C12.3986 22.4365 12.2624 22.4 12.1558 22.4615L11.2898 22.9615C11.2277 22.9974 11.186 23.0609 11.1795 23.1323C11.1306 23.6673 11.1555 24.1821 11.2874 24.6547C11.6588 25.9859 12.3708 26.9584 13.0843 27.6442C13.1558 27.7129 13.2641 27.7257 13.35 27.6761Z" fill="#7432FF"/>
<path d="M23.0204 24.5889C23.0204 24.4659 22.9206 24.3662 22.7976 24.3662C22.7916 24.3662 19.3557 24.3662 19.3634 24.3662C19.2403 24.3662 19.1406 24.4659 19.1406 24.5889V28.8006C19.1406 28.9237 19.2403 29.0234 19.3634 29.0234H22.7976C22.9206 29.0234 23.0204 28.9237 23.0204 28.8006V24.5889Z" fill="#7432FF"/>
<path d="M23.1592 24.0062C23.2823 24.0062 23.382 24.1059 23.382 24.2289V28.8006C23.382 28.9236 23.4817 29.0233 23.6047 29.0233H24.0424C24.2681 29.0233 24.4929 28.9698 24.6923 28.8685C24.9584 28.7347 25.3471 28.5137 25.7751 28.1887C25.9014 28.0929 25.8879 27.8986 25.7506 27.8194C23.8187 26.7043 23.9057 26.7803 23.8782 26.6778C23.8658 26.6317 23.8723 26.5825 23.8962 26.5412L25.7114 23.3975C25.7511 23.3286 25.7511 23.2437 25.7114 23.1748L24.7987 21.5938C24.7372 21.4873 24.601 21.4508 24.4944 21.5123L21.5216 23.2288C21.415 23.2903 21.3785 23.4265 21.4401 23.5331L21.6491 23.8948C21.6889 23.9637 21.7624 24.0062 21.8419 24.0062L23.1592 24.0062Z" fill="#7432FF"/>
<path d="M16.8832 29.0233H18.5573C18.6803 29.0233 18.78 28.9235 18.78 28.8005V26.9805C18.78 26.8575 18.6803 26.7578 18.5573 26.7578H17.934C17.8544 26.7578 17.7809 26.8003 17.7411 26.8692L16.6903 28.6892C16.6046 28.8377 16.7118 29.0233 16.8832 29.0233Z" fill="#7432FF"/>
<path d="M15.2417 26.9999L13.7791 27.8442C13.6403 27.9243 13.6296 28.12 13.7579 28.2161C14.171 28.5258 14.5447 28.7379 14.8027 28.8679C15.0037 28.9694 15.229 29.023 15.4544 29.023H15.9546C16.0342 29.023 16.1077 28.9806 16.1475 28.9117L17.7275 26.1752C17.789 26.0686 17.7525 25.9324 17.646 25.8709L14.673 24.1544C14.5665 24.0929 14.4302 24.1294 14.3687 24.2359L14.1755 24.5706C14.1357 24.6395 14.1357 24.7245 14.1755 24.7934L15.3076 26.754C15.3573 26.8401 15.3278 26.9502 15.2417 26.9999Z" fill="#7432FF"/>
</svg>
