<svg width="39" height="38" viewBox="0 0 39 38" fill="none" xmlns="http://www.w3.org/2000/svg">
<rect x="0.5" width="38" height="38" rx="19" fill="#FAE7F2"/>
<path d="M21.9292 16.4592C27.9713 16.4592 27.5249 16.4579 27.6179 16.4616C27.5633 16.2529 27.4547 16.0555 27.2914 15.8922L25.6349 14.2357C25.2769 13.8777 24.7273 13.7736 24.2672 13.9768C24.0201 14.086 23.7257 14.0309 23.5346 13.8398C23.3435 13.6487 23.2885 13.3543 23.3976 13.1073C23.6008 12.6472 23.4968 12.0976 23.1387 11.7396L21.4823 10.0831C20.9912 9.59212 20.1924 9.59209 19.7014 10.0831L17.6289 12.1555C18.213 12.7401 21.3467 15.8762 21.9292 16.4592Z" fill="#FF0083"/>
<path d="M16.8554 12.9282L13.3242 16.4594H20.3833C20.3705 16.4466 20.1003 16.1762 16.8554 12.9282Z" fill="#FF0083"/>
<path d="M28.0004 22.3038C28.4693 22.1222 28.7844 21.66 28.7844 21.1537V18.811C28.7844 18.1167 28.2195 17.5518 27.5252 17.5518H24.9609V28.2856H27.5252C28.2195 28.2856 28.7844 27.7207 28.7844 27.0263V24.6837C28.7844 24.1774 28.4694 23.7152 28.0004 23.5336C27.7485 23.436 27.5792 23.1889 27.5792 22.9187C27.5792 22.6484 27.7485 22.4013 28.0004 22.3038Z" fill="#FF0083"/>
<path d="M10.2148 18.811V21.1537C10.2148 21.66 10.5299 22.1222 10.9989 22.3037C11.2508 22.4013 11.42 22.6484 11.42 22.9187C11.42 23.1889 11.2508 23.436 10.9988 23.5336C10.5299 23.7152 10.2148 24.1774 10.2148 24.6837V27.0263C10.2148 27.7207 10.7798 28.2856 11.4741 28.2856H23.8702V17.5518H11.4741C10.7798 17.5518 10.2148 18.1167 10.2148 18.811ZM14.0383 20.0924H22.2315V21.1848H14.0383V20.0924ZM14.0383 22.2773H22.2315V23.3697H14.0383V22.2773ZM14.0383 24.4621H22.2315V25.5545H14.0383V24.4621Z" fill="#FF0083"/>
</svg>
