<svg width="39" height="38" viewBox="0 0 39 38" fill="none" xmlns="http://www.w3.org/2000/svg">
<rect x="0.25" width="38" height="38" rx="19" fill="#C6FAF7"/>
<path fill-rule="evenodd" clip-rule="evenodd" d="M17.6187 8.15567L16.3891 9.77309C16.2819 9.915 16.0891 9.96592 15.9157 9.91175L13.9267 9.29425C13.3157 9.10467 12.6484 9.20759 12.1295 9.56834C11.5911 9.94209 11.278 10.5423 11.278 11.1782V13.178C11.278 13.3329 11.1621 13.4618 11.0082 13.5106L9.01922 14.1281C8.39522 14.322 7.91097 14.7943 7.70839 15.3913C7.50147 16.0012 7.6098 16.6696 8.00414 17.1885L9.23264 18.807C9.32039 18.9218 9.32039 19.0778 9.23264 19.1927L8.00414 20.8112C7.6098 21.3301 7.50147 21.9985 7.70839 22.6084C7.91097 23.2053 8.39522 23.6777 9.01922 23.8716L11.0082 24.4891C11.1621 24.5378 11.278 24.6668 11.278 24.8217V26.8215C11.278 27.4574 11.5911 28.0576 12.1295 28.4313C12.6484 28.7921 13.3157 28.895 13.9267 28.7054L15.9157 28.0879C16.0891 28.0338 16.2819 28.0847 16.3891 28.2266L17.6187 29.844C17.999 30.3445 18.6046 30.6457 19.2513 30.6457C19.8981 30.6457 20.5036 30.3445 20.8839 29.844L22.1135 28.2266C22.2207 28.0847 22.4136 28.0338 22.5869 28.0879L24.5759 28.7054C25.1869 28.895 25.8542 28.7921 26.3731 28.4313C26.9116 28.0576 27.2246 27.4574 27.2246 26.8215V24.8217C27.2246 24.6668 27.3406 24.5378 27.4944 24.4891L29.4834 23.8716C30.1074 23.6777 30.5916 23.2053 30.7942 22.6084C31.0011 21.9985 30.8928 21.3301 30.4985 20.8112L29.27 19.1927C29.1822 19.0778 29.1822 18.9218 29.27 18.807L30.4985 17.1885C30.8928 16.6696 31.0011 16.0012 30.7942 15.3913C30.5916 14.7943 30.1074 14.322 29.4834 14.1281L27.4944 13.5106C27.3406 13.4618 27.2246 13.3329 27.2246 13.178V11.1782C27.2246 10.5423 26.9116 9.94209 26.3731 9.56834C25.8542 9.20759 25.1869 9.10467 24.5759 9.29425L22.5869 9.91175C22.4136 9.96592 22.2207 9.915 22.1135 9.77309L20.8839 8.15567C20.5036 7.65517 19.8981 7.354 19.2513 7.354C18.6046 7.354 17.999 7.65517 17.6187 8.15567ZM23.3333 21.0463C22.6985 20.4125 21.6693 20.4125 21.0345 21.0463C20.4007 21.68 20.4007 22.7103 21.0345 23.344C21.6693 23.9788 22.6985 23.9788 23.3333 23.344C23.9671 22.7103 23.9671 21.68 23.3333 21.0463ZM22.5067 14.595L14.8465 22.2553C14.5291 22.5727 14.5291 23.0873 14.8465 23.4047C15.1639 23.7221 15.6785 23.7221 15.9959 23.4047L23.6561 15.7444C23.9736 15.427 23.9736 14.9124 23.6561 14.595C23.3387 14.2776 22.8241 14.2776 22.5067 14.595ZM17.4681 14.6557C16.8333 14.0208 15.8041 14.0208 15.1693 14.6557C14.5356 15.2894 14.5356 16.3197 15.1693 16.9534C15.8041 17.5872 16.8333 17.5872 17.4681 16.9534C18.1019 16.3197 18.1019 15.2894 17.4681 14.6557Z" fill="#00FFF0"/>
</svg>
