<svg width="30" height="30" viewBox="0 0 30 30" fill="none" xmlns="http://www.w3.org/2000/svg">
<g clip-path="url(#clip0_987:591)">
<path d="M29.5261 18.654C27.5227 26.6898 19.3837 31.5802 11.347 29.5763C3.31362 27.5729 -1.5768 19.4335 0.427438 11.3983C2.42992 3.36168 10.5689 -1.52912 18.6031 0.474242C26.6393 2.4776 31.5294 10.6179 29.5258 18.6541L29.526 18.654H29.5261Z" fill="#F7931A"/>
<path d="M21.6144 12.8636C21.913 10.8675 20.3932 9.79446 18.3151 9.07865L18.9892 6.37466L17.3432 5.96451L16.687 8.59731C16.2542 8.48939 15.8098 8.38769 15.3682 8.28688L16.0292 5.63671L14.3842 5.22656L13.7097 7.92967C13.3516 7.84814 12.9999 7.76757 12.6587 7.68266L12.6606 7.67416L10.3907 7.10733L9.95286 8.86537C9.95286 8.86537 11.1741 9.1453 11.1483 9.16253C11.8149 9.32889 11.9354 9.77012 11.9154 10.1198L11.1474 13.2003C11.1933 13.212 11.2529 13.2288 11.3186 13.2552C11.2637 13.2416 11.2052 13.2267 11.1446 13.2122L10.0682 17.5275C9.98674 17.73 9.77998 18.0339 9.31396 17.9185C9.33046 17.9424 8.11763 17.62 8.11763 17.62L7.30042 19.5041L9.44242 20.0381C9.84091 20.138 10.2314 20.2426 10.616 20.3409L9.93483 23.0759L11.5789 23.486L12.2535 20.7801C12.7026 20.902 13.1385 21.0145 13.5652 21.1205L12.8929 23.8137L14.539 24.2239L15.2201 21.494C18.0269 22.0252 20.1373 21.811 21.0257 19.2723C21.7415 17.2283 20.99 16.0493 19.5134 15.2805C20.5889 15.0325 21.399 14.3251 21.615 12.8639L21.6145 12.8635L21.6144 12.8636ZM17.8537 18.1372C17.345 20.1811 13.9036 19.0762 12.7878 18.7992L13.6917 15.1758C14.8074 15.4543 18.3853 16.0055 17.8538 18.1372H17.8537ZM18.3627 12.834C17.8987 14.6932 15.0344 13.7487 14.1052 13.5171L14.9247 10.2309C15.8538 10.4625 18.8461 10.8948 18.3629 12.834H18.3627Z" fill="white"/>
</g>
<defs>
<clipPath id="clip0_987:591">
<rect width="30" height="30" fill="white"/>
</clipPath>
</defs>
</svg>
