<svg width="24" height="24" viewBox="0 0 24 24" fill="none" xmlns="http://www.w3.org/2000/svg">
<path d="M4.26 18.128H8.56425V5.87305H4.26C3.5625 5.87305 3 6.44305 3 7.14055V9.28555C3 9.89305 3.4275 10.418 4.0275 10.523C4.7325 10.658 5.25 11.2805 5.25 12.0005C5.25 12.7205 4.7325 13.343 4.0275 13.478C3.4275 13.583 3 14.108 3 14.7155V16.8605C3 17.558 3.5625 18.128 4.26 18.128ZM19.7325 5.87305H10.065V18.128H19.7325C20.43 18.128 21 17.558 21 16.8605V14.7155C21 14.108 20.565 13.583 19.965 13.478C19.6224 13.4112 19.3138 13.2271 19.0921 12.9575C18.8704 12.6879 18.7495 12.3496 18.75 12.0005C18.75 11.2805 19.26 10.658 19.9725 10.523C20.565 10.418 21 9.89305 21 9.28555V7.14055C21 6.44305 20.43 5.87305 19.7325 5.87305Z" fill="url(#paint0_linear_0_4)"/>
<defs>
<linearGradient id="paint0_linear_0_4" x1="12.0269" y1="12.0005" x2="42.1163" y2="11.9491" gradientUnits="userSpaceOnUse">
<stop stop-color="#9A9AA9"/>
<stop offset="1" stop-color="#0C194E"/>
</linearGradient>
</defs>
</svg>
