<svg width="132" height="43" viewBox="0 0 132 43" fill="none" xmlns="http://www.w3.org/2000/svg">
<rect width="132" height="43" rx="21.5" fill="url(#paint0_linear_1008_1107)"/>
<g clip-path="url(#clip0_1008_1107)">
<path d="M30.5714 20.0714H25.7143C25.5565 20.0714 25.4286 19.9435 25.4286 19.7857V14.9286C25.4286 14.1396 24.7889 13.5 24 13.5C23.2111 13.5 22.5714 14.1396 22.5714 14.9286V19.7857C22.5714 19.9435 22.4435 20.0714 22.2857 20.0714H17.4286C16.6396 20.0714 16 20.7111 16 21.5C16 22.2889 16.6396 22.9286 17.4286 22.9286H22.2857C22.4435 22.9286 22.5714 23.0565 22.5714 23.2143V28.0714C22.5714 28.8604 23.2111 29.5 24 29.5C24.7889 29.5 25.4286 28.8604 25.4286 28.0714V23.2143C25.4286 23.0565 25.5565 22.9286 25.7143 22.9286H30.5714C31.3604 22.9286 32 22.2889 32 21.5C32 20.7111 31.3604 20.0714 30.5714 20.0714Z" fill="white"/>
</g>
<path d="M48.34 26.098C47.6587 26.098 47.0427 25.9813 46.492 25.748C45.9507 25.5147 45.5213 25.1787 45.204 24.74C44.8867 24.3013 44.7233 23.7833 44.714 23.186H46.814C46.842 23.5873 46.982 23.9047 47.234 24.138C47.4953 24.3713 47.85 24.488 48.298 24.488C48.7553 24.488 49.1147 24.3807 49.376 24.166C49.6373 23.942 49.768 23.6527 49.768 23.298C49.768 23.0087 49.6793 22.7707 49.502 22.584C49.3247 22.3973 49.1007 22.2527 48.83 22.15C48.5687 22.038 48.2047 21.9167 47.738 21.786C47.1033 21.5993 46.5853 21.4173 46.184 21.24C45.792 21.0533 45.4513 20.778 45.162 20.414C44.882 20.0407 44.742 19.546 44.742 18.93C44.742 18.3513 44.8867 17.8473 45.176 17.418C45.4653 16.9887 45.8713 16.662 46.394 16.438C46.9167 16.2047 47.514 16.088 48.186 16.088C49.194 16.088 50.0107 16.3353 50.636 16.83C51.2707 17.3153 51.6207 17.9967 51.686 18.874H49.53C49.5113 18.538 49.3667 18.2627 49.096 18.048C48.8347 17.824 48.4847 17.712 48.046 17.712C47.6633 17.712 47.3553 17.81 47.122 18.006C46.898 18.202 46.786 18.4867 46.786 18.86C46.786 19.1213 46.87 19.3407 47.038 19.518C47.2153 19.686 47.43 19.826 47.682 19.938C47.9433 20.0407 48.3073 20.162 48.774 20.302C49.4087 20.4887 49.9267 20.6753 50.328 20.862C50.7293 21.0487 51.0747 21.3287 51.364 21.702C51.6533 22.0753 51.798 22.5653 51.798 23.172C51.798 23.6947 51.6627 24.18 51.392 24.628C51.1213 25.076 50.7247 25.4353 50.202 25.706C49.6793 25.9673 49.0587 26.098 48.34 26.098ZM60.7073 21.954C60.7073 22.234 60.6886 22.486 60.6513 22.71H54.9813C55.0279 23.27 55.2239 23.7087 55.5693 24.026C55.9146 24.3433 56.3393 24.502 56.8433 24.502C57.5713 24.502 58.0893 24.1893 58.3973 23.564H60.5113C60.2873 24.3107 59.8579 24.9267 59.2233 25.412C58.5886 25.888 57.8093 26.126 56.8853 26.126C56.1386 26.126 55.4666 25.9627 54.8693 25.636C54.2813 25.3 53.8193 24.8287 53.4833 24.222C53.1566 23.6153 52.9932 22.9153 52.9932 22.122C52.9932 21.3193 53.1566 20.6147 53.4833 20.008C53.8099 19.4013 54.2673 18.9347 54.8553 18.608C55.4433 18.2813 56.1199 18.118 56.8853 18.118C57.6226 18.118 58.2806 18.2767 58.8593 18.594C59.4473 18.9113 59.8999 19.364 60.2173 19.952C60.5439 20.5307 60.7073 21.198 60.7073 21.954ZM58.6773 21.394C58.6679 20.89 58.4859 20.4887 58.1313 20.19C57.7766 19.882 57.3426 19.728 56.8293 19.728C56.3439 19.728 55.9333 19.8773 55.5973 20.176C55.2706 20.4653 55.0699 20.8713 54.9953 21.394H58.6773ZM66.4359 18.132C67.3599 18.132 68.1065 18.426 68.6759 19.014C69.2452 19.5927 69.5299 20.4047 69.5299 21.45V26H67.5699V21.716C67.5699 21.1 67.4159 20.6287 67.1079 20.302C66.7999 19.966 66.3799 19.798 65.8479 19.798C65.3065 19.798 64.8772 19.966 64.5599 20.302C64.2519 20.6287 64.0979 21.1 64.0979 21.716V26H62.1379V18.244H64.0979V19.21C64.3592 18.874 64.6905 18.6127 65.0919 18.426C65.5025 18.23 65.9505 18.132 66.4359 18.132ZM70.8897 22.094C70.8897 21.31 71.0437 20.6147 71.3517 20.008C71.6691 19.4013 72.0984 18.9347 72.6397 18.608C73.1811 18.2813 73.7831 18.118 74.4457 18.118C74.9497 18.118 75.4304 18.23 75.8877 18.454C76.3451 18.6687 76.7091 18.958 76.9797 19.322V15.64H78.9677V26H76.9797V24.852C76.7371 25.2347 76.3964 25.5427 75.9577 25.776C75.5191 26.0093 75.0104 26.126 74.4317 26.126C73.7784 26.126 73.1811 25.958 72.6397 25.622C72.0984 25.286 71.6691 24.8147 71.3517 24.208C71.0437 23.592 70.8897 22.8873 70.8897 22.094ZM76.9937 22.122C76.9937 21.646 76.9004 21.24 76.7137 20.904C76.5271 20.5587 76.2751 20.2973 75.9577 20.12C75.6404 19.9333 75.2997 19.84 74.9357 19.84C74.5717 19.84 74.2357 19.9287 73.9277 20.106C73.6197 20.2833 73.3677 20.5447 73.1717 20.89C72.9851 21.226 72.8917 21.6273 72.8917 22.094C72.8917 22.5607 72.9851 22.9713 73.1717 23.326C73.3677 23.6713 73.6197 23.9373 73.9277 24.124C74.2451 24.3107 74.5811 24.404 74.9357 24.404C75.2997 24.404 75.6404 24.3153 75.9577 24.138C76.2751 23.9513 76.5271 23.69 76.7137 23.354C76.9004 23.0087 76.9937 22.598 76.9937 22.122ZM91.022 19.168C90.798 18.7573 90.49 18.4447 90.098 18.23C89.706 18.0153 89.2486 17.908 88.726 17.908C88.1473 17.908 87.634 18.0387 87.186 18.3C86.738 18.5613 86.388 18.9347 86.136 19.42C85.884 19.9053 85.758 20.4653 85.758 21.1C85.758 21.7533 85.884 22.3227 86.136 22.808C86.3973 23.2933 86.7566 23.6667 87.214 23.928C87.6713 24.1893 88.2033 24.32 88.81 24.32C89.5566 24.32 90.168 24.124 90.644 23.732C91.12 23.3307 91.4326 22.7753 91.582 22.066H88.222V20.568H93.514V22.276C93.3833 22.9573 93.1033 23.5873 92.674 24.166C92.2446 24.7447 91.6893 25.2113 91.008 25.566C90.336 25.9113 89.58 26.084 88.74 26.084C87.7973 26.084 86.9433 25.874 86.178 25.454C85.422 25.0247 84.8246 24.432 84.386 23.676C83.9566 22.92 83.742 22.0613 83.742 21.1C83.742 20.1387 83.9566 19.28 84.386 18.524C84.8246 17.7587 85.422 17.166 86.178 16.746C86.9433 16.3167 87.7926 16.102 88.726 16.102C89.8273 16.102 90.784 16.3727 91.596 16.914C92.408 17.446 92.968 18.1973 93.276 19.168H91.022ZM95.958 17.32C95.6127 17.32 95.3234 17.2127 95.09 16.998C94.866 16.774 94.754 16.4987 94.754 16.172C94.754 15.8453 94.866 15.5747 95.09 15.36C95.3234 15.136 95.6127 15.024 95.958 15.024C96.3034 15.024 96.588 15.136 96.812 15.36C97.0454 15.5747 97.162 15.8453 97.162 16.172C97.162 16.4987 97.0454 16.774 96.812 16.998C96.588 17.2127 96.3034 17.32 95.958 17.32ZM96.924 18.244V26H94.964V18.244H96.924ZM102.417 19.854H101.059V26H99.0705V19.854H98.1885V18.244H99.0705V17.852C99.0705 16.9 99.3412 16.2 99.8825 15.752C100.424 15.304 101.241 15.094 102.333 15.122V16.774C101.857 16.7647 101.525 16.844 101.339 17.012C101.152 17.18 101.059 17.4833 101.059 17.922V18.244H102.417V19.854ZM105.969 19.854V23.606C105.969 23.8673 106.029 24.0587 106.151 24.18C106.281 24.292 106.496 24.348 106.795 24.348H107.705V26H106.473C104.821 26 103.995 25.1973 103.995 23.592V19.854H103.071V18.244H103.995V16.326H105.969V18.244H107.705V19.854H105.969ZM112.082 26.126C111.448 26.126 110.878 26.014 110.374 25.79C109.87 25.5567 109.469 25.244 109.17 24.852C108.881 24.46 108.722 24.026 108.694 23.55H110.668C110.706 23.8487 110.85 24.096 111.102 24.292C111.364 24.488 111.686 24.586 112.068 24.586C112.442 24.586 112.731 24.5113 112.936 24.362C113.151 24.2127 113.258 24.0213 113.258 23.788C113.258 23.536 113.128 23.3493 112.866 23.228C112.614 23.0973 112.208 22.9573 111.648 22.808C111.07 22.668 110.594 22.5233 110.22 22.374C109.856 22.2247 109.539 21.996 109.268 21.688C109.007 21.38 108.876 20.9647 108.876 20.442C108.876 20.0127 108.998 19.6207 109.24 19.266C109.492 18.9113 109.847 18.6313 110.304 18.426C110.771 18.2207 111.317 18.118 111.942 18.118C112.866 18.118 113.604 18.3513 114.154 18.818C114.705 19.2753 115.008 19.896 115.064 20.68H113.188C113.16 20.372 113.03 20.1293 112.796 19.952C112.572 19.7653 112.269 19.672 111.886 19.672C111.532 19.672 111.256 19.7373 111.06 19.868C110.874 19.9987 110.78 20.1807 110.78 20.414C110.78 20.6753 110.911 20.876 111.172 21.016C111.434 21.1467 111.84 21.282 112.39 21.422C112.95 21.562 113.412 21.7067 113.776 21.856C114.14 22.0053 114.453 22.2387 114.714 22.556C114.985 22.864 115.125 23.2747 115.134 23.788C115.134 24.236 115.008 24.6373 114.756 24.992C114.514 25.3467 114.159 25.6267 113.692 25.832C113.235 26.028 112.698 26.126 112.082 26.126Z" fill="white"/>
<defs>
<linearGradient id="paint0_linear_1008_1107" x1="66.197" y1="21.5" x2="286.851" y2="20.7118" gradientUnits="userSpaceOnUse">
<stop stop-color="#3553D5"/>
<stop offset="1" stop-color="#0C194E"/>
</linearGradient>
<clipPath id="clip0_1008_1107">
<rect width="16" height="16" fill="white" transform="translate(16 13.5)"/>
</clipPath>
</defs>
</svg>
