<svg width="24" height="24" viewBox="0 0 24 24" fill="none" xmlns="http://www.w3.org/2000/svg">
<path d="M16.2899 14.9995C15.8496 14.1385 13.5637 13.279 12.7799 12.7945C12.6933 12.7499 12.6208 12.6821 12.5704 12.5987C12.5201 12.5152 12.494 12.4195 12.4949 12.322V11.2345C12.4949 10.147 11.6099 9.26953 10.5224 9.26953C9.4349 9.26953 8.5574 10.147 8.5574 11.2345V14.6995C8.3999 14.767 8.2424 14.8645 8.0924 14.9995C6.2819 16.5648 7.99865 19.498 8.9699 20.737L8.6699 22.3645C8.5754 22.8085 8.9519 23.263 9.4049 23.2495H15.4649C15.9104 23.2645 16.2764 22.837 16.2149 22.402L15.9524 20.5045C16.4264 20.1025 16.7429 19.5408 16.7324 18.907C16.6709 17.8983 16.9746 15.8448 16.2899 14.9995ZM15.2324 18.907C15.1866 19.4545 14.2881 19.6908 14.4149 20.3395L14.6099 21.7495H10.3049C10.3439 21.3258 10.7069 20.4453 10.3574 20.0845C9.5999 19.1245 8.5874 17.392 8.7899 16.702C8.88215 16.396 8.96615 16.2678 9.1049 16.057C9.56465 16.1958 10.0687 15.808 10.0574 15.3295V11.2345C10.0619 10.627 10.9919 10.6278 10.9949 11.2345V12.322C10.9949 13.0795 11.4149 13.7695 12.0824 14.122L14.6024 15.4345C14.8499 15.562 15.0299 15.7645 15.1349 16.0045C15.3224 16.276 15.1994 18.5635 15.2324 18.907Z" fill="#9A9AA9"/>
<path d="M19.4477 14.25V3C19.4477 1.7625 18.4352 0.75 17.1977 0.75H6.80273C5.56523 0.75 4.55273 1.7625 4.55273 3V14.25C4.55273 15.405 5.43023 16.3575 6.54773 16.485C6.56273 16.3425 6.59273 16.2 6.63023 16.065C6.69098 15.7568 6.98573 15.2655 7.14773 15C7.28873 14.7008 7.57523 14.4263 7.80773 14.265V11.235C7.80773 9.735 9.02273 8.52 10.5227 8.52C12.0227 8.52 13.2452 9.735 13.2452 11.235V12.1875L15.6452 13.44C16.1997 13.7302 16.6641 14.1668 16.988 14.7023C17.3119 15.2377 17.483 15.8517 17.4827 16.4775C18.0248 16.408 18.5231 16.1436 18.8847 15.7338C19.2462 15.3239 19.4464 14.7965 19.4477 14.25ZM14.9102 8.01H9.09023C8.10998 8.007 8.10698 6.513 9.09023 6.51H14.9102C15.8905 6.513 15.8935 8.007 14.9102 8.01ZM14.9102 5.25H9.09023C8.10998 5.247 8.10698 3.753 9.09023 3.75H14.9102C15.8905 3.753 15.8935 5.247 14.9102 5.25Z" fill="#9A9AA9"/>
</svg>
