<svg width="61" height="61" viewBox="0 0 61 61" fill="none" xmlns="http://www.w3.org/2000/svg">
<path d="M47.6633 52.6918H37.804H35.1492H34.5758V39.4672H38.9009C39.9978 39.4672 40.6459 38.2208 39.9978 37.3234L31.5844 25.6818C31.0484 24.9339 29.9391 24.9339 29.4031 25.6818L20.9898 37.3234C20.3416 38.2208 20.9773 39.4672 22.0866 39.4672H26.4117V52.6918H25.8384H23.1835H11.7538C5.21005 52.3303 0 46.2104 0 39.5794C0 35.005 2.48038 31.0165 6.15734 28.8602C5.8208 27.9503 5.6463 26.9781 5.6463 25.956C5.6463 21.2819 9.42297 17.5053 14.0971 17.5053C15.1067 17.5053 16.0789 17.6798 16.9888 18.0163C19.6935 12.2827 25.5268 8.30664 32.3073 8.30664C41.0821 8.3191 48.3114 15.0373 49.134 23.6003C55.8772 24.7594 61 31.004 61 38.0713C61 45.6246 55.1169 52.1683 47.6633 52.6918Z" fill="#EDEDEE"/>
</svg>
