<svg width="21" height="22" viewBox="0 0 21 22" fill="none" xmlns="http://www.w3.org/2000/svg">
<path d="M14.6574 3.615V2.25C14.6574 1.89125 14.3599 1.59375 14.0012 1.59375C13.6424 1.59375 13.3449 1.89125 13.3449 2.25V3.5625H7.65743V2.25C7.65743 1.89125 7.35993 1.59375 7.00118 1.59375C6.64243 1.59375 6.34493 1.89125 6.34493 2.25V3.615C3.98243 3.83375 2.83618 5.2425 2.66118 7.33375C2.64368 7.5875 2.85368 7.7975 3.09868 7.7975H17.9037C18.1574 7.7975 18.3674 7.57875 18.3412 7.33375C18.1662 5.2425 17.0199 3.83375 14.6574 3.615Z" fill="#3456D0"/>
<path d="M17.5 9.11011H3.5C3.01875 9.11011 2.625 9.50386 2.625 9.98511V15.3751C2.625 18.0001 3.9375 19.7501 7 19.7501H14C17.0625 19.7501 18.375 18.0001 18.375 15.3751V9.98511C18.375 9.50386 17.9812 9.11011 17.5 9.11011ZM8.05875 16.4339C8.015 16.4689 7.97125 16.5126 7.9275 16.5389C7.875 16.5739 7.8225 16.6001 7.77 16.6176C7.7175 16.6439 7.665 16.6614 7.6125 16.6701C7.55125 16.6789 7.49875 16.6876 7.4375 16.6876C7.32375 16.6876 7.21 16.6614 7.105 16.6176C6.99125 16.5739 6.90375 16.5126 6.81625 16.4339C6.65875 16.2676 6.5625 16.0401 6.5625 15.8126C6.5625 15.5851 6.65875 15.3576 6.81625 15.1914C6.90375 15.1126 6.99125 15.0514 7.105 15.0076C7.2625 14.9376 7.4375 14.9201 7.6125 14.9551C7.665 14.9639 7.7175 14.9814 7.77 15.0076C7.8225 15.0251 7.875 15.0514 7.9275 15.0864C7.97125 15.1214 8.015 15.1564 8.05875 15.1914C8.21625 15.3576 8.3125 15.5851 8.3125 15.8126C8.3125 16.0401 8.21625 16.2676 8.05875 16.4339ZM8.05875 13.3714C7.8925 13.5289 7.665 13.6251 7.4375 13.6251C7.21 13.6251 6.9825 13.5289 6.81625 13.3714C6.65875 13.2051 6.5625 12.9776 6.5625 12.7501C6.5625 12.5226 6.65875 12.2951 6.81625 12.1289C7.06125 11.8839 7.44625 11.8051 7.77 11.9451C7.88375 11.9889 7.98 12.0501 8.05875 12.1289C8.21625 12.2951 8.3125 12.5226 8.3125 12.7501C8.3125 12.9776 8.21625 13.2051 8.05875 13.3714ZM11.1213 16.4339C10.955 16.5914 10.7275 16.6876 10.5 16.6876C10.2725 16.6876 10.045 16.5914 9.87875 16.4339C9.72125 16.2676 9.625 16.0401 9.625 15.8126C9.625 15.5851 9.72125 15.3576 9.87875 15.1914C10.2025 14.8676 10.7975 14.8676 11.1213 15.1914C11.2788 15.3576 11.375 15.5851 11.375 15.8126C11.375 16.0401 11.2788 16.2676 11.1213 16.4339ZM11.1213 13.3714C11.0775 13.4064 11.0338 13.4414 10.99 13.4764C10.9375 13.5114 10.885 13.5376 10.8325 13.5551C10.78 13.5814 10.7275 13.5989 10.675 13.6076C10.6137 13.6164 10.5613 13.6251 10.5 13.6251C10.2725 13.6251 10.045 13.5289 9.87875 13.3714C9.72125 13.2051 9.625 12.9776 9.625 12.7501C9.625 12.5226 9.72125 12.2951 9.87875 12.1289C9.9575 12.0501 10.0538 11.9889 10.1675 11.9451C10.4913 11.8051 10.8763 11.8839 11.1213 12.1289C11.2788 12.2951 11.375 12.5226 11.375 12.7501C11.375 12.9776 11.2788 13.2051 11.1213 13.3714ZM14.1837 16.4339C14.0175 16.5914 13.79 16.6876 13.5625 16.6876C13.335 16.6876 13.1075 16.5914 12.9412 16.4339C12.7837 16.2676 12.6875 16.0401 12.6875 15.8126C12.6875 15.5851 12.7837 15.3576 12.9412 15.1914C13.265 14.8676 13.86 14.8676 14.1837 15.1914C14.3412 15.3576 14.4375 15.5851 14.4375 15.8126C14.4375 16.0401 14.3412 16.2676 14.1837 16.4339ZM14.1837 13.3714C14.14 13.4064 14.0962 13.4414 14.0525 13.4764C14 13.5114 13.9475 13.5376 13.895 13.5551C13.8425 13.5814 13.79 13.5989 13.7375 13.6076C13.6762 13.6164 13.615 13.6251 13.5625 13.6251C13.335 13.6251 13.1075 13.5289 12.9412 13.3714C12.7837 13.2051 12.6875 12.9776 12.6875 12.7501C12.6875 12.5226 12.7837 12.2951 12.9412 12.1289C13.0288 12.0501 13.1163 11.9889 13.23 11.9451C13.3875 11.8751 13.5625 11.8576 13.7375 11.8926C13.79 11.9014 13.8425 11.9189 13.895 11.9451C13.9475 11.9626 14 11.9889 14.0525 12.0239C14.0962 12.0589 14.14 12.0939 14.1837 12.1289C14.3412 12.2951 14.4375 12.5226 14.4375 12.7501C14.4375 12.9776 14.3412 13.2051 14.1837 13.3714Z" fill="#3456D0"/>
</svg>
