<svg width="32" height="32" viewBox="0 0 32 32" fill="none" xmlns="http://www.w3.org/2000/svg">
<g clip-path="url(#clip0_2237_2809)">
<rect width="32" height="32" rx="16" fill="#747474"/>
<path d="M15.9997 7.83337C12.288 7.83337 9.27051 10.8509 9.27051 14.5625C9.27051 18.2034 12.118 21.15 15.8297 21.2775C15.943 21.2634 16.0563 21.2634 16.1413 21.2775C16.1697 21.2775 16.1838 21.2775 16.2122 21.2775C16.2263 21.2775 16.2263 21.2775 16.2405 21.2775C19.8672 21.15 22.7147 18.2034 22.7288 14.5625C22.7288 10.8509 19.7113 7.83337 15.9997 7.83337Z" fill="white"/>
<path d="M23.1964 25.0458C19.2439 22.4108 12.798 22.4108 8.8172 25.0458C7.01803 26.25 6.02637 27.8792 6.02637 29.6217C6.02637 31.3642 7.01803 32.9792 8.80303 34.1692C10.7864 35.5008 13.393 36.1667 15.9997 36.1667C18.6064 36.1667 21.213 35.5008 23.1964 34.1692C24.9814 32.965 25.973 31.35 25.973 29.5933C25.9589 27.8508 24.9814 26.2358 23.1964 25.0458Z" fill="white"/>
</g>
<defs>
<clipPath id="clip0_2237_2809">
<rect width="32" height="32" rx="16" fill="white"/>
</clipPath>
</defs>
</svg>
