<svg width="32" height="33" viewBox="0 0 32 33" fill="none" xmlns="http://www.w3.org/2000/svg">
<rect y="0.5" width="32" height="32" rx="16" fill="#3456D0"/>
<path d="M16.0008 17.9008L11.1008 22.8008C10.9174 22.9841 10.6841 23.0758 10.4008 23.0758C10.1174 23.0758 9.88411 22.9841 9.70078 22.8008C9.51745 22.6174 9.42578 22.3841 9.42578 22.1008C9.42578 21.8174 9.51745 21.5841 9.70078 21.4008L14.6008 16.5008L9.70078 11.6008C9.51745 11.4174 9.42578 11.1841 9.42578 10.9008C9.42578 10.6174 9.51745 10.3841 9.70078 10.2008C9.88411 10.0174 10.1174 9.92578 10.4008 9.92578C10.6841 9.92578 10.9174 10.0174 11.1008 10.2008L16.0008 15.1008L20.9008 10.2008C21.0841 10.0174 21.3174 9.92578 21.6008 9.92578C21.8841 9.92578 22.1174 10.0174 22.3008 10.2008C22.4841 10.3841 22.5758 10.6174 22.5758 10.9008C22.5758 11.1841 22.4841 11.4174 22.3008 11.6008L17.4008 16.5008L22.3008 21.4008C22.4841 21.5841 22.5758 21.8174 22.5758 22.1008C22.5758 22.3841 22.4841 22.6174 22.3008 22.8008C22.1174 22.9841 21.8841 23.0758 21.6008 23.0758C21.3174 23.0758 21.0841 22.9841 20.9008 22.8008L16.0008 17.9008Z" fill="white"/>
</svg>
