<svg width="280" height="280" viewBox="0 0 280 280" fill="none" xmlns="http://www.w3.org/2000/svg">
<path d="M32.2 28H28V32.2H32.2V28Z" fill="black"/>
<path d="M36.3999 28H32.2V32.2H36.3999V28Z" fill="black"/>
<path d="M40.5999 28H36.3999V32.2H40.5999V28Z" fill="black"/>
<path d="M44.8001 28H40.6001V32.2H44.8001V28Z" fill="black"/>
<path d="M49 28H44.8V32.2H49V28Z" fill="black"/>
<path d="M53.2 28H49V32.2H53.2V28Z" fill="black"/>
<path d="M57.3999 28H53.2V32.2H57.3999V28Z" fill="black"/>
<path d="M65.8001 28H61.6001V32.2H65.8001V28Z" fill="black"/>
<path d="M70 28H65.8V32.2H70V28Z" fill="black"/>
<path d="M78.4 28H74.2V32.2H78.4V28Z" fill="black"/>
<path d="M82.5999 28H78.3999V32.2H82.5999V28Z" fill="black"/>
<path d="M112 28H107.8V32.2H112V28Z" fill="black"/>
<path d="M120.4 28H116.2V32.2H120.4V28Z" fill="black"/>
<path d="M124.6 28H120.4V32.2H124.6V28Z" fill="black"/>
<path d="M128.8 28H124.6V32.2H128.8V28Z" fill="black"/>
<path d="M133 28H128.8V32.2H133V28Z" fill="black"/>
<path d="M137.2 28H133V32.2H137.2V28Z" fill="black"/>
<path d="M141.4 28H137.2V32.2H141.4V28Z" fill="black"/>
<path d="M154 28H149.8V32.2H154V28Z" fill="black"/>
<path d="M158.2 28H154V32.2H158.2V28Z" fill="black"/>
<path d="M162.4 28H158.2V32.2H162.4V28Z" fill="black"/>
<path d="M179.2 28H175V32.2H179.2V28Z" fill="black"/>
<path d="M183.4 28H179.2V32.2H183.4V28Z" fill="black"/>
<path d="M187.6 28H183.4V32.2H187.6V28Z" fill="black"/>
<path d="M200.2 28H196V32.2H200.2V28Z" fill="black"/>
<path d="M204.4 28H200.2V32.2H204.4V28Z" fill="black"/>
<path d="M208.6 28H204.4V32.2H208.6V28Z" fill="black"/>
<path d="M225.4 28H221.2V32.2H225.4V28Z" fill="black"/>
<path d="M229.6 28H225.4V32.2H229.6V28Z" fill="black"/>
<path d="M233.8 28H229.6V32.2H233.8V28Z" fill="black"/>
<path d="M238 28H233.8V32.2H238V28Z" fill="black"/>
<path d="M242.2 28H238V32.2H242.2V28Z" fill="black"/>
<path d="M246.4 28H242.2V32.2H246.4V28Z" fill="black"/>
<path d="M250.6 28H246.4V32.2H250.6V28Z" fill="black"/>
<path d="M32.2 32.2H28V36.3999H32.2V32.2Z" fill="black"/>
<path d="M57.3999 32.2H53.2V36.3999H57.3999V32.2Z" fill="black"/>
<path d="M70 32.2H65.8V36.3999H70V32.2Z" fill="black"/>
<path d="M74.2 32.2H70V36.3999H74.2V32.2Z" fill="black"/>
<path d="M78.4 32.2H74.2V36.3999H78.4V32.2Z" fill="black"/>
<path d="M82.5999 32.2H78.3999V36.3999H82.5999V32.2Z" fill="black"/>
<path d="M86.8001 32.2H82.6001V36.3999H86.8001V32.2Z" fill="black"/>
<path d="M91 32.2H86.8V36.3999H91V32.2Z" fill="black"/>
<path d="M99.3999 32.2H95.2V36.3999H99.3999V32.2Z" fill="black"/>
<path d="M107.8 32.2H103.6V36.3999H107.8V32.2Z" fill="black"/>
<path d="M116.2 32.2H112V36.3999H116.2V32.2Z" fill="black"/>
<path d="M137.2 32.2H133V36.3999H137.2V32.2Z" fill="black"/>
<path d="M141.4 32.2H137.2V36.3999H141.4V32.2Z" fill="black"/>
<path d="M145.6 32.2H141.4V36.3999H145.6V32.2Z" fill="black"/>
<path d="M154 32.2H149.8V36.3999H154V32.2Z" fill="black"/>
<path d="M175 32.2H170.8V36.3999H175V32.2Z" fill="black"/>
<path d="M187.6 32.2H183.4V36.3999H187.6V32.2Z" fill="black"/>
<path d="M204.4 32.2H200.2V36.3999H204.4V32.2Z" fill="black"/>
<path d="M208.6 32.2H204.4V36.3999H208.6V32.2Z" fill="black"/>
<path d="M212.8 32.2H208.6V36.3999H212.8V32.2Z" fill="black"/>
<path d="M225.4 32.2H221.2V36.3999H225.4V32.2Z" fill="black"/>
<path d="M250.6 32.2H246.4V36.3999H250.6V32.2Z" fill="black"/>
<path d="M32.2 36.4H28V40.6H32.2V36.4Z" fill="black"/>
<path d="M40.5999 36.4H36.3999V40.6H40.5999V36.4Z" fill="black"/>
<path d="M44.8001 36.4H40.6001V40.6H44.8001V36.4Z" fill="black"/>
<path d="M49 36.4H44.8V40.6H49V36.4Z" fill="black"/>
<path d="M57.3999 36.4H53.2V40.6H57.3999V36.4Z" fill="black"/>
<path d="M65.8001 36.4H61.6001V40.6H65.8001V36.4Z" fill="black"/>
<path d="M70 36.4H65.8V40.6H70V36.4Z" fill="black"/>
<path d="M74.2 36.4H70V40.6H74.2V36.4Z" fill="black"/>
<path d="M82.5999 36.4H78.3999V40.6H82.5999V36.4Z" fill="black"/>
<path d="M95.2 36.4H91V40.6H95.2V36.4Z" fill="black"/>
<path d="M99.3999 36.4H95.2V40.6H99.3999V36.4Z" fill="black"/>
<path d="M103.6 36.4H99.3999V40.6H103.6V36.4Z" fill="black"/>
<path d="M107.8 36.4H103.6V40.6H107.8V36.4Z" fill="black"/>
<path d="M112 36.4H107.8V40.6H112V36.4Z" fill="black"/>
<path d="M120.4 36.4H116.2V40.6H120.4V36.4Z" fill="black"/>
<path d="M124.6 36.4H120.4V40.6H124.6V36.4Z" fill="black"/>
<path d="M128.8 36.4H124.6V40.6H128.8V36.4Z" fill="black"/>
<path d="M133 36.4H128.8V40.6H133V36.4Z" fill="black"/>
<path d="M145.6 36.4H141.4V40.6H145.6V36.4Z" fill="black"/>
<path d="M149.8 36.4H145.6V40.6H149.8V36.4Z" fill="black"/>
<path d="M158.2 36.4H154V40.6H158.2V36.4Z" fill="black"/>
<path d="M162.4 36.4H158.2V40.6H162.4V36.4Z" fill="black"/>
<path d="M175 36.4H170.8V40.6H175V36.4Z" fill="black"/>
<path d="M179.2 36.4H175V40.6H179.2V36.4Z" fill="black"/>
<path d="M187.6 36.4H183.4V40.6H187.6V36.4Z" fill="black"/>
<path d="M212.8 36.4H208.6V40.6H212.8V36.4Z" fill="black"/>
<path d="M225.4 36.4H221.2V40.6H225.4V36.4Z" fill="black"/>
<path d="M233.8 36.4H229.6V40.6H233.8V36.4Z" fill="black"/>
<path d="M238 36.4H233.8V40.6H238V36.4Z" fill="black"/>
<path d="M242.2 36.4H238V40.6H242.2V36.4Z" fill="black"/>
<path d="M250.6 36.4H246.4V40.6H250.6V36.4Z" fill="black"/>
<path d="M32.2 40.6H28V44.8H32.2V40.6Z" fill="black"/>
<path d="M40.5999 40.6H36.3999V44.8H40.5999V40.6Z" fill="black"/>
<path d="M44.8001 40.6H40.6001V44.8H44.8001V40.6Z" fill="black"/>
<path d="M49 40.6H44.8V44.8H49V40.6Z" fill="black"/>
<path d="M57.3999 40.6H53.2V44.8H57.3999V40.6Z" fill="black"/>
<path d="M65.8001 40.6H61.6001V44.8H65.8001V40.6Z" fill="black"/>
<path d="M78.4 40.6H74.2V44.8H78.4V40.6Z" fill="black"/>
<path d="M82.5999 40.6H78.3999V44.8H82.5999V40.6Z" fill="black"/>
<path d="M86.8001 40.6H82.6001V44.8H86.8001V40.6Z" fill="black"/>
<path d="M95.2 40.6H91V44.8H95.2V40.6Z" fill="black"/>
<path d="M99.3999 40.6H95.2V44.8H99.3999V40.6Z" fill="black"/>
<path d="M103.6 40.6H99.3999V44.8H103.6V40.6Z" fill="black"/>
<path d="M107.8 40.6H103.6V44.8H107.8V40.6Z" fill="black"/>
<path d="M116.2 40.6H112V44.8H116.2V40.6Z" fill="black"/>
<path d="M141.4 40.6H137.2V44.8H141.4V40.6Z" fill="black"/>
<path d="M154 40.6H149.8V44.8H154V40.6Z" fill="black"/>
<path d="M158.2 40.6H154V44.8H158.2V40.6Z" fill="black"/>
<path d="M162.4 40.6H158.2V44.8H162.4V40.6Z" fill="black"/>
<path d="M170.8 40.6H166.6V44.8H170.8V40.6Z" fill="black"/>
<path d="M175 40.6H170.8V44.8H175V40.6Z" fill="black"/>
<path d="M179.2 40.6H175V44.8H179.2V40.6Z" fill="black"/>
<path d="M183.4 40.6H179.2V44.8H183.4V40.6Z" fill="black"/>
<path d="M196 40.6H191.8V44.8H196V40.6Z" fill="black"/>
<path d="M208.6 40.6H204.4V44.8H208.6V40.6Z" fill="black"/>
<path d="M217 40.6H212.8V44.8H217V40.6Z" fill="black"/>
<path d="M225.4 40.6H221.2V44.8H225.4V40.6Z" fill="black"/>
<path d="M233.8 40.6H229.6V44.8H233.8V40.6Z" fill="black"/>
<path d="M238 40.6H233.8V44.8H238V40.6Z" fill="black"/>
<path d="M242.2 40.6H238V44.8H242.2V40.6Z" fill="black"/>
<path d="M250.6 40.6H246.4V44.8H250.6V40.6Z" fill="black"/>
<path d="M32.2 44.8H28V49H32.2V44.8Z" fill="black"/>
<path d="M40.5999 44.8H36.3999V49H40.5999V44.8Z" fill="black"/>
<path d="M44.8001 44.8H40.6001V49H44.8001V44.8Z" fill="black"/>
<path d="M49 44.8H44.8V49H49V44.8Z" fill="black"/>
<path d="M57.3999 44.8H53.2V49H57.3999V44.8Z" fill="black"/>
<path d="M65.8001 44.8H61.6001V49H65.8001V44.8Z" fill="black"/>
<path d="M74.2 44.8H70V49H74.2V44.8Z" fill="black"/>
<path d="M78.4 44.8H74.2V49H78.4V44.8Z" fill="black"/>
<path d="M82.5999 44.8H78.3999V49H82.5999V44.8Z" fill="black"/>
<path d="M95.2 44.8H91V49H95.2V44.8Z" fill="black"/>
<path d="M103.6 44.8H99.3999V49H103.6V44.8Z" fill="black"/>
<path d="M107.8 44.8H103.6V49H107.8V44.8Z" fill="black"/>
<path d="M112 44.8H107.8V49H112V44.8Z" fill="black"/>
<path d="M116.2 44.8H112V49H116.2V44.8Z" fill="black"/>
<path d="M124.6 44.8H120.4V49H124.6V44.8Z" fill="black"/>
<path d="M133 44.8H128.8V49H133V44.8Z" fill="black"/>
<path d="M137.2 44.8H133V49H137.2V44.8Z" fill="black"/>
<path d="M141.4 44.8H137.2V49H141.4V44.8Z" fill="black"/>
<path d="M145.6 44.8H141.4V49H145.6V44.8Z" fill="black"/>
<path d="M149.8 44.8H145.6V49H149.8V44.8Z" fill="black"/>
<path d="M154 44.8H149.8V49H154V44.8Z" fill="black"/>
<path d="M166.6 44.8H162.4V49H166.6V44.8Z" fill="black"/>
<path d="M170.8 44.8H166.6V49H170.8V44.8Z" fill="black"/>
<path d="M179.2 44.8H175V49H179.2V44.8Z" fill="black"/>
<path d="M187.6 44.8H183.4V49H187.6V44.8Z" fill="black"/>
<path d="M191.8 44.8H187.6V49H191.8V44.8Z" fill="black"/>
<path d="M208.6 44.8H204.4V49H208.6V44.8Z" fill="black"/>
<path d="M225.4 44.8H221.2V49H225.4V44.8Z" fill="black"/>
<path d="M233.8 44.8H229.6V49H233.8V44.8Z" fill="black"/>
<path d="M238 44.8H233.8V49H238V44.8Z" fill="black"/>
<path d="M242.2 44.8H238V49H242.2V44.8Z" fill="black"/>
<path d="M250.6 44.8H246.4V49H250.6V44.8Z" fill="black"/>
<path d="M32.2 49H28V53.2H32.2V49Z" fill="black"/>
<path d="M57.3999 49H53.2V53.2H57.3999V49Z" fill="black"/>
<path d="M74.2 49H70V53.2H74.2V49Z" fill="black"/>
<path d="M78.4 49H74.2V53.2H78.4V49Z" fill="black"/>
<path d="M82.5999 49H78.3999V53.2H82.5999V49Z" fill="black"/>
<path d="M86.8001 49H82.6001V53.2H86.8001V49Z" fill="black"/>
<path d="M95.2 49H91V53.2H95.2V49Z" fill="black"/>
<path d="M99.3999 49H95.2V53.2H99.3999V49Z" fill="black"/>
<path d="M116.2 49H112V53.2H116.2V49Z" fill="black"/>
<path d="M124.6 49H120.4V53.2H124.6V49Z" fill="black"/>
<path d="M133 49H128.8V53.2H133V49Z" fill="black"/>
<path d="M149.8 49H145.6V53.2H149.8V49Z" fill="black"/>
<path d="M158.2 49H154V53.2H158.2V49Z" fill="black"/>
<path d="M162.4 49H158.2V53.2H162.4V49Z" fill="black"/>
<path d="M187.6 49H183.4V53.2H187.6V49Z" fill="black"/>
<path d="M196 49H191.8V53.2H196V49Z" fill="black"/>
<path d="M204.4 49H200.2V53.2H204.4V49Z" fill="black"/>
<path d="M208.6 49H204.4V53.2H208.6V49Z" fill="black"/>
<path d="M225.4 49H221.2V53.2H225.4V49Z" fill="black"/>
<path d="M250.6 49H246.4V53.2H250.6V49Z" fill="black"/>
<path d="M32.2 53.2H28V57.3999H32.2V53.2Z" fill="black"/>
<path d="M36.3999 53.2H32.2V57.3999H36.3999V53.2Z" fill="black"/>
<path d="M40.5999 53.2H36.3999V57.3999H40.5999V53.2Z" fill="black"/>
<path d="M44.8001 53.2H40.6001V57.3999H44.8001V53.2Z" fill="black"/>
<path d="M49 53.2H44.8V57.3999H49V53.2Z" fill="black"/>
<path d="M53.2 53.2H49V57.3999H53.2V53.2Z" fill="black"/>
<path d="M57.3999 53.2H53.2V57.3999H57.3999V53.2Z" fill="black"/>
<path d="M65.8001 53.2H61.6001V57.3999H65.8001V53.2Z" fill="black"/>
<path d="M74.2 53.2H70V57.3999H74.2V53.2Z" fill="black"/>
<path d="M82.5999 53.2H78.3999V57.3999H82.5999V53.2Z" fill="black"/>
<path d="M91 53.2H86.8V57.3999H91V53.2Z" fill="black"/>
<path d="M99.3999 53.2H95.2V57.3999H99.3999V53.2Z" fill="black"/>
<path d="M107.8 53.2H103.6V57.3999H107.8V53.2Z" fill="black"/>
<path d="M116.2 53.2H112V57.3999H116.2V53.2Z" fill="black"/>
<path d="M124.6 53.2H120.4V57.3999H124.6V53.2Z" fill="black"/>
<path d="M133 53.2H128.8V57.3999H133V53.2Z" fill="black"/>
<path d="M141.4 53.2H137.2V57.3999H141.4V53.2Z" fill="black"/>
<path d="M149.8 53.2H145.6V57.3999H149.8V53.2Z" fill="black"/>
<path d="M158.2 53.2H154V57.3999H158.2V53.2Z" fill="black"/>
<path d="M166.6 53.2H162.4V57.3999H166.6V53.2Z" fill="black"/>
<path d="M175 53.2H170.8V57.3999H175V53.2Z" fill="black"/>
<path d="M183.4 53.2H179.2V57.3999H183.4V53.2Z" fill="black"/>
<path d="M191.8 53.2H187.6V57.3999H191.8V53.2Z" fill="black"/>
<path d="M200.2 53.2H196V57.3999H200.2V53.2Z" fill="black"/>
<path d="M208.6 53.2H204.4V57.3999H208.6V53.2Z" fill="black"/>
<path d="M217 53.2H212.8V57.3999H217V53.2Z" fill="black"/>
<path d="M225.4 53.2H221.2V57.3999H225.4V53.2Z" fill="black"/>
<path d="M229.6 53.2H225.4V57.3999H229.6V53.2Z" fill="black"/>
<path d="M233.8 53.2H229.6V57.3999H233.8V53.2Z" fill="black"/>
<path d="M238 53.2H233.8V57.3999H238V53.2Z" fill="black"/>
<path d="M242.2 53.2H238V57.3999H242.2V53.2Z" fill="black"/>
<path d="M246.4 53.2H242.2V57.3999H246.4V53.2Z" fill="black"/>
<path d="M250.6 53.2H246.4V57.3999H250.6V53.2Z" fill="black"/>
<path d="M70 57.4H65.8V61.6H70V57.4Z" fill="black"/>
<path d="M78.4 57.4H74.2V61.6H78.4V57.4Z" fill="black"/>
<path d="M86.8001 57.4H82.6001V61.6H86.8001V57.4Z" fill="black"/>
<path d="M95.2 57.4H91V61.6H95.2V57.4Z" fill="black"/>
<path d="M116.2 57.4H112V61.6H116.2V57.4Z" fill="black"/>
<path d="M120.4 57.4H116.2V61.6H120.4V57.4Z" fill="black"/>
<path d="M133 57.4H128.8V61.6H133V57.4Z" fill="black"/>
<path d="M149.8 57.4H145.6V61.6H149.8V57.4Z" fill="black"/>
<path d="M158.2 57.4H154V61.6H158.2V57.4Z" fill="black"/>
<path d="M166.6 57.4H162.4V61.6H166.6V57.4Z" fill="black"/>
<path d="M179.2 57.4H175V61.6H179.2V57.4Z" fill="black"/>
<path d="M183.4 57.4H179.2V61.6H183.4V57.4Z" fill="black"/>
<path d="M187.6 57.4H183.4V61.6H187.6V57.4Z" fill="black"/>
<path d="M191.8 57.4H187.6V61.6H191.8V57.4Z" fill="black"/>
<path d="M196 57.4H191.8V61.6H196V57.4Z" fill="black"/>
<path d="M204.4 57.4H200.2V61.6H204.4V57.4Z" fill="black"/>
<path d="M208.6 57.4H204.4V61.6H208.6V57.4Z" fill="black"/>
<path d="M217 57.4H212.8V61.6H217V57.4Z" fill="black"/>
<path d="M32.2 61.6H28V65.8H32.2V61.6Z" fill="black"/>
<path d="M36.3999 61.6H32.2V65.8H36.3999V61.6Z" fill="black"/>
<path d="M40.5999 61.6H36.3999V65.8H40.5999V61.6Z" fill="black"/>
<path d="M44.8001 61.6H40.6001V65.8H44.8001V61.6Z" fill="black"/>
<path d="M57.3999 61.6H53.2V65.8H57.3999V61.6Z" fill="black"/>
<path d="M65.8001 61.6H61.6001V65.8H65.8001V61.6Z" fill="black"/>
<path d="M82.5999 61.6H78.3999V65.8H82.5999V61.6Z" fill="black"/>
<path d="M95.2 61.6H91V65.8H95.2V61.6Z" fill="black"/>
<path d="M99.3999 61.6H95.2V65.8H99.3999V61.6Z" fill="black"/>
<path d="M103.6 61.6H99.3999V65.8H103.6V61.6Z" fill="black"/>
<path d="M120.4 61.6H116.2V65.8H120.4V61.6Z" fill="black"/>
<path d="M124.6 61.6H120.4V65.8H124.6V61.6Z" fill="black"/>
<path d="M133 61.6H128.8V65.8H133V61.6Z" fill="black"/>
<path d="M137.2 61.6H133V65.8H137.2V61.6Z" fill="black"/>
<path d="M141.4 61.6H137.2V65.8H141.4V61.6Z" fill="black"/>
<path d="M145.6 61.6H141.4V65.8H145.6V61.6Z" fill="black"/>
<path d="M149.8 61.6H145.6V65.8H149.8V61.6Z" fill="black"/>
<path d="M170.8 61.6H166.6V65.8H170.8V61.6Z" fill="black"/>
<path d="M179.2 61.6H175V65.8H179.2V61.6Z" fill="black"/>
<path d="M196 61.6H191.8V65.8H196V61.6Z" fill="black"/>
<path d="M200.2 61.6H196V65.8H200.2V61.6Z" fill="black"/>
<path d="M208.6 61.6H204.4V65.8H208.6V61.6Z" fill="black"/>
<path d="M212.8 61.6H208.6V65.8H212.8V61.6Z" fill="black"/>
<path d="M221.2 61.6H217V65.8H221.2V61.6Z" fill="black"/>
<path d="M233.8 61.6H229.6V65.8H233.8V61.6Z" fill="black"/>
<path d="M238 61.6H233.8V65.8H238V61.6Z" fill="black"/>
<path d="M242.2 61.6H238V65.8H242.2V61.6Z" fill="black"/>
<path d="M250.6 61.6H246.4V65.8H250.6V61.6Z" fill="black"/>
<path d="M36.3999 65.8H32.2V70H36.3999V65.8Z" fill="black"/>
<path d="M40.5999 65.8H36.3999V70H40.5999V65.8Z" fill="black"/>
<path d="M44.8001 65.8H40.6001V70H44.8001V65.8Z" fill="black"/>
<path d="M49 65.8H44.8V70H49V65.8Z" fill="black"/>
<path d="M61.5999 65.8H57.3999V70H61.5999V65.8Z" fill="black"/>
<path d="M65.8001 65.8H61.6001V70H65.8001V65.8Z" fill="black"/>
<path d="M70 65.8H65.8V70H70V65.8Z" fill="black"/>
<path d="M74.2 65.8H70V70H74.2V65.8Z" fill="black"/>
<path d="M78.4 65.8H74.2V70H78.4V65.8Z" fill="black"/>
<path d="M112 65.8H107.8V70H112V65.8Z" fill="black"/>
<path d="M120.4 65.8H116.2V70H120.4V65.8Z" fill="black"/>
<path d="M124.6 65.8H120.4V70H124.6V65.8Z" fill="black"/>
<path d="M145.6 65.8H141.4V70H145.6V65.8Z" fill="black"/>
<path d="M149.8 65.8H145.6V70H149.8V65.8Z" fill="black"/>
<path d="M158.2 65.8H154V70H158.2V65.8Z" fill="black"/>
<path d="M162.4 65.8H158.2V70H162.4V65.8Z" fill="black"/>
<path d="M179.2 65.8H175V70H179.2V65.8Z" fill="black"/>
<path d="M183.4 65.8H179.2V70H183.4V65.8Z" fill="black"/>
<path d="M187.6 65.8H183.4V70H187.6V65.8Z" fill="black"/>
<path d="M200.2 65.8H196V70H200.2V65.8Z" fill="black"/>
<path d="M204.4 65.8H200.2V70H204.4V65.8Z" fill="black"/>
<path d="M208.6 65.8H204.4V70H208.6V65.8Z" fill="black"/>
<path d="M229.6 65.8H225.4V70H229.6V65.8Z" fill="black"/>
<path d="M233.8 65.8H229.6V70H233.8V65.8Z" fill="black"/>
<path d="M238 65.8H233.8V70H238V65.8Z" fill="black"/>
<path d="M246.4 65.8H242.2V70H246.4V65.8Z" fill="black"/>
<path d="M32.2 70H28V74.2H32.2V70Z" fill="black"/>
<path d="M36.3999 70H32.2V74.2H36.3999V70Z" fill="black"/>
<path d="M40.5999 70H36.3999V74.2H40.5999V70Z" fill="black"/>
<path d="M44.8001 70H40.6001V74.2H44.8001V70Z" fill="black"/>
<path d="M49 70H44.8V74.2H49V70Z" fill="black"/>
<path d="M53.2 70H49V74.2H53.2V70Z" fill="black"/>
<path d="M57.3999 70H53.2V74.2H57.3999V70Z" fill="black"/>
<path d="M65.8001 70H61.6001V74.2H65.8001V70Z" fill="black"/>
<path d="M74.2 70H70V74.2H74.2V70Z" fill="black"/>
<path d="M82.5999 70H78.3999V74.2H82.5999V70Z" fill="black"/>
<path d="M91 70H86.8V74.2H91V70Z" fill="black"/>
<path d="M99.3999 70H95.2V74.2H99.3999V70Z" fill="black"/>
<path d="M107.8 70H103.6V74.2H107.8V70Z" fill="black"/>
<path d="M112 70H107.8V74.2H112V70Z" fill="black"/>
<path d="M120.4 70H116.2V74.2H120.4V70Z" fill="black"/>
<path d="M124.6 70H120.4V74.2H124.6V70Z" fill="black"/>
<path d="M128.8 70H124.6V74.2H128.8V70Z" fill="black"/>
<path d="M133 70H128.8V74.2H133V70Z" fill="black"/>
<path d="M145.6 70H141.4V74.2H145.6V70Z" fill="black"/>
<path d="M158.2 70H154V74.2H158.2V70Z" fill="black"/>
<path d="M166.6 70H162.4V74.2H166.6V70Z" fill="black"/>
<path d="M175 70H170.8V74.2H175V70Z" fill="black"/>
<path d="M200.2 70H196V74.2H200.2V70Z" fill="black"/>
<path d="M204.4 70H200.2V74.2H204.4V70Z" fill="black"/>
<path d="M217 70H212.8V74.2H217V70Z" fill="black"/>
<path d="M221.2 70H217V74.2H221.2V70Z" fill="black"/>
<path d="M238 70H233.8V74.2H238V70Z" fill="black"/>
<path d="M242.2 70H238V74.2H242.2V70Z" fill="black"/>
<path d="M246.4 70H242.2V74.2H246.4V70Z" fill="black"/>
<path d="M32.2 74.2H28V78.4H32.2V74.2Z" fill="black"/>
<path d="M36.3999 74.2H32.2V78.4H36.3999V74.2Z" fill="black"/>
<path d="M44.8001 74.2H40.6001V78.4H44.8001V74.2Z" fill="black"/>
<path d="M61.5999 74.2H57.3999V78.4H61.5999V74.2Z" fill="black"/>
<path d="M65.8001 74.2H61.6001V78.4H65.8001V74.2Z" fill="black"/>
<path d="M78.4 74.2H74.2V78.4H78.4V74.2Z" fill="black"/>
<path d="M82.5999 74.2H78.3999V78.4H82.5999V74.2Z" fill="black"/>
<path d="M91 74.2H86.8V78.4H91V74.2Z" fill="black"/>
<path d="M103.6 74.2H99.3999V78.4H103.6V74.2Z" fill="black"/>
<path d="M112 74.2H107.8V78.4H112V74.2Z" fill="black"/>
<path d="M116.2 74.2H112V78.4H116.2V74.2Z" fill="black"/>
<path d="M128.8 74.2H124.6V78.4H128.8V74.2Z" fill="black"/>
<path d="M145.6 74.2H141.4V78.4H145.6V74.2Z" fill="black"/>
<path d="M149.8 74.2H145.6V78.4H149.8V74.2Z" fill="black"/>
<path d="M154 74.2H149.8V78.4H154V74.2Z" fill="black"/>
<path d="M158.2 74.2H154V78.4H158.2V74.2Z" fill="black"/>
<path d="M162.4 74.2H158.2V78.4H162.4V74.2Z" fill="black"/>
<path d="M166.6 74.2H162.4V78.4H166.6V74.2Z" fill="black"/>
<path d="M170.8 74.2H166.6V78.4H170.8V74.2Z" fill="black"/>
<path d="M183.4 74.2H179.2V78.4H183.4V74.2Z" fill="black"/>
<path d="M208.6 74.2H204.4V78.4H208.6V74.2Z" fill="black"/>
<path d="M212.8 74.2H208.6V78.4H212.8V74.2Z" fill="black"/>
<path d="M225.4 74.2H221.2V78.4H225.4V74.2Z" fill="black"/>
<path d="M229.6 74.2H225.4V78.4H229.6V74.2Z" fill="black"/>
<path d="M233.8 74.2H229.6V78.4H233.8V74.2Z" fill="black"/>
<path d="M246.4 74.2H242.2V78.4H246.4V74.2Z" fill="black"/>
<path d="M250.6 74.2H246.4V78.4H250.6V74.2Z" fill="black"/>
<path d="M32.2 78.4H28V82.6H32.2V78.4Z" fill="black"/>
<path d="M53.2 78.4H49V82.6H53.2V78.4Z" fill="black"/>
<path d="M57.3999 78.4H53.2V82.6H57.3999V78.4Z" fill="black"/>
<path d="M65.8001 78.4H61.6001V82.6H65.8001V78.4Z" fill="black"/>
<path d="M78.4 78.4H74.2V82.6H78.4V78.4Z" fill="black"/>
<path d="M82.5999 78.4H78.3999V82.6H82.5999V78.4Z" fill="black"/>
<path d="M86.8001 78.4H82.6001V82.6H86.8001V78.4Z" fill="black"/>
<path d="M99.3999 78.4H95.2V82.6H99.3999V78.4Z" fill="black"/>
<path d="M107.8 78.4H103.6V82.6H107.8V78.4Z" fill="black"/>
<path d="M116.2 78.4H112V82.6H116.2V78.4Z" fill="black"/>
<path d="M120.4 78.4H116.2V82.6H120.4V78.4Z" fill="black"/>
<path d="M128.8 78.4H124.6V82.6H128.8V78.4Z" fill="black"/>
<path d="M133 78.4H128.8V82.6H133V78.4Z" fill="black"/>
<path d="M145.6 78.4H141.4V82.6H145.6V78.4Z" fill="black"/>
<path d="M154 78.4H149.8V82.6H154V78.4Z" fill="black"/>
<path d="M158.2 78.4H154V82.6H158.2V78.4Z" fill="black"/>
<path d="M175 78.4H170.8V82.6H175V78.4Z" fill="black"/>
<path d="M183.4 78.4H179.2V82.6H183.4V78.4Z" fill="black"/>
<path d="M191.8 78.4H187.6V82.6H191.8V78.4Z" fill="black"/>
<path d="M196 78.4H191.8V82.6H196V78.4Z" fill="black"/>
<path d="M212.8 78.4H208.6V82.6H212.8V78.4Z" fill="black"/>
<path d="M221.2 78.4H217V82.6H221.2V78.4Z" fill="black"/>
<path d="M233.8 78.4H229.6V82.6H233.8V78.4Z" fill="black"/>
<path d="M246.4 78.4H242.2V82.6H246.4V78.4Z" fill="black"/>
<path d="M250.6 78.4H246.4V82.6H250.6V78.4Z" fill="black"/>
<path d="M40.5999 82.6H36.3999V86.8H40.5999V82.6Z" fill="black"/>
<path d="M53.2 82.6H49V86.8H53.2V82.6Z" fill="black"/>
<path d="M65.8001 82.6H61.6001V86.8H65.8001V82.6Z" fill="black"/>
<path d="M70 82.6H65.8V86.8H70V82.6Z" fill="black"/>
<path d="M78.4 82.6H74.2V86.8H78.4V82.6Z" fill="black"/>
<path d="M82.5999 82.6H78.3999V86.8H82.5999V82.6Z" fill="black"/>
<path d="M95.2 82.6H91V86.8H95.2V82.6Z" fill="black"/>
<path d="M103.6 82.6H99.3999V86.8H103.6V82.6Z" fill="black"/>
<path d="M112 82.6H107.8V86.8H112V82.6Z" fill="black"/>
<path d="M116.2 82.6H112V86.8H116.2V82.6Z" fill="black"/>
<path d="M120.4 82.6H116.2V86.8H120.4V82.6Z" fill="black"/>
<path d="M124.6 82.6H120.4V86.8H124.6V82.6Z" fill="black"/>
<path d="M128.8 82.6H124.6V86.8H128.8V82.6Z" fill="black"/>
<path d="M141.4 82.6H137.2V86.8H141.4V82.6Z" fill="black"/>
<path d="M154 82.6H149.8V86.8H154V82.6Z" fill="black"/>
<path d="M170.8 82.6H166.6V86.8H170.8V82.6Z" fill="black"/>
<path d="M187.6 82.6H183.4V86.8H187.6V82.6Z" fill="black"/>
<path d="M191.8 82.6H187.6V86.8H191.8V82.6Z" fill="black"/>
<path d="M204.4 82.6H200.2V86.8H204.4V82.6Z" fill="black"/>
<path d="M212.8 82.6H208.6V86.8H212.8V82.6Z" fill="black"/>
<path d="M217 82.6H212.8V86.8H217V82.6Z" fill="black"/>
<path d="M233.8 82.6H229.6V86.8H233.8V82.6Z" fill="black"/>
<path d="M238 82.6H233.8V86.8H238V82.6Z" fill="black"/>
<path d="M32.2 86.8H28V91H32.2V86.8Z" fill="black"/>
<path d="M36.3999 86.8H32.2V91H36.3999V86.8Z" fill="black"/>
<path d="M40.5999 86.8H36.3999V91H40.5999V86.8Z" fill="black"/>
<path d="M44.8001 86.8H40.6001V91H44.8001V86.8Z" fill="black"/>
<path d="M53.2 86.8H49V91H53.2V86.8Z" fill="black"/>
<path d="M57.3999 86.8H53.2V91H57.3999V86.8Z" fill="black"/>
<path d="M65.8001 86.8H61.6001V91H65.8001V86.8Z" fill="black"/>
<path d="M70 86.8H65.8V91H70V86.8Z" fill="black"/>
<path d="M82.5999 86.8H78.3999V91H82.5999V86.8Z" fill="black"/>
<path d="M86.8001 86.8H82.6001V91H86.8001V86.8Z" fill="black"/>
<path d="M95.2 86.8H91V91H95.2V86.8Z" fill="black"/>
<path d="M99.3999 86.8H95.2V91H99.3999V86.8Z" fill="black"/>
<path d="M107.8 86.8H103.6V91H107.8V86.8Z" fill="black"/>
<path d="M112 86.8H107.8V91H112V86.8Z" fill="black"/>
<path d="M116.2 86.8H112V91H116.2V86.8Z" fill="black"/>
<path d="M124.6 86.8H120.4V91H124.6V86.8Z" fill="black"/>
<path d="M128.8 86.8H124.6V91H128.8V86.8Z" fill="black"/>
<path d="M133 86.8H128.8V91H133V86.8Z" fill="black"/>
<path d="M145.6 86.8H141.4V91H145.6V86.8Z" fill="black"/>
<path d="M149.8 86.8H145.6V91H149.8V86.8Z" fill="black"/>
<path d="M154 86.8H149.8V91H154V86.8Z" fill="black"/>
<path d="M158.2 86.8H154V91H158.2V86.8Z" fill="black"/>
<path d="M162.4 86.8H158.2V91H162.4V86.8Z" fill="black"/>
<path d="M179.2 86.8H175V91H179.2V86.8Z" fill="black"/>
<path d="M187.6 86.8H183.4V91H187.6V86.8Z" fill="black"/>
<path d="M191.8 86.8H187.6V91H191.8V86.8Z" fill="black"/>
<path d="M196 86.8H191.8V91H196V86.8Z" fill="black"/>
<path d="M204.4 86.8H200.2V91H204.4V86.8Z" fill="black"/>
<path d="M208.6 86.8H204.4V91H208.6V86.8Z" fill="black"/>
<path d="M212.8 86.8H208.6V91H212.8V86.8Z" fill="black"/>
<path d="M221.2 86.8H217V91H221.2V86.8Z" fill="black"/>
<path d="M229.6 86.8H225.4V91H229.6V86.8Z" fill="black"/>
<path d="M238 86.8H233.8V91H238V86.8Z" fill="black"/>
<path d="M242.2 86.8H238V91H242.2V86.8Z" fill="black"/>
<path d="M246.4 86.8H242.2V91H246.4V86.8Z" fill="black"/>
<path d="M250.6 86.8H246.4V91H250.6V86.8Z" fill="black"/>
<path d="M32.2 91H28V95.2H32.2V91Z" fill="black"/>
<path d="M36.3999 91H32.2V95.2H36.3999V91Z" fill="black"/>
<path d="M65.8001 91H61.6001V95.2H65.8001V91Z" fill="black"/>
<path d="M74.2 91H70V95.2H74.2V91Z" fill="black"/>
<path d="M86.8001 91H82.6001V95.2H86.8001V91Z" fill="black"/>
<path d="M95.2 91H91V95.2H95.2V91Z" fill="black"/>
<path d="M103.6 91H99.3999V95.2H103.6V91Z" fill="black"/>
<path d="M112 91H107.8V95.2H112V91Z" fill="black"/>
<path d="M116.2 91H112V95.2H116.2V91Z" fill="black"/>
<path d="M120.4 91H116.2V95.2H120.4V91Z" fill="black"/>
<path d="M124.6 91H120.4V95.2H124.6V91Z" fill="black"/>
<path d="M128.8 91H124.6V95.2H128.8V91Z" fill="black"/>
<path d="M133 91H128.8V95.2H133V91Z" fill="black"/>
<path d="M137.2 91H133V95.2H137.2V91Z" fill="black"/>
<path d="M145.6 91H141.4V95.2H145.6V91Z" fill="black"/>
<path d="M170.8 91H166.6V95.2H170.8V91Z" fill="black"/>
<path d="M175 91H170.8V95.2H175V91Z" fill="black"/>
<path d="M179.2 91H175V95.2H179.2V91Z" fill="black"/>
<path d="M187.6 91H183.4V95.2H187.6V91Z" fill="black"/>
<path d="M200.2 91H196V95.2H200.2V91Z" fill="black"/>
<path d="M204.4 91H200.2V95.2H204.4V91Z" fill="black"/>
<path d="M212.8 91H208.6V95.2H212.8V91Z" fill="black"/>
<path d="M221.2 91H217V95.2H221.2V91Z" fill="black"/>
<path d="M233.8 91H229.6V95.2H233.8V91Z" fill="black"/>
<path d="M246.4 91H242.2V95.2H246.4V91Z" fill="black"/>
<path d="M32.2 95.2H28V99.3999H32.2V95.2Z" fill="black"/>
<path d="M40.5999 95.2H36.3999V99.3999H40.5999V95.2Z" fill="black"/>
<path d="M57.3999 95.2H53.2V99.3999H57.3999V95.2Z" fill="black"/>
<path d="M65.8001 95.2H61.6001V99.3999H65.8001V95.2Z" fill="black"/>
<path d="M70 95.2H65.8V99.3999H70V95.2Z" fill="black"/>
<path d="M82.5999 95.2H78.3999V99.3999H82.5999V95.2Z" fill="black"/>
<path d="M86.8001 95.2H82.6001V99.3999H86.8001V95.2Z" fill="black"/>
<path d="M91 95.2H86.8V99.3999H91V95.2Z" fill="black"/>
<path d="M95.2 95.2H91V99.3999H95.2V95.2Z" fill="black"/>
<path d="M99.3999 95.2H95.2V99.3999H99.3999V95.2Z" fill="black"/>
<path d="M112 95.2H107.8V99.3999H112V95.2Z" fill="black"/>
<path d="M120.4 95.2H116.2V99.3999H120.4V95.2Z" fill="black"/>
<path d="M128.8 95.2H124.6V99.3999H128.8V95.2Z" fill="black"/>
<path d="M133 95.2H128.8V99.3999H133V95.2Z" fill="black"/>
<path d="M145.6 95.2H141.4V99.3999H145.6V95.2Z" fill="black"/>
<path d="M158.2 95.2H154V99.3999H158.2V95.2Z" fill="black"/>
<path d="M162.4 95.2H158.2V99.3999H162.4V95.2Z" fill="black"/>
<path d="M166.6 95.2H162.4V99.3999H166.6V95.2Z" fill="black"/>
<path d="M170.8 95.2H166.6V99.3999H170.8V95.2Z" fill="black"/>
<path d="M175 95.2H170.8V99.3999H175V95.2Z" fill="black"/>
<path d="M204.4 95.2H200.2V99.3999H204.4V95.2Z" fill="black"/>
<path d="M208.6 95.2H204.4V99.3999H208.6V95.2Z" fill="black"/>
<path d="M212.8 95.2H208.6V99.3999H212.8V95.2Z" fill="black"/>
<path d="M225.4 95.2H221.2V99.3999H225.4V95.2Z" fill="black"/>
<path d="M238 95.2H233.8V99.3999H238V95.2Z" fill="black"/>
<path d="M246.4 95.2H242.2V99.3999H246.4V95.2Z" fill="black"/>
<path d="M40.5999 99.4H36.3999V103.6H40.5999V99.4Z" fill="black"/>
<path d="M44.8001 99.4H40.6001V103.6H44.8001V99.4Z" fill="black"/>
<path d="M74.2 99.4H70V103.6H74.2V99.4Z" fill="black"/>
<path d="M78.4 99.4H74.2V103.6H78.4V99.4Z" fill="black"/>
<path d="M82.5999 99.4H78.3999V103.6H82.5999V99.4Z" fill="black"/>
<path d="M99.3999 99.4H95.2V103.6H99.3999V99.4Z" fill="black"/>
<path d="M107.8 99.4H103.6V103.6H107.8V99.4Z" fill="black"/>
<path d="M112 99.4H107.8V103.6H112V99.4Z" fill="black"/>
<path d="M128.8 99.4H124.6V103.6H128.8V99.4Z" fill="black"/>
<path d="M141.4 99.4H137.2V103.6H141.4V99.4Z" fill="black"/>
<path d="M154 99.4H149.8V103.6H154V99.4Z" fill="black"/>
<path d="M170.8 99.4H166.6V103.6H170.8V99.4Z" fill="black"/>
<path d="M175 99.4H170.8V103.6H175V99.4Z" fill="black"/>
<path d="M179.2 99.4H175V103.6H179.2V99.4Z" fill="black"/>
<path d="M200.2 99.4H196V103.6H200.2V99.4Z" fill="black"/>
<path d="M212.8 99.4H208.6V103.6H212.8V99.4Z" fill="black"/>
<path d="M221.2 99.4H217V103.6H221.2V99.4Z" fill="black"/>
<path d="M225.4 99.4H221.2V103.6H225.4V99.4Z" fill="black"/>
<path d="M233.8 99.4H229.6V103.6H233.8V99.4Z" fill="black"/>
<path d="M242.2 99.4H238V103.6H242.2V99.4Z" fill="black"/>
<path d="M250.6 99.4H246.4V103.6H250.6V99.4Z" fill="black"/>
<path d="M36.3999 103.6H32.2V107.8H36.3999V103.6Z" fill="black"/>
<path d="M44.8001 103.6H40.6001V107.8H44.8001V103.6Z" fill="black"/>
<path d="M53.2 103.6H49V107.8H53.2V103.6Z" fill="black"/>
<path d="M57.3999 103.6H53.2V107.8H57.3999V103.6Z" fill="black"/>
<path d="M61.5999 103.6H57.3999V107.8H61.5999V103.6Z" fill="black"/>
<path d="M74.2 103.6H70V107.8H74.2V103.6Z" fill="black"/>
<path d="M91 103.6H86.8V107.8H91V103.6Z" fill="black"/>
<path d="M95.2 103.6H91V107.8H95.2V103.6Z" fill="black"/>
<path d="M120.4 103.6H116.2V107.8H120.4V103.6Z" fill="black"/>
<path d="M124.6 103.6H120.4V107.8H124.6V103.6Z" fill="black"/>
<path d="M141.4 103.6H137.2V107.8H141.4V103.6Z" fill="black"/>
<path d="M154 103.6H149.8V107.8H154V103.6Z" fill="black"/>
<path d="M158.2 103.6H154V107.8H158.2V103.6Z" fill="black"/>
<path d="M162.4 103.6H158.2V107.8H162.4V103.6Z" fill="black"/>
<path d="M166.6 103.6H162.4V107.8H166.6V103.6Z" fill="black"/>
<path d="M170.8 103.6H166.6V107.8H170.8V103.6Z" fill="black"/>
<path d="M175 103.6H170.8V107.8H175V103.6Z" fill="black"/>
<path d="M183.4 103.6H179.2V107.8H183.4V103.6Z" fill="black"/>
<path d="M187.6 103.6H183.4V107.8H187.6V103.6Z" fill="black"/>
<path d="M191.8 103.6H187.6V107.8H191.8V103.6Z" fill="black"/>
<path d="M204.4 103.6H200.2V107.8H204.4V103.6Z" fill="black"/>
<path d="M217 103.6H212.8V107.8H217V103.6Z" fill="black"/>
<path d="M229.6 103.6H225.4V107.8H229.6V103.6Z" fill="black"/>
<path d="M233.8 103.6H229.6V107.8H233.8V103.6Z" fill="black"/>
<path d="M32.2 107.8H28V112H32.2V107.8Z" fill="black"/>
<path d="M36.3999 107.8H32.2V112H36.3999V107.8Z" fill="black"/>
<path d="M40.5999 107.8H36.3999V112H40.5999V107.8Z" fill="black"/>
<path d="M44.8001 107.8H40.6001V112H44.8001V107.8Z" fill="black"/>
<path d="M53.2 107.8H49V112H53.2V107.8Z" fill="black"/>
<path d="M65.8001 107.8H61.6001V112H65.8001V107.8Z" fill="black"/>
<path d="M70 107.8H65.8V112H70V107.8Z" fill="black"/>
<path d="M74.2 107.8H70V112H74.2V107.8Z" fill="black"/>
<path d="M78.4 107.8H74.2V112H78.4V107.8Z" fill="black"/>
<path d="M82.5999 107.8H78.3999V112H82.5999V107.8Z" fill="black"/>
<path d="M86.8001 107.8H82.6001V112H86.8001V107.8Z" fill="black"/>
<path d="M95.2 107.8H91V112H95.2V107.8Z" fill="black"/>
<path d="M103.6 107.8H99.3999V112H103.6V107.8Z" fill="black"/>
<path d="M107.8 107.8H103.6V112H107.8V107.8Z" fill="black"/>
<path d="M116.2 107.8H112V112H116.2V107.8Z" fill="black"/>
<path d="M137.2 107.8H133V112H137.2V107.8Z" fill="black"/>
<path d="M141.4 107.8H137.2V112H141.4V107.8Z" fill="black"/>
<path d="M154 107.8H149.8V112H154V107.8Z" fill="black"/>
<path d="M162.4 107.8H158.2V112H162.4V107.8Z" fill="black"/>
<path d="M179.2 107.8H175V112H179.2V107.8Z" fill="black"/>
<path d="M183.4 107.8H179.2V112H183.4V107.8Z" fill="black"/>
<path d="M191.8 107.8H187.6V112H191.8V107.8Z" fill="black"/>
<path d="M196 107.8H191.8V112H196V107.8Z" fill="black"/>
<path d="M204.4 107.8H200.2V112H204.4V107.8Z" fill="black"/>
<path d="M208.6 107.8H204.4V112H208.6V107.8Z" fill="black"/>
<path d="M212.8 107.8H208.6V112H212.8V107.8Z" fill="black"/>
<path d="M225.4 107.8H221.2V112H225.4V107.8Z" fill="black"/>
<path d="M233.8 107.8H229.6V112H233.8V107.8Z" fill="black"/>
<path d="M242.2 107.8H238V112H242.2V107.8Z" fill="black"/>
<path d="M246.4 107.8H242.2V112H246.4V107.8Z" fill="black"/>
<path d="M250.6 107.8H246.4V112H250.6V107.8Z" fill="black"/>
<path d="M40.5999 112H36.3999V116.2H40.5999V112Z" fill="black"/>
<path d="M57.3999 112H53.2V116.2H57.3999V112Z" fill="black"/>
<path d="M61.5999 112H57.3999V116.2H61.5999V112Z" fill="black"/>
<path d="M65.8001 112H61.6001V116.2H65.8001V112Z" fill="black"/>
<path d="M78.4 112H74.2V116.2H78.4V112Z" fill="black"/>
<path d="M95.2 112H91V116.2H95.2V112Z" fill="black"/>
<path d="M103.6 112H99.3999V116.2H103.6V112Z" fill="black"/>
<path d="M112 112H107.8V116.2H112V112Z" fill="black"/>
<path d="M116.2 112H112V116.2H116.2V112Z" fill="black"/>
<path d="M124.6 112H120.4V116.2H124.6V112Z" fill="black"/>
<path d="M137.2 112H133V116.2H137.2V112Z" fill="black"/>
<path d="M145.6 112H141.4V116.2H145.6V112Z" fill="black"/>
<path d="M154 112H149.8V116.2H154V112Z" fill="black"/>
<path d="M170.8 112H166.6V116.2H170.8V112Z" fill="black"/>
<path d="M175 112H170.8V116.2H175V112Z" fill="black"/>
<path d="M179.2 112H175V116.2H179.2V112Z" fill="black"/>
<path d="M196 112H191.8V116.2H196V112Z" fill="black"/>
<path d="M200.2 112H196V116.2H200.2V112Z" fill="black"/>
<path d="M204.4 112H200.2V116.2H204.4V112Z" fill="black"/>
<path d="M208.6 112H204.4V116.2H208.6V112Z" fill="black"/>
<path d="M212.8 112H208.6V116.2H212.8V112Z" fill="black"/>
<path d="M225.4 112H221.2V116.2H225.4V112Z" fill="black"/>
<path d="M242.2 112H238V116.2H242.2V112Z" fill="black"/>
<path d="M246.4 112H242.2V116.2H246.4V112Z" fill="black"/>
<path d="M250.6 112H246.4V116.2H250.6V112Z" fill="black"/>
<path d="M32.2 116.2H28V120.4H32.2V116.2Z" fill="black"/>
<path d="M40.5999 116.2H36.3999V120.4H40.5999V116.2Z" fill="black"/>
<path d="M44.8001 116.2H40.6001V120.4H44.8001V116.2Z" fill="black"/>
<path d="M53.2 116.2H49V120.4H53.2V116.2Z" fill="black"/>
<path d="M61.5999 116.2H57.3999V120.4H61.5999V116.2Z" fill="black"/>
<path d="M70 116.2H65.8V120.4H70V116.2Z" fill="black"/>
<path d="M74.2 116.2H70V120.4H74.2V116.2Z" fill="black"/>
<path d="M78.4 116.2H74.2V120.4H78.4V116.2Z" fill="black"/>
<path d="M82.5999 116.2H78.3999V120.4H82.5999V116.2Z" fill="black"/>
<path d="M91 116.2H86.8V120.4H91V116.2Z" fill="black"/>
<path d="M103.6 116.2H99.3999V120.4H103.6V116.2Z" fill="black"/>
<path d="M107.8 116.2H103.6V120.4H107.8V116.2Z" fill="black"/>
<path d="M124.6 116.2H120.4V120.4H124.6V116.2Z" fill="black"/>
<path d="M128.8 116.2H124.6V120.4H128.8V116.2Z" fill="black"/>
<path d="M158.2 116.2H154V120.4H158.2V116.2Z" fill="black"/>
<path d="M162.4 116.2H158.2V120.4H162.4V116.2Z" fill="black"/>
<path d="M166.6 116.2H162.4V120.4H166.6V116.2Z" fill="black"/>
<path d="M179.2 116.2H175V120.4H179.2V116.2Z" fill="black"/>
<path d="M183.4 116.2H179.2V120.4H183.4V116.2Z" fill="black"/>
<path d="M187.6 116.2H183.4V120.4H187.6V116.2Z" fill="black"/>
<path d="M208.6 116.2H204.4V120.4H208.6V116.2Z" fill="black"/>
<path d="M212.8 116.2H208.6V120.4H212.8V116.2Z" fill="black"/>
<path d="M221.2 116.2H217V120.4H221.2V116.2Z" fill="black"/>
<path d="M242.2 116.2H238V120.4H242.2V116.2Z" fill="black"/>
<path d="M36.3999 120.4H32.2V124.6H36.3999V120.4Z" fill="black"/>
<path d="M57.3999 120.4H53.2V124.6H57.3999V120.4Z" fill="black"/>
<path d="M61.5999 120.4H57.3999V124.6H61.5999V120.4Z" fill="black"/>
<path d="M70 120.4H65.8V124.6H70V120.4Z" fill="black"/>
<path d="M74.2 120.4H70V124.6H74.2V120.4Z" fill="black"/>
<path d="M91 120.4H86.8V124.6H91V120.4Z" fill="black"/>
<path d="M99.3999 120.4H95.2V124.6H99.3999V120.4Z" fill="black"/>
<path d="M103.6 120.4H99.3999V124.6H103.6V120.4Z" fill="black"/>
<path d="M107.8 120.4H103.6V124.6H107.8V120.4Z" fill="black"/>
<path d="M116.2 120.4H112V124.6H116.2V120.4Z" fill="black"/>
<path d="M128.8 120.4H124.6V124.6H128.8V120.4Z" fill="black"/>
<path d="M133 120.4H128.8V124.6H133V120.4Z" fill="black"/>
<path d="M145.6 120.4H141.4V124.6H145.6V120.4Z" fill="black"/>
<path d="M158.2 120.4H154V124.6H158.2V120.4Z" fill="black"/>
<path d="M162.4 120.4H158.2V124.6H162.4V120.4Z" fill="black"/>
<path d="M175 120.4H170.8V124.6H175V120.4Z" fill="black"/>
<path d="M187.6 120.4H183.4V124.6H187.6V120.4Z" fill="black"/>
<path d="M208.6 120.4H204.4V124.6H208.6V120.4Z" fill="black"/>
<path d="M212.8 120.4H208.6V124.6H212.8V120.4Z" fill="black"/>
<path d="M217 120.4H212.8V124.6H217V120.4Z" fill="black"/>
<path d="M221.2 120.4H217V124.6H221.2V120.4Z" fill="black"/>
<path d="M225.4 120.4H221.2V124.6H225.4V120.4Z" fill="black"/>
<path d="M246.4 120.4H242.2V124.6H246.4V120.4Z" fill="black"/>
<path d="M44.8001 124.6H40.6001V128.8H44.8001V124.6Z" fill="black"/>
<path d="M49 124.6H44.8V128.8H49V124.6Z" fill="black"/>
<path d="M61.5999 124.6H57.3999V128.8H61.5999V124.6Z" fill="black"/>
<path d="M65.8001 124.6H61.6001V128.8H65.8001V124.6Z" fill="black"/>
<path d="M70 124.6H65.8V128.8H70V124.6Z" fill="black"/>
<path d="M82.5999 124.6H78.3999V128.8H82.5999V124.6Z" fill="black"/>
<path d="M86.8001 124.6H82.6001V128.8H86.8001V124.6Z" fill="black"/>
<path d="M91 124.6H86.8V128.8H91V124.6Z" fill="black"/>
<path d="M95.2 124.6H91V128.8H95.2V124.6Z" fill="black"/>
<path d="M103.6 124.6H99.3999V128.8H103.6V124.6Z" fill="black"/>
<path d="M116.2 124.6H112V128.8H116.2V124.6Z" fill="black"/>
<path d="M120.4 124.6H116.2V128.8H120.4V124.6Z" fill="black"/>
<path d="M124.6 124.6H120.4V128.8H124.6V124.6Z" fill="black"/>
<path d="M128.8 124.6H124.6V128.8H128.8V124.6Z" fill="black"/>
<path d="M154 124.6H149.8V128.8H154V124.6Z" fill="black"/>
<path d="M162.4 124.6H158.2V128.8H162.4V124.6Z" fill="black"/>
<path d="M170.8 124.6H166.6V128.8H170.8V124.6Z" fill="black"/>
<path d="M179.2 124.6H175V128.8H179.2V124.6Z" fill="black"/>
<path d="M187.6 124.6H183.4V128.8H187.6V124.6Z" fill="black"/>
<path d="M191.8 124.6H187.6V128.8H191.8V124.6Z" fill="black"/>
<path d="M208.6 124.6H204.4V128.8H208.6V124.6Z" fill="black"/>
<path d="M212.8 124.6H208.6V128.8H212.8V124.6Z" fill="black"/>
<path d="M225.4 124.6H221.2V128.8H225.4V124.6Z" fill="black"/>
<path d="M229.6 124.6H225.4V128.8H229.6V124.6Z" fill="black"/>
<path d="M32.2 128.8H28V133H32.2V128.8Z" fill="black"/>
<path d="M36.3999 128.8H32.2V133H36.3999V128.8Z" fill="black"/>
<path d="M40.5999 128.8H36.3999V133H40.5999V128.8Z" fill="black"/>
<path d="M49 128.8H44.8V133H49V128.8Z" fill="black"/>
<path d="M53.2 128.8H49V133H53.2V128.8Z" fill="black"/>
<path d="M57.3999 128.8H53.2V133H57.3999V128.8Z" fill="black"/>
<path d="M61.5999 128.8H57.3999V133H61.5999V128.8Z" fill="black"/>
<path d="M65.8001 128.8H61.6001V133H65.8001V128.8Z" fill="black"/>
<path d="M70 128.8H65.8V133H70V128.8Z" fill="black"/>
<path d="M74.2 128.8H70V133H74.2V128.8Z" fill="black"/>
<path d="M86.8001 128.8H82.6001V133H86.8001V128.8Z" fill="black"/>
<path d="M95.2 128.8H91V133H95.2V128.8Z" fill="black"/>
<path d="M103.6 128.8H99.3999V133H103.6V128.8Z" fill="black"/>
<path d="M107.8 128.8H103.6V133H107.8V128.8Z" fill="black"/>
<path d="M112 128.8H107.8V133H112V128.8Z" fill="black"/>
<path d="M116.2 128.8H112V133H116.2V128.8Z" fill="black"/>
<path d="M128.8 128.8H124.6V133H128.8V128.8Z" fill="black"/>
<path d="M133 128.8H128.8V133H133V128.8Z" fill="black"/>
<path d="M137.2 128.8H133V133H137.2V128.8Z" fill="black"/>
<path d="M141.4 128.8H137.2V133H141.4V128.8Z" fill="black"/>
<path d="M145.6 128.8H141.4V133H145.6V128.8Z" fill="black"/>
<path d="M149.8 128.8H145.6V133H149.8V128.8Z" fill="black"/>
<path d="M158.2 128.8H154V133H158.2V128.8Z" fill="black"/>
<path d="M162.4 128.8H158.2V133H162.4V128.8Z" fill="black"/>
<path d="M175 128.8H170.8V133H175V128.8Z" fill="black"/>
<path d="M179.2 128.8H175V133H179.2V128.8Z" fill="black"/>
<path d="M183.4 128.8H179.2V133H183.4V128.8Z" fill="black"/>
<path d="M187.6 128.8H183.4V133H187.6V128.8Z" fill="black"/>
<path d="M217 128.8H212.8V133H217V128.8Z" fill="black"/>
<path d="M221.2 128.8H217V133H221.2V128.8Z" fill="black"/>
<path d="M225.4 128.8H221.2V133H225.4V128.8Z" fill="black"/>
<path d="M229.6 128.8H225.4V133H229.6V128.8Z" fill="black"/>
<path d="M233.8 128.8H229.6V133H233.8V128.8Z" fill="black"/>
<path d="M238 128.8H233.8V133H238V128.8Z" fill="black"/>
<path d="M246.4 128.8H242.2V133H246.4V128.8Z" fill="black"/>
<path d="M250.6 128.8H246.4V133H250.6V128.8Z" fill="black"/>
<path d="M32.2 133H28V137.2H32.2V133Z" fill="black"/>
<path d="M40.5999 133H36.3999V137.2H40.5999V133Z" fill="black"/>
<path d="M44.8001 133H40.6001V137.2H44.8001V133Z" fill="black"/>
<path d="M49 133H44.8V137.2H49V133Z" fill="black"/>
<path d="M65.8001 133H61.6001V137.2H65.8001V133Z" fill="black"/>
<path d="M74.2 133H70V137.2H74.2V133Z" fill="black"/>
<path d="M78.4 133H74.2V137.2H78.4V133Z" fill="black"/>
<path d="M91 133H86.8V137.2H91V133Z" fill="black"/>
<path d="M95.2 133H91V137.2H95.2V133Z" fill="black"/>
<path d="M107.8 133H103.6V137.2H107.8V133Z" fill="black"/>
<path d="M116.2 133H112V137.2H116.2V133Z" fill="black"/>
<path d="M124.6 133H120.4V137.2H124.6V133Z" fill="black"/>
<path d="M128.8 133H124.6V137.2H128.8V133Z" fill="black"/>
<path d="M133 133H128.8V137.2H133V133Z" fill="black"/>
<path d="M149.8 133H145.6V137.2H149.8V133Z" fill="black"/>
<path d="M162.4 133H158.2V137.2H162.4V133Z" fill="black"/>
<path d="M166.6 133H162.4V137.2H166.6V133Z" fill="black"/>
<path d="M179.2 133H175V137.2H179.2V133Z" fill="black"/>
<path d="M183.4 133H179.2V137.2H183.4V133Z" fill="black"/>
<path d="M187.6 133H183.4V137.2H187.6V133Z" fill="black"/>
<path d="M191.8 133H187.6V137.2H191.8V133Z" fill="black"/>
<path d="M196 133H191.8V137.2H196V133Z" fill="black"/>
<path d="M212.8 133H208.6V137.2H212.8V133Z" fill="black"/>
<path d="M217 133H212.8V137.2H217V133Z" fill="black"/>
<path d="M233.8 133H229.6V137.2H233.8V133Z" fill="black"/>
<path d="M40.5999 137.2H36.3999V141.4H40.5999V137.2Z" fill="black"/>
<path d="M44.8001 137.2H40.6001V141.4H44.8001V137.2Z" fill="black"/>
<path d="M49 137.2H44.8V141.4H49V137.2Z" fill="black"/>
<path d="M57.3999 137.2H53.2V141.4H57.3999V137.2Z" fill="black"/>
<path d="M65.8001 137.2H61.6001V141.4H65.8001V137.2Z" fill="black"/>
<path d="M78.4 137.2H74.2V141.4H78.4V137.2Z" fill="black"/>
<path d="M91 137.2H86.8V141.4H91V137.2Z" fill="black"/>
<path d="M103.6 137.2H99.3999V141.4H103.6V137.2Z" fill="black"/>
<path d="M112 137.2H107.8V141.4H112V137.2Z" fill="black"/>
<path d="M124.6 137.2H120.4V141.4H124.6V137.2Z" fill="black"/>
<path d="M128.8 137.2H124.6V141.4H128.8V137.2Z" fill="black"/>
<path d="M133 137.2H128.8V141.4H133V137.2Z" fill="black"/>
<path d="M141.4 137.2H137.2V141.4H141.4V137.2Z" fill="black"/>
<path d="M149.8 137.2H145.6V141.4H149.8V137.2Z" fill="black"/>
<path d="M154 137.2H149.8V141.4H154V137.2Z" fill="black"/>
<path d="M183.4 137.2H179.2V141.4H183.4V137.2Z" fill="black"/>
<path d="M187.6 137.2H183.4V141.4H187.6V137.2Z" fill="black"/>
<path d="M191.8 137.2H187.6V141.4H191.8V137.2Z" fill="black"/>
<path d="M200.2 137.2H196V141.4H200.2V137.2Z" fill="black"/>
<path d="M212.8 137.2H208.6V141.4H212.8V137.2Z" fill="black"/>
<path d="M217 137.2H212.8V141.4H217V137.2Z" fill="black"/>
<path d="M225.4 137.2H221.2V141.4H225.4V137.2Z" fill="black"/>
<path d="M233.8 137.2H229.6V141.4H233.8V137.2Z" fill="black"/>
<path d="M238 137.2H233.8V141.4H238V137.2Z" fill="black"/>
<path d="M242.2 137.2H238V141.4H242.2V137.2Z" fill="black"/>
<path d="M246.4 137.2H242.2V141.4H246.4V137.2Z" fill="black"/>
<path d="M250.6 137.2H246.4V141.4H250.6V137.2Z" fill="black"/>
<path d="M49 141.4H44.8V145.6H49V141.4Z" fill="black"/>
<path d="M65.8001 141.4H61.6001V145.6H65.8001V141.4Z" fill="black"/>
<path d="M70 141.4H65.8V145.6H70V141.4Z" fill="black"/>
<path d="M78.4 141.4H74.2V145.6H78.4V141.4Z" fill="black"/>
<path d="M86.8001 141.4H82.6001V145.6H86.8001V141.4Z" fill="black"/>
<path d="M91 141.4H86.8V145.6H91V141.4Z" fill="black"/>
<path d="M99.3999 141.4H95.2V145.6H99.3999V141.4Z" fill="black"/>
<path d="M103.6 141.4H99.3999V145.6H103.6V141.4Z" fill="black"/>
<path d="M107.8 141.4H103.6V145.6H107.8V141.4Z" fill="black"/>
<path d="M124.6 141.4H120.4V145.6H124.6V141.4Z" fill="black"/>
<path d="M133 141.4H128.8V145.6H133V141.4Z" fill="black"/>
<path d="M149.8 141.4H145.6V145.6H149.8V141.4Z" fill="black"/>
<path d="M158.2 141.4H154V145.6H158.2V141.4Z" fill="black"/>
<path d="M166.6 141.4H162.4V145.6H166.6V141.4Z" fill="black"/>
<path d="M200.2 141.4H196V145.6H200.2V141.4Z" fill="black"/>
<path d="M217 141.4H212.8V145.6H217V141.4Z" fill="black"/>
<path d="M233.8 141.4H229.6V145.6H233.8V141.4Z" fill="black"/>
<path d="M40.5999 145.6H36.3999V149.8H40.5999V145.6Z" fill="black"/>
<path d="M49 145.6H44.8V149.8H49V145.6Z" fill="black"/>
<path d="M53.2 145.6H49V149.8H53.2V145.6Z" fill="black"/>
<path d="M57.3999 145.6H53.2V149.8H57.3999V145.6Z" fill="black"/>
<path d="M61.5999 145.6H57.3999V149.8H61.5999V145.6Z" fill="black"/>
<path d="M65.8001 145.6H61.6001V149.8H65.8001V145.6Z" fill="black"/>
<path d="M70 145.6H65.8V149.8H70V145.6Z" fill="black"/>
<path d="M78.4 145.6H74.2V149.8H78.4V145.6Z" fill="black"/>
<path d="M82.5999 145.6H78.3999V149.8H82.5999V145.6Z" fill="black"/>
<path d="M91 145.6H86.8V149.8H91V145.6Z" fill="black"/>
<path d="M99.3999 145.6H95.2V149.8H99.3999V145.6Z" fill="black"/>
<path d="M128.8 145.6H124.6V149.8H128.8V145.6Z" fill="black"/>
<path d="M133 145.6H128.8V149.8H133V145.6Z" fill="black"/>
<path d="M137.2 145.6H133V149.8H137.2V145.6Z" fill="black"/>
<path d="M141.4 145.6H137.2V149.8H141.4V145.6Z" fill="black"/>
<path d="M145.6 145.6H141.4V149.8H145.6V145.6Z" fill="black"/>
<path d="M149.8 145.6H145.6V149.8H149.8V145.6Z" fill="black"/>
<path d="M162.4 145.6H158.2V149.8H162.4V145.6Z" fill="black"/>
<path d="M166.6 145.6H162.4V149.8H166.6V145.6Z" fill="black"/>
<path d="M187.6 145.6H183.4V149.8H187.6V145.6Z" fill="black"/>
<path d="M191.8 145.6H187.6V149.8H191.8V145.6Z" fill="black"/>
<path d="M208.6 145.6H204.4V149.8H208.6V145.6Z" fill="black"/>
<path d="M212.8 145.6H208.6V149.8H212.8V145.6Z" fill="black"/>
<path d="M217 145.6H212.8V149.8H217V145.6Z" fill="black"/>
<path d="M221.2 145.6H217V149.8H221.2V145.6Z" fill="black"/>
<path d="M225.4 145.6H221.2V149.8H225.4V145.6Z" fill="black"/>
<path d="M229.6 145.6H225.4V149.8H229.6V145.6Z" fill="black"/>
<path d="M233.8 145.6H229.6V149.8H233.8V145.6Z" fill="black"/>
<path d="M246.4 145.6H242.2V149.8H246.4V145.6Z" fill="black"/>
<path d="M32.2 149.8H28V154H32.2V149.8Z" fill="black"/>
<path d="M36.3999 149.8H32.2V154H36.3999V149.8Z" fill="black"/>
<path d="M40.5999 149.8H36.3999V154H40.5999V149.8Z" fill="black"/>
<path d="M70 149.8H65.8V154H70V149.8Z" fill="black"/>
<path d="M74.2 149.8H70V154H74.2V149.8Z" fill="black"/>
<path d="M86.8001 149.8H82.6001V154H86.8001V149.8Z" fill="black"/>
<path d="M91 149.8H86.8V154H91V149.8Z" fill="black"/>
<path d="M99.3999 149.8H95.2V154H99.3999V149.8Z" fill="black"/>
<path d="M103.6 149.8H99.3999V154H103.6V149.8Z" fill="black"/>
<path d="M120.4 149.8H116.2V154H120.4V149.8Z" fill="black"/>
<path d="M128.8 149.8H124.6V154H128.8V149.8Z" fill="black"/>
<path d="M133 149.8H128.8V154H133V149.8Z" fill="black"/>
<path d="M137.2 149.8H133V154H137.2V149.8Z" fill="black"/>
<path d="M141.4 149.8H137.2V154H141.4V149.8Z" fill="black"/>
<path d="M145.6 149.8H141.4V154H145.6V149.8Z" fill="black"/>
<path d="M162.4 149.8H158.2V154H162.4V149.8Z" fill="black"/>
<path d="M170.8 149.8H166.6V154H170.8V149.8Z" fill="black"/>
<path d="M175 149.8H170.8V154H175V149.8Z" fill="black"/>
<path d="M196 149.8H191.8V154H196V149.8Z" fill="black"/>
<path d="M204.4 149.8H200.2V154H204.4V149.8Z" fill="black"/>
<path d="M221.2 149.8H217V154H221.2V149.8Z" fill="black"/>
<path d="M229.6 149.8H225.4V154H229.6V149.8Z" fill="black"/>
<path d="M250.6 149.8H246.4V154H250.6V149.8Z" fill="black"/>
<path d="M32.2 154H28V158.2H32.2V154Z" fill="black"/>
<path d="M36.3999 154H32.2V158.2H36.3999V154Z" fill="black"/>
<path d="M53.2 154H49V158.2H53.2V154Z" fill="black"/>
<path d="M57.3999 154H53.2V158.2H57.3999V154Z" fill="black"/>
<path d="M61.5999 154H57.3999V158.2H61.5999V154Z" fill="black"/>
<path d="M65.8001 154H61.6001V158.2H65.8001V154Z" fill="black"/>
<path d="M74.2 154H70V158.2H74.2V154Z" fill="black"/>
<path d="M78.4 154H74.2V158.2H78.4V154Z" fill="black"/>
<path d="M86.8001 154H82.6001V158.2H86.8001V154Z" fill="black"/>
<path d="M99.3999 154H95.2V158.2H99.3999V154Z" fill="black"/>
<path d="M107.8 154H103.6V158.2H107.8V154Z" fill="black"/>
<path d="M112 154H107.8V158.2H112V154Z" fill="black"/>
<path d="M137.2 154H133V158.2H137.2V154Z" fill="black"/>
<path d="M145.6 154H141.4V158.2H145.6V154Z" fill="black"/>
<path d="M149.8 154H145.6V158.2H149.8V154Z" fill="black"/>
<path d="M162.4 154H158.2V158.2H162.4V154Z" fill="black"/>
<path d="M183.4 154H179.2V158.2H183.4V154Z" fill="black"/>
<path d="M191.8 154H187.6V158.2H191.8V154Z" fill="black"/>
<path d="M196 154H191.8V158.2H196V154Z" fill="black"/>
<path d="M204.4 154H200.2V158.2H204.4V154Z" fill="black"/>
<path d="M208.6 154H204.4V158.2H208.6V154Z" fill="black"/>
<path d="M242.2 154H238V158.2H242.2V154Z" fill="black"/>
<path d="M246.4 154H242.2V158.2H246.4V154Z" fill="black"/>
<path d="M32.2 158.2H28V162.4H32.2V158.2Z" fill="black"/>
<path d="M36.3999 158.2H32.2V162.4H36.3999V158.2Z" fill="black"/>
<path d="M49 158.2H44.8V162.4H49V158.2Z" fill="black"/>
<path d="M53.2 158.2H49V162.4H53.2V158.2Z" fill="black"/>
<path d="M65.8001 158.2H61.6001V162.4H65.8001V158.2Z" fill="black"/>
<path d="M70 158.2H65.8V162.4H70V158.2Z" fill="black"/>
<path d="M82.5999 158.2H78.3999V162.4H82.5999V158.2Z" fill="black"/>
<path d="M91 158.2H86.8V162.4H91V158.2Z" fill="black"/>
<path d="M95.2 158.2H91V162.4H95.2V158.2Z" fill="black"/>
<path d="M107.8 158.2H103.6V162.4H107.8V158.2Z" fill="black"/>
<path d="M137.2 158.2H133V162.4H137.2V158.2Z" fill="black"/>
<path d="M141.4 158.2H137.2V162.4H141.4V158.2Z" fill="black"/>
<path d="M145.6 158.2H141.4V162.4H145.6V158.2Z" fill="black"/>
<path d="M154 158.2H149.8V162.4H154V158.2Z" fill="black"/>
<path d="M158.2 158.2H154V162.4H158.2V158.2Z" fill="black"/>
<path d="M166.6 158.2H162.4V162.4H166.6V158.2Z" fill="black"/>
<path d="M183.4 158.2H179.2V162.4H183.4V158.2Z" fill="black"/>
<path d="M191.8 158.2H187.6V162.4H191.8V158.2Z" fill="black"/>
<path d="M200.2 158.2H196V162.4H200.2V158.2Z" fill="black"/>
<path d="M208.6 158.2H204.4V162.4H208.6V158.2Z" fill="black"/>
<path d="M229.6 158.2H225.4V162.4H229.6V158.2Z" fill="black"/>
<path d="M233.8 158.2H229.6V162.4H233.8V158.2Z" fill="black"/>
<path d="M238 158.2H233.8V162.4H238V158.2Z" fill="black"/>
<path d="M242.2 158.2H238V162.4H242.2V158.2Z" fill="black"/>
<path d="M246.4 158.2H242.2V162.4H246.4V158.2Z" fill="black"/>
<path d="M53.2 162.4H49V166.6H53.2V162.4Z" fill="black"/>
<path d="M57.3999 162.4H53.2V166.6H57.3999V162.4Z" fill="black"/>
<path d="M74.2 162.4H70V166.6H74.2V162.4Z" fill="black"/>
<path d="M82.5999 162.4H78.3999V166.6H82.5999V162.4Z" fill="black"/>
<path d="M86.8001 162.4H82.6001V166.6H86.8001V162.4Z" fill="black"/>
<path d="M99.3999 162.4H95.2V166.6H99.3999V162.4Z" fill="black"/>
<path d="M103.6 162.4H99.3999V166.6H103.6V162.4Z" fill="black"/>
<path d="M116.2 162.4H112V166.6H116.2V162.4Z" fill="black"/>
<path d="M124.6 162.4H120.4V166.6H124.6V162.4Z" fill="black"/>
<path d="M133 162.4H128.8V166.6H133V162.4Z" fill="black"/>
<path d="M145.6 162.4H141.4V166.6H145.6V162.4Z" fill="black"/>
<path d="M154 162.4H149.8V166.6H154V162.4Z" fill="black"/>
<path d="M175 162.4H170.8V166.6H175V162.4Z" fill="black"/>
<path d="M196 162.4H191.8V166.6H196V162.4Z" fill="black"/>
<path d="M200.2 162.4H196V166.6H200.2V162.4Z" fill="black"/>
<path d="M204.4 162.4H200.2V166.6H204.4V162.4Z" fill="black"/>
<path d="M212.8 162.4H208.6V166.6H212.8V162.4Z" fill="black"/>
<path d="M225.4 162.4H221.2V166.6H225.4V162.4Z" fill="black"/>
<path d="M229.6 162.4H225.4V166.6H229.6V162.4Z" fill="black"/>
<path d="M233.8 162.4H229.6V166.6H233.8V162.4Z" fill="black"/>
<path d="M238 162.4H233.8V166.6H238V162.4Z" fill="black"/>
<path d="M246.4 162.4H242.2V166.6H246.4V162.4Z" fill="black"/>
<path d="M40.5999 166.6H36.3999V170.8H40.5999V166.6Z" fill="black"/>
<path d="M44.8001 166.6H40.6001V170.8H44.8001V166.6Z" fill="black"/>
<path d="M49 166.6H44.8V170.8H49V166.6Z" fill="black"/>
<path d="M53.2 166.6H49V170.8H53.2V166.6Z" fill="black"/>
<path d="M61.5999 166.6H57.3999V170.8H61.5999V166.6Z" fill="black"/>
<path d="M65.8001 166.6H61.6001V170.8H65.8001V166.6Z" fill="black"/>
<path d="M74.2 166.6H70V170.8H74.2V166.6Z" fill="black"/>
<path d="M78.4 166.6H74.2V170.8H78.4V166.6Z" fill="black"/>
<path d="M82.5999 166.6H78.3999V170.8H82.5999V166.6Z" fill="black"/>
<path d="M103.6 166.6H99.3999V170.8H103.6V166.6Z" fill="black"/>
<path d="M124.6 166.6H120.4V170.8H124.6V166.6Z" fill="black"/>
<path d="M128.8 166.6H124.6V170.8H128.8V166.6Z" fill="black"/>
<path d="M137.2 166.6H133V170.8H137.2V166.6Z" fill="black"/>
<path d="M145.6 166.6H141.4V170.8H145.6V166.6Z" fill="black"/>
<path d="M154 166.6H149.8V170.8H154V166.6Z" fill="black"/>
<path d="M158.2 166.6H154V170.8H158.2V166.6Z" fill="black"/>
<path d="M166.6 166.6H162.4V170.8H166.6V166.6Z" fill="black"/>
<path d="M179.2 166.6H175V170.8H179.2V166.6Z" fill="black"/>
<path d="M187.6 166.6H183.4V170.8H187.6V166.6Z" fill="black"/>
<path d="M204.4 166.6H200.2V170.8H204.4V166.6Z" fill="black"/>
<path d="M208.6 166.6H204.4V170.8H208.6V166.6Z" fill="black"/>
<path d="M212.8 166.6H208.6V170.8H212.8V166.6Z" fill="black"/>
<path d="M221.2 166.6H217V170.8H221.2V166.6Z" fill="black"/>
<path d="M233.8 166.6H229.6V170.8H233.8V166.6Z" fill="black"/>
<path d="M242.2 166.6H238V170.8H242.2V166.6Z" fill="black"/>
<path d="M246.4 166.6H242.2V170.8H246.4V166.6Z" fill="black"/>
<path d="M40.5999 170.8H36.3999V175H40.5999V170.8Z" fill="black"/>
<path d="M57.3999 170.8H53.2V175H57.3999V170.8Z" fill="black"/>
<path d="M61.5999 170.8H57.3999V175H61.5999V170.8Z" fill="black"/>
<path d="M65.8001 170.8H61.6001V175H65.8001V170.8Z" fill="black"/>
<path d="M74.2 170.8H70V175H74.2V170.8Z" fill="black"/>
<path d="M82.5999 170.8H78.3999V175H82.5999V170.8Z" fill="black"/>
<path d="M86.8001 170.8H82.6001V175H86.8001V170.8Z" fill="black"/>
<path d="M95.2 170.8H91V175H95.2V170.8Z" fill="black"/>
<path d="M103.6 170.8H99.3999V175H103.6V170.8Z" fill="black"/>
<path d="M116.2 170.8H112V175H116.2V170.8Z" fill="black"/>
<path d="M128.8 170.8H124.6V175H128.8V170.8Z" fill="black"/>
<path d="M133 170.8H128.8V175H133V170.8Z" fill="black"/>
<path d="M141.4 170.8H137.2V175H141.4V170.8Z" fill="black"/>
<path d="M196 170.8H191.8V175H196V170.8Z" fill="black"/>
<path d="M200.2 170.8H196V175H200.2V170.8Z" fill="black"/>
<path d="M208.6 170.8H204.4V175H208.6V170.8Z" fill="black"/>
<path d="M212.8 170.8H208.6V175H212.8V170.8Z" fill="black"/>
<path d="M238 170.8H233.8V175H238V170.8Z" fill="black"/>
<path d="M246.4 170.8H242.2V175H246.4V170.8Z" fill="black"/>
<path d="M32.2 175H28V179.2H32.2V175Z" fill="black"/>
<path d="M36.3999 175H32.2V179.2H36.3999V175Z" fill="black"/>
<path d="M40.5999 175H36.3999V179.2H40.5999V175Z" fill="black"/>
<path d="M44.8001 175H40.6001V179.2H44.8001V175Z" fill="black"/>
<path d="M49 175H44.8V179.2H49V175Z" fill="black"/>
<path d="M53.2 175H49V179.2H53.2V175Z" fill="black"/>
<path d="M65.8001 175H61.6001V179.2H65.8001V175Z" fill="black"/>
<path d="M70 175H65.8V179.2H70V175Z" fill="black"/>
<path d="M78.4 175H74.2V179.2H78.4V175Z" fill="black"/>
<path d="M82.5999 175H78.3999V179.2H82.5999V175Z" fill="black"/>
<path d="M86.8001 175H82.6001V179.2H86.8001V175Z" fill="black"/>
<path d="M91 175H86.8V179.2H91V175Z" fill="black"/>
<path d="M95.2 175H91V179.2H95.2V175Z" fill="black"/>
<path d="M99.3999 175H95.2V179.2H99.3999V175Z" fill="black"/>
<path d="M107.8 175H103.6V179.2H107.8V175Z" fill="black"/>
<path d="M112 175H107.8V179.2H112V175Z" fill="black"/>
<path d="M120.4 175H116.2V179.2H120.4V175Z" fill="black"/>
<path d="M128.8 175H124.6V179.2H128.8V175Z" fill="black"/>
<path d="M145.6 175H141.4V179.2H145.6V175Z" fill="black"/>
<path d="M149.8 175H145.6V179.2H149.8V175Z" fill="black"/>
<path d="M154 175H149.8V179.2H154V175Z" fill="black"/>
<path d="M158.2 175H154V179.2H158.2V175Z" fill="black"/>
<path d="M166.6 175H162.4V179.2H166.6V175Z" fill="black"/>
<path d="M170.8 175H166.6V179.2H170.8V175Z" fill="black"/>
<path d="M179.2 175H175V179.2H179.2V175Z" fill="black"/>
<path d="M183.4 175H179.2V179.2H183.4V175Z" fill="black"/>
<path d="M187.6 175H183.4V179.2H187.6V175Z" fill="black"/>
<path d="M191.8 175H187.6V179.2H191.8V175Z" fill="black"/>
<path d="M196 175H191.8V179.2H196V175Z" fill="black"/>
<path d="M221.2 175H217V179.2H221.2V175Z" fill="black"/>
<path d="M238 175H233.8V179.2H238V175Z" fill="black"/>
<path d="M32.2 179.2H28V183.4H32.2V179.2Z" fill="black"/>
<path d="M36.3999 179.2H32.2V183.4H36.3999V179.2Z" fill="black"/>
<path d="M40.5999 179.2H36.3999V183.4H40.5999V179.2Z" fill="black"/>
<path d="M44.8001 179.2H40.6001V183.4H44.8001V179.2Z" fill="black"/>
<path d="M49 179.2H44.8V183.4H49V179.2Z" fill="black"/>
<path d="M53.2 179.2H49V183.4H53.2V179.2Z" fill="black"/>
<path d="M57.3999 179.2H53.2V183.4H57.3999V179.2Z" fill="black"/>
<path d="M74.2 179.2H70V183.4H74.2V179.2Z" fill="black"/>
<path d="M86.8001 179.2H82.6001V183.4H86.8001V179.2Z" fill="black"/>
<path d="M99.3999 179.2H95.2V183.4H99.3999V179.2Z" fill="black"/>
<path d="M103.6 179.2H99.3999V183.4H103.6V179.2Z" fill="black"/>
<path d="M107.8 179.2H103.6V183.4H107.8V179.2Z" fill="black"/>
<path d="M116.2 179.2H112V183.4H116.2V179.2Z" fill="black"/>
<path d="M137.2 179.2H133V183.4H137.2V179.2Z" fill="black"/>
<path d="M154 179.2H149.8V183.4H154V179.2Z" fill="black"/>
<path d="M162.4 179.2H158.2V183.4H162.4V179.2Z" fill="black"/>
<path d="M170.8 179.2H166.6V183.4H170.8V179.2Z" fill="black"/>
<path d="M179.2 179.2H175V183.4H179.2V179.2Z" fill="black"/>
<path d="M183.4 179.2H179.2V183.4H183.4V179.2Z" fill="black"/>
<path d="M187.6 179.2H183.4V183.4H187.6V179.2Z" fill="black"/>
<path d="M196 179.2H191.8V183.4H196V179.2Z" fill="black"/>
<path d="M208.6 179.2H204.4V183.4H208.6V179.2Z" fill="black"/>
<path d="M221.2 179.2H217V183.4H221.2V179.2Z" fill="black"/>
<path d="M225.4 179.2H221.2V183.4H225.4V179.2Z" fill="black"/>
<path d="M233.8 179.2H229.6V183.4H233.8V179.2Z" fill="black"/>
<path d="M238 179.2H233.8V183.4H238V179.2Z" fill="black"/>
<path d="M242.2 179.2H238V183.4H242.2V179.2Z" fill="black"/>
<path d="M246.4 179.2H242.2V183.4H246.4V179.2Z" fill="black"/>
<path d="M32.2 183.4H28V187.6H32.2V183.4Z" fill="black"/>
<path d="M40.5999 183.4H36.3999V187.6H40.5999V183.4Z" fill="black"/>
<path d="M49 183.4H44.8V187.6H49V183.4Z" fill="black"/>
<path d="M61.5999 183.4H57.3999V187.6H61.5999V183.4Z" fill="black"/>
<path d="M65.8001 183.4H61.6001V187.6H65.8001V183.4Z" fill="black"/>
<path d="M70 183.4H65.8V187.6H70V183.4Z" fill="black"/>
<path d="M74.2 183.4H70V187.6H74.2V183.4Z" fill="black"/>
<path d="M82.5999 183.4H78.3999V187.6H82.5999V183.4Z" fill="black"/>
<path d="M95.2 183.4H91V187.6H95.2V183.4Z" fill="black"/>
<path d="M103.6 183.4H99.3999V187.6H103.6V183.4Z" fill="black"/>
<path d="M112 183.4H107.8V187.6H112V183.4Z" fill="black"/>
<path d="M116.2 183.4H112V187.6H116.2V183.4Z" fill="black"/>
<path d="M133 183.4H128.8V187.6H133V183.4Z" fill="black"/>
<path d="M149.8 183.4H145.6V187.6H149.8V183.4Z" fill="black"/>
<path d="M154 183.4H149.8V187.6H154V183.4Z" fill="black"/>
<path d="M162.4 183.4H158.2V187.6H162.4V183.4Z" fill="black"/>
<path d="M187.6 183.4H183.4V187.6H187.6V183.4Z" fill="black"/>
<path d="M191.8 183.4H187.6V187.6H191.8V183.4Z" fill="black"/>
<path d="M212.8 183.4H208.6V187.6H212.8V183.4Z" fill="black"/>
<path d="M217 183.4H212.8V187.6H217V183.4Z" fill="black"/>
<path d="M221.2 183.4H217V187.6H221.2V183.4Z" fill="black"/>
<path d="M229.6 183.4H225.4V187.6H229.6V183.4Z" fill="black"/>
<path d="M242.2 183.4H238V187.6H242.2V183.4Z" fill="black"/>
<path d="M250.6 183.4H246.4V187.6H250.6V183.4Z" fill="black"/>
<path d="M32.2 187.6H28V191.8H32.2V187.6Z" fill="black"/>
<path d="M36.3999 187.6H32.2V191.8H36.3999V187.6Z" fill="black"/>
<path d="M40.5999 187.6H36.3999V191.8H40.5999V187.6Z" fill="black"/>
<path d="M44.8001 187.6H40.6001V191.8H44.8001V187.6Z" fill="black"/>
<path d="M53.2 187.6H49V191.8H53.2V187.6Z" fill="black"/>
<path d="M57.3999 187.6H53.2V191.8H57.3999V187.6Z" fill="black"/>
<path d="M61.5999 187.6H57.3999V191.8H61.5999V187.6Z" fill="black"/>
<path d="M78.4 187.6H74.2V191.8H78.4V187.6Z" fill="black"/>
<path d="M82.5999 187.6H78.3999V191.8H82.5999V187.6Z" fill="black"/>
<path d="M91 187.6H86.8V191.8H91V187.6Z" fill="black"/>
<path d="M95.2 187.6H91V191.8H95.2V187.6Z" fill="black"/>
<path d="M103.6 187.6H99.3999V191.8H103.6V187.6Z" fill="black"/>
<path d="M133 187.6H128.8V191.8H133V187.6Z" fill="black"/>
<path d="M145.6 187.6H141.4V191.8H145.6V187.6Z" fill="black"/>
<path d="M154 187.6H149.8V191.8H154V187.6Z" fill="black"/>
<path d="M158.2 187.6H154V191.8H158.2V187.6Z" fill="black"/>
<path d="M162.4 187.6H158.2V191.8H162.4V187.6Z" fill="black"/>
<path d="M183.4 187.6H179.2V191.8H183.4V187.6Z" fill="black"/>
<path d="M191.8 187.6H187.6V191.8H191.8V187.6Z" fill="black"/>
<path d="M200.2 187.6H196V191.8H200.2V187.6Z" fill="black"/>
<path d="M208.6 187.6H204.4V191.8H208.6V187.6Z" fill="black"/>
<path d="M221.2 187.6H217V191.8H221.2V187.6Z" fill="black"/>
<path d="M225.4 187.6H221.2V191.8H225.4V187.6Z" fill="black"/>
<path d="M242.2 187.6H238V191.8H242.2V187.6Z" fill="black"/>
<path d="M246.4 187.6H242.2V191.8H246.4V187.6Z" fill="black"/>
<path d="M250.6 187.6H246.4V191.8H250.6V187.6Z" fill="black"/>
<path d="M32.2 191.8H28V196H32.2V191.8Z" fill="black"/>
<path d="M36.3999 191.8H32.2V196H36.3999V191.8Z" fill="black"/>
<path d="M44.8001 191.8H40.6001V196H44.8001V191.8Z" fill="black"/>
<path d="M49 191.8H44.8V196H49V191.8Z" fill="black"/>
<path d="M53.2 191.8H49V196H53.2V191.8Z" fill="black"/>
<path d="M61.5999 191.8H57.3999V196H61.5999V191.8Z" fill="black"/>
<path d="M91 191.8H86.8V196H91V191.8Z" fill="black"/>
<path d="M107.8 191.8H103.6V196H107.8V191.8Z" fill="black"/>
<path d="M124.6 191.8H120.4V196H124.6V191.8Z" fill="black"/>
<path d="M133 191.8H128.8V196H133V191.8Z" fill="black"/>
<path d="M158.2 191.8H154V196H158.2V191.8Z" fill="black"/>
<path d="M170.8 191.8H166.6V196H170.8V191.8Z" fill="black"/>
<path d="M175 191.8H170.8V196H175V191.8Z" fill="black"/>
<path d="M183.4 191.8H179.2V196H183.4V191.8Z" fill="black"/>
<path d="M187.6 191.8H183.4V196H187.6V191.8Z" fill="black"/>
<path d="M191.8 191.8H187.6V196H191.8V191.8Z" fill="black"/>
<path d="M196 191.8H191.8V196H196V191.8Z" fill="black"/>
<path d="M200.2 191.8H196V196H200.2V191.8Z" fill="black"/>
<path d="M204.4 191.8H200.2V196H204.4V191.8Z" fill="black"/>
<path d="M208.6 191.8H204.4V196H208.6V191.8Z" fill="black"/>
<path d="M221.2 191.8H217V196H221.2V191.8Z" fill="black"/>
<path d="M229.6 191.8H225.4V196H229.6V191.8Z" fill="black"/>
<path d="M233.8 191.8H229.6V196H233.8V191.8Z" fill="black"/>
<path d="M238 191.8H233.8V196H238V191.8Z" fill="black"/>
<path d="M250.6 191.8H246.4V196H250.6V191.8Z" fill="black"/>
<path d="M32.2 196H28V200.2H32.2V196Z" fill="black"/>
<path d="M40.5999 196H36.3999V200.2H40.5999V196Z" fill="black"/>
<path d="M44.8001 196H40.6001V200.2H44.8001V196Z" fill="black"/>
<path d="M57.3999 196H53.2V200.2H57.3999V196Z" fill="black"/>
<path d="M70 196H65.8V200.2H70V196Z" fill="black"/>
<path d="M74.2 196H70V200.2H74.2V196Z" fill="black"/>
<path d="M82.5999 196H78.3999V200.2H82.5999V196Z" fill="black"/>
<path d="M86.8001 196H82.6001V200.2H86.8001V196Z" fill="black"/>
<path d="M112 196H107.8V200.2H112V196Z" fill="black"/>
<path d="M133 196H128.8V200.2H133V196Z" fill="black"/>
<path d="M141.4 196H137.2V200.2H141.4V196Z" fill="black"/>
<path d="M145.6 196H141.4V200.2H145.6V196Z" fill="black"/>
<path d="M154 196H149.8V200.2H154V196Z" fill="black"/>
<path d="M166.6 196H162.4V200.2H166.6V196Z" fill="black"/>
<path d="M170.8 196H166.6V200.2H170.8V196Z" fill="black"/>
<path d="M196 196H191.8V200.2H196V196Z" fill="black"/>
<path d="M217 196H212.8V200.2H217V196Z" fill="black"/>
<path d="M221.2 196H217V200.2H221.2V196Z" fill="black"/>
<path d="M233.8 196H229.6V200.2H233.8V196Z" fill="black"/>
<path d="M242.2 196H238V200.2H242.2V196Z" fill="black"/>
<path d="M246.4 196H242.2V200.2H246.4V196Z" fill="black"/>
<path d="M250.6 196H246.4V200.2H250.6V196Z" fill="black"/>
<path d="M32.2 200.2H28V204.4H32.2V200.2Z" fill="black"/>
<path d="M36.3999 200.2H32.2V204.4H36.3999V200.2Z" fill="black"/>
<path d="M44.8001 200.2H40.6001V204.4H44.8001V200.2Z" fill="black"/>
<path d="M53.2 200.2H49V204.4H53.2V200.2Z" fill="black"/>
<path d="M65.8001 200.2H61.6001V204.4H65.8001V200.2Z" fill="black"/>
<path d="M74.2 200.2H70V204.4H74.2V200.2Z" fill="black"/>
<path d="M86.8001 200.2H82.6001V204.4H86.8001V200.2Z" fill="black"/>
<path d="M95.2 200.2H91V204.4H95.2V200.2Z" fill="black"/>
<path d="M99.3999 200.2H95.2V204.4H99.3999V200.2Z" fill="black"/>
<path d="M107.8 200.2H103.6V204.4H107.8V200.2Z" fill="black"/>
<path d="M112 200.2H107.8V204.4H112V200.2Z" fill="black"/>
<path d="M120.4 200.2H116.2V204.4H120.4V200.2Z" fill="black"/>
<path d="M128.8 200.2H124.6V204.4H128.8V200.2Z" fill="black"/>
<path d="M133 200.2H128.8V204.4H133V200.2Z" fill="black"/>
<path d="M141.4 200.2H137.2V204.4H141.4V200.2Z" fill="black"/>
<path d="M154 200.2H149.8V204.4H154V200.2Z" fill="black"/>
<path d="M162.4 200.2H158.2V204.4H162.4V200.2Z" fill="black"/>
<path d="M166.6 200.2H162.4V204.4H166.6V200.2Z" fill="black"/>
<path d="M170.8 200.2H166.6V204.4H170.8V200.2Z" fill="black"/>
<path d="M175 200.2H170.8V204.4H175V200.2Z" fill="black"/>
<path d="M183.4 200.2H179.2V204.4H183.4V200.2Z" fill="black"/>
<path d="M187.6 200.2H183.4V204.4H187.6V200.2Z" fill="black"/>
<path d="M196 200.2H191.8V204.4H196V200.2Z" fill="black"/>
<path d="M200.2 200.2H196V204.4H200.2V200.2Z" fill="black"/>
<path d="M204.4 200.2H200.2V204.4H204.4V200.2Z" fill="black"/>
<path d="M212.8 200.2H208.6V204.4H212.8V200.2Z" fill="black"/>
<path d="M217 200.2H212.8V204.4H217V200.2Z" fill="black"/>
<path d="M238 200.2H233.8V204.4H238V200.2Z" fill="black"/>
<path d="M242.2 200.2H238V204.4H242.2V200.2Z" fill="black"/>
<path d="M250.6 200.2H246.4V204.4H250.6V200.2Z" fill="black"/>
<path d="M32.2 204.4H28V208.6H32.2V204.4Z" fill="black"/>
<path d="M36.3999 204.4H32.2V208.6H36.3999V204.4Z" fill="black"/>
<path d="M44.8001 204.4H40.6001V208.6H44.8001V204.4Z" fill="black"/>
<path d="M49 204.4H44.8V208.6H49V204.4Z" fill="black"/>
<path d="M53.2 204.4H49V208.6H53.2V204.4Z" fill="black"/>
<path d="M57.3999 204.4H53.2V208.6H57.3999V204.4Z" fill="black"/>
<path d="M61.5999 204.4H57.3999V208.6H61.5999V204.4Z" fill="black"/>
<path d="M65.8001 204.4H61.6001V208.6H65.8001V204.4Z" fill="black"/>
<path d="M74.2 204.4H70V208.6H74.2V204.4Z" fill="black"/>
<path d="M78.4 204.4H74.2V208.6H78.4V204.4Z" fill="black"/>
<path d="M82.5999 204.4H78.3999V208.6H82.5999V204.4Z" fill="black"/>
<path d="M86.8001 204.4H82.6001V208.6H86.8001V204.4Z" fill="black"/>
<path d="M95.2 204.4H91V208.6H95.2V204.4Z" fill="black"/>
<path d="M99.3999 204.4H95.2V208.6H99.3999V204.4Z" fill="black"/>
<path d="M103.6 204.4H99.3999V208.6H103.6V204.4Z" fill="black"/>
<path d="M120.4 204.4H116.2V208.6H120.4V204.4Z" fill="black"/>
<path d="M137.2 204.4H133V208.6H137.2V204.4Z" fill="black"/>
<path d="M145.6 204.4H141.4V208.6H145.6V204.4Z" fill="black"/>
<path d="M158.2 204.4H154V208.6H158.2V204.4Z" fill="black"/>
<path d="M162.4 204.4H158.2V208.6H162.4V204.4Z" fill="black"/>
<path d="M166.6 204.4H162.4V208.6H166.6V204.4Z" fill="black"/>
<path d="M170.8 204.4H166.6V208.6H170.8V204.4Z" fill="black"/>
<path d="M175 204.4H170.8V208.6H175V204.4Z" fill="black"/>
<path d="M183.4 204.4H179.2V208.6H183.4V204.4Z" fill="black"/>
<path d="M200.2 204.4H196V208.6H200.2V204.4Z" fill="black"/>
<path d="M217 204.4H212.8V208.6H217V204.4Z" fill="black"/>
<path d="M221.2 204.4H217V208.6H221.2V204.4Z" fill="black"/>
<path d="M229.6 204.4H225.4V208.6H229.6V204.4Z" fill="black"/>
<path d="M238 204.4H233.8V208.6H238V204.4Z" fill="black"/>
<path d="M36.3999 208.6H32.2V212.8H36.3999V208.6Z" fill="black"/>
<path d="M40.5999 208.6H36.3999V212.8H40.5999V208.6Z" fill="black"/>
<path d="M74.2 208.6H70V212.8H74.2V208.6Z" fill="black"/>
<path d="M78.4 208.6H74.2V212.8H78.4V208.6Z" fill="black"/>
<path d="M91 208.6H86.8V212.8H91V208.6Z" fill="black"/>
<path d="M99.3999 208.6H95.2V212.8H99.3999V208.6Z" fill="black"/>
<path d="M103.6 208.6H99.3999V212.8H103.6V208.6Z" fill="black"/>
<path d="M112 208.6H107.8V212.8H112V208.6Z" fill="black"/>
<path d="M116.2 208.6H112V212.8H116.2V208.6Z" fill="black"/>
<path d="M128.8 208.6H124.6V212.8H128.8V208.6Z" fill="black"/>
<path d="M133 208.6H128.8V212.8H133V208.6Z" fill="black"/>
<path d="M141.4 208.6H137.2V212.8H141.4V208.6Z" fill="black"/>
<path d="M145.6 208.6H141.4V212.8H145.6V208.6Z" fill="black"/>
<path d="M154 208.6H149.8V212.8H154V208.6Z" fill="black"/>
<path d="M170.8 208.6H166.6V212.8H170.8V208.6Z" fill="black"/>
<path d="M175 208.6H170.8V212.8H175V208.6Z" fill="black"/>
<path d="M179.2 208.6H175V212.8H179.2V208.6Z" fill="black"/>
<path d="M183.4 208.6H179.2V212.8H183.4V208.6Z" fill="black"/>
<path d="M191.8 208.6H187.6V212.8H191.8V208.6Z" fill="black"/>
<path d="M200.2 208.6H196V212.8H200.2V208.6Z" fill="black"/>
<path d="M208.6 208.6H204.4V212.8H208.6V208.6Z" fill="black"/>
<path d="M212.8 208.6H208.6V212.8H212.8V208.6Z" fill="black"/>
<path d="M217 208.6H212.8V212.8H217V208.6Z" fill="black"/>
<path d="M221.2 208.6H217V212.8H221.2V208.6Z" fill="black"/>
<path d="M225.4 208.6H221.2V212.8H225.4V208.6Z" fill="black"/>
<path d="M229.6 208.6H225.4V212.8H229.6V208.6Z" fill="black"/>
<path d="M242.2 208.6H238V212.8H242.2V208.6Z" fill="black"/>
<path d="M246.4 208.6H242.2V212.8H246.4V208.6Z" fill="black"/>
<path d="M44.8001 212.8H40.6001V217H44.8001V212.8Z" fill="black"/>
<path d="M57.3999 212.8H53.2V217H57.3999V212.8Z" fill="black"/>
<path d="M65.8001 212.8H61.6001V217H65.8001V212.8Z" fill="black"/>
<path d="M82.5999 212.8H78.3999V217H82.5999V212.8Z" fill="black"/>
<path d="M91 212.8H86.8V217H91V212.8Z" fill="black"/>
<path d="M95.2 212.8H91V217H95.2V212.8Z" fill="black"/>
<path d="M112 212.8H107.8V217H112V212.8Z" fill="black"/>
<path d="M116.2 212.8H112V217H116.2V212.8Z" fill="black"/>
<path d="M120.4 212.8H116.2V217H120.4V212.8Z" fill="black"/>
<path d="M124.6 212.8H120.4V217H124.6V212.8Z" fill="black"/>
<path d="M128.8 212.8H124.6V217H128.8V212.8Z" fill="black"/>
<path d="M133 212.8H128.8V217H133V212.8Z" fill="black"/>
<path d="M137.2 212.8H133V217H137.2V212.8Z" fill="black"/>
<path d="M141.4 212.8H137.2V217H141.4V212.8Z" fill="black"/>
<path d="M145.6 212.8H141.4V217H145.6V212.8Z" fill="black"/>
<path d="M149.8 212.8H145.6V217H149.8V212.8Z" fill="black"/>
<path d="M154 212.8H149.8V217H154V212.8Z" fill="black"/>
<path d="M158.2 212.8H154V217H158.2V212.8Z" fill="black"/>
<path d="M175 212.8H170.8V217H175V212.8Z" fill="black"/>
<path d="M179.2 212.8H175V217H179.2V212.8Z" fill="black"/>
<path d="M187.6 212.8H183.4V217H187.6V212.8Z" fill="black"/>
<path d="M191.8 212.8H187.6V217H191.8V212.8Z" fill="black"/>
<path d="M200.2 212.8H196V217H200.2V212.8Z" fill="black"/>
<path d="M212.8 212.8H208.6V217H212.8V212.8Z" fill="black"/>
<path d="M217 212.8H212.8V217H217V212.8Z" fill="black"/>
<path d="M221.2 212.8H217V217H221.2V212.8Z" fill="black"/>
<path d="M225.4 212.8H221.2V217H225.4V212.8Z" fill="black"/>
<path d="M229.6 212.8H225.4V217H229.6V212.8Z" fill="black"/>
<path d="M233.8 212.8H229.6V217H233.8V212.8Z" fill="black"/>
<path d="M242.2 212.8H238V217H242.2V212.8Z" fill="black"/>
<path d="M246.4 212.8H242.2V217H246.4V212.8Z" fill="black"/>
<path d="M250.6 212.8H246.4V217H250.6V212.8Z" fill="black"/>
<path d="M65.8001 217H61.6001V221.2H65.8001V217Z" fill="black"/>
<path d="M78.4 217H74.2V221.2H78.4V217Z" fill="black"/>
<path d="M82.5999 217H78.3999V221.2H82.5999V217Z" fill="black"/>
<path d="M103.6 217H99.3999V221.2H103.6V217Z" fill="black"/>
<path d="M112 217H107.8V221.2H112V217Z" fill="black"/>
<path d="M120.4 217H116.2V221.2H120.4V217Z" fill="black"/>
<path d="M124.6 217H120.4V221.2H124.6V217Z" fill="black"/>
<path d="M133 217H128.8V221.2H133V217Z" fill="black"/>
<path d="M149.8 217H145.6V221.2H149.8V217Z" fill="black"/>
<path d="M158.2 217H154V221.2H158.2V217Z" fill="black"/>
<path d="M162.4 217H158.2V221.2H162.4V217Z" fill="black"/>
<path d="M179.2 217H175V221.2H179.2V217Z" fill="black"/>
<path d="M183.4 217H179.2V221.2H183.4V217Z" fill="black"/>
<path d="M196 217H191.8V221.2H196V217Z" fill="black"/>
<path d="M204.4 217H200.2V221.2H204.4V217Z" fill="black"/>
<path d="M208.6 217H204.4V221.2H208.6V217Z" fill="black"/>
<path d="M217 217H212.8V221.2H217V217Z" fill="black"/>
<path d="M233.8 217H229.6V221.2H233.8V217Z" fill="black"/>
<path d="M246.4 217H242.2V221.2H246.4V217Z" fill="black"/>
<path d="M250.6 217H246.4V221.2H250.6V217Z" fill="black"/>
<path d="M32.2 221.2H28V225.4H32.2V221.2Z" fill="black"/>
<path d="M36.3999 221.2H32.2V225.4H36.3999V221.2Z" fill="black"/>
<path d="M40.5999 221.2H36.3999V225.4H40.5999V221.2Z" fill="black"/>
<path d="M44.8001 221.2H40.6001V225.4H44.8001V221.2Z" fill="black"/>
<path d="M49 221.2H44.8V225.4H49V221.2Z" fill="black"/>
<path d="M53.2 221.2H49V225.4H53.2V221.2Z" fill="black"/>
<path d="M57.3999 221.2H53.2V225.4H57.3999V221.2Z" fill="black"/>
<path d="M70 221.2H65.8V225.4H70V221.2Z" fill="black"/>
<path d="M82.5999 221.2H78.3999V225.4H82.5999V221.2Z" fill="black"/>
<path d="M95.2 221.2H91V225.4H95.2V221.2Z" fill="black"/>
<path d="M99.3999 221.2H95.2V225.4H99.3999V221.2Z" fill="black"/>
<path d="M103.6 221.2H99.3999V225.4H103.6V221.2Z" fill="black"/>
<path d="M112 221.2H107.8V225.4H112V221.2Z" fill="black"/>
<path d="M116.2 221.2H112V225.4H116.2V221.2Z" fill="black"/>
<path d="M124.6 221.2H120.4V225.4H124.6V221.2Z" fill="black"/>
<path d="M128.8 221.2H124.6V225.4H128.8V221.2Z" fill="black"/>
<path d="M133 221.2H128.8V225.4H133V221.2Z" fill="black"/>
<path d="M141.4 221.2H137.2V225.4H141.4V221.2Z" fill="black"/>
<path d="M149.8 221.2H145.6V225.4H149.8V221.2Z" fill="black"/>
<path d="M154 221.2H149.8V225.4H154V221.2Z" fill="black"/>
<path d="M158.2 221.2H154V225.4H158.2V221.2Z" fill="black"/>
<path d="M162.4 221.2H158.2V225.4H162.4V221.2Z" fill="black"/>
<path d="M166.6 221.2H162.4V225.4H166.6V221.2Z" fill="black"/>
<path d="M170.8 221.2H166.6V225.4H170.8V221.2Z" fill="black"/>
<path d="M179.2 221.2H175V225.4H179.2V221.2Z" fill="black"/>
<path d="M196 221.2H191.8V225.4H196V221.2Z" fill="black"/>
<path d="M204.4 221.2H200.2V225.4H204.4V221.2Z" fill="black"/>
<path d="M208.6 221.2H204.4V225.4H208.6V221.2Z" fill="black"/>
<path d="M212.8 221.2H208.6V225.4H212.8V221.2Z" fill="black"/>
<path d="M217 221.2H212.8V225.4H217V221.2Z" fill="black"/>
<path d="M225.4 221.2H221.2V225.4H225.4V221.2Z" fill="black"/>
<path d="M233.8 221.2H229.6V225.4H233.8V221.2Z" fill="black"/>
<path d="M238 221.2H233.8V225.4H238V221.2Z" fill="black"/>
<path d="M242.2 221.2H238V225.4H242.2V221.2Z" fill="black"/>
<path d="M246.4 221.2H242.2V225.4H246.4V221.2Z" fill="black"/>
<path d="M32.2 225.4H28V229.6H32.2V225.4Z" fill="black"/>
<path d="M57.3999 225.4H53.2V229.6H57.3999V225.4Z" fill="black"/>
<path d="M70 225.4H65.8V229.6H70V225.4Z" fill="black"/>
<path d="M86.8001 225.4H82.6001V229.6H86.8001V225.4Z" fill="black"/>
<path d="M95.2 225.4H91V229.6H95.2V225.4Z" fill="black"/>
<path d="M99.3999 225.4H95.2V229.6H99.3999V225.4Z" fill="black"/>
<path d="M103.6 225.4H99.3999V229.6H103.6V225.4Z" fill="black"/>
<path d="M116.2 225.4H112V229.6H116.2V225.4Z" fill="black"/>
<path d="M120.4 225.4H116.2V229.6H120.4V225.4Z" fill="black"/>
<path d="M128.8 225.4H124.6V229.6H128.8V225.4Z" fill="black"/>
<path d="M133 225.4H128.8V229.6H133V225.4Z" fill="black"/>
<path d="M149.8 225.4H145.6V229.6H149.8V225.4Z" fill="black"/>
<path d="M154 225.4H149.8V229.6H154V225.4Z" fill="black"/>
<path d="M162.4 225.4H158.2V229.6H162.4V225.4Z" fill="black"/>
<path d="M166.6 225.4H162.4V229.6H166.6V225.4Z" fill="black"/>
<path d="M170.8 225.4H166.6V229.6H170.8V225.4Z" fill="black"/>
<path d="M179.2 225.4H175V229.6H179.2V225.4Z" fill="black"/>
<path d="M187.6 225.4H183.4V229.6H187.6V225.4Z" fill="black"/>
<path d="M191.8 225.4H187.6V229.6H191.8V225.4Z" fill="black"/>
<path d="M208.6 225.4H204.4V229.6H208.6V225.4Z" fill="black"/>
<path d="M217 225.4H212.8V229.6H217V225.4Z" fill="black"/>
<path d="M233.8 225.4H229.6V229.6H233.8V225.4Z" fill="black"/>
<path d="M246.4 225.4H242.2V229.6H246.4V225.4Z" fill="black"/>
<path d="M32.2 229.6H28V233.8H32.2V229.6Z" fill="black"/>
<path d="M40.5999 229.6H36.3999V233.8H40.5999V229.6Z" fill="black"/>
<path d="M44.8001 229.6H40.6001V233.8H44.8001V229.6Z" fill="black"/>
<path d="M49 229.6H44.8V233.8H49V229.6Z" fill="black"/>
<path d="M57.3999 229.6H53.2V233.8H57.3999V229.6Z" fill="black"/>
<path d="M78.4 229.6H74.2V233.8H78.4V229.6Z" fill="black"/>
<path d="M91 229.6H86.8V233.8H91V229.6Z" fill="black"/>
<path d="M95.2 229.6H91V233.8H95.2V229.6Z" fill="black"/>
<path d="M103.6 229.6H99.3999V233.8H103.6V229.6Z" fill="black"/>
<path d="M107.8 229.6H103.6V233.8H107.8V229.6Z" fill="black"/>
<path d="M112 229.6H107.8V233.8H112V229.6Z" fill="black"/>
<path d="M116.2 229.6H112V233.8H116.2V229.6Z" fill="black"/>
<path d="M120.4 229.6H116.2V233.8H120.4V229.6Z" fill="black"/>
<path d="M133 229.6H128.8V233.8H133V229.6Z" fill="black"/>
<path d="M137.2 229.6H133V233.8H137.2V229.6Z" fill="black"/>
<path d="M141.4 229.6H137.2V233.8H141.4V229.6Z" fill="black"/>
<path d="M145.6 229.6H141.4V233.8H145.6V229.6Z" fill="black"/>
<path d="M149.8 229.6H145.6V233.8H149.8V229.6Z" fill="black"/>
<path d="M154 229.6H149.8V233.8H154V229.6Z" fill="black"/>
<path d="M158.2 229.6H154V233.8H158.2V229.6Z" fill="black"/>
<path d="M170.8 229.6H166.6V233.8H170.8V229.6Z" fill="black"/>
<path d="M175 229.6H170.8V233.8H175V229.6Z" fill="black"/>
<path d="M179.2 229.6H175V233.8H179.2V229.6Z" fill="black"/>
<path d="M183.4 229.6H179.2V233.8H183.4V229.6Z" fill="black"/>
<path d="M191.8 229.6H187.6V233.8H191.8V229.6Z" fill="black"/>
<path d="M208.6 229.6H204.4V233.8H208.6V229.6Z" fill="black"/>
<path d="M212.8 229.6H208.6V233.8H212.8V229.6Z" fill="black"/>
<path d="M217 229.6H212.8V233.8H217V229.6Z" fill="black"/>
<path d="M221.2 229.6H217V233.8H221.2V229.6Z" fill="black"/>
<path d="M225.4 229.6H221.2V233.8H225.4V229.6Z" fill="black"/>
<path d="M229.6 229.6H225.4V233.8H229.6V229.6Z" fill="black"/>
<path d="M233.8 229.6H229.6V233.8H233.8V229.6Z" fill="black"/>
<path d="M238 229.6H233.8V233.8H238V229.6Z" fill="black"/>
<path d="M246.4 229.6H242.2V233.8H246.4V229.6Z" fill="black"/>
<path d="M32.2 233.8H28V238H32.2V233.8Z" fill="black"/>
<path d="M40.5999 233.8H36.3999V238H40.5999V233.8Z" fill="black"/>
<path d="M44.8001 233.8H40.6001V238H44.8001V233.8Z" fill="black"/>
<path d="M49 233.8H44.8V238H49V233.8Z" fill="black"/>
<path d="M57.3999 233.8H53.2V238H57.3999V233.8Z" fill="black"/>
<path d="M65.8001 233.8H61.6001V238H65.8001V233.8Z" fill="black"/>
<path d="M70 233.8H65.8V238H70V233.8Z" fill="black"/>
<path d="M74.2 233.8H70V238H74.2V233.8Z" fill="black"/>
<path d="M78.4 233.8H74.2V238H78.4V233.8Z" fill="black"/>
<path d="M86.8001 233.8H82.6001V238H86.8001V233.8Z" fill="black"/>
<path d="M103.6 233.8H99.3999V238H103.6V233.8Z" fill="black"/>
<path d="M107.8 233.8H103.6V238H107.8V233.8Z" fill="black"/>
<path d="M116.2 233.8H112V238H116.2V233.8Z" fill="black"/>
<path d="M120.4 233.8H116.2V238H120.4V233.8Z" fill="black"/>
<path d="M124.6 233.8H120.4V238H124.6V233.8Z" fill="black"/>
<path d="M133 233.8H128.8V238H133V233.8Z" fill="black"/>
<path d="M141.4 233.8H137.2V238H141.4V233.8Z" fill="black"/>
<path d="M145.6 233.8H141.4V238H145.6V233.8Z" fill="black"/>
<path d="M154 233.8H149.8V238H154V233.8Z" fill="black"/>
<path d="M162.4 233.8H158.2V238H162.4V233.8Z" fill="black"/>
<path d="M170.8 233.8H166.6V238H170.8V233.8Z" fill="black"/>
<path d="M183.4 233.8H179.2V238H183.4V233.8Z" fill="black"/>
<path d="M187.6 233.8H183.4V238H187.6V233.8Z" fill="black"/>
<path d="M191.8 233.8H187.6V238H191.8V233.8Z" fill="black"/>
<path d="M196 233.8H191.8V238H196V233.8Z" fill="black"/>
<path d="M212.8 233.8H208.6V238H212.8V233.8Z" fill="black"/>
<path d="M221.2 233.8H217V238H221.2V233.8Z" fill="black"/>
<path d="M225.4 233.8H221.2V238H225.4V233.8Z" fill="black"/>
<path d="M229.6 233.8H225.4V238H229.6V233.8Z" fill="black"/>
<path d="M242.2 233.8H238V238H242.2V233.8Z" fill="black"/>
<path d="M250.6 233.8H246.4V238H250.6V233.8Z" fill="black"/>
<path d="M32.2 238H28V242.2H32.2V238Z" fill="black"/>
<path d="M40.5999 238H36.3999V242.2H40.5999V238Z" fill="black"/>
<path d="M44.8001 238H40.6001V242.2H44.8001V238Z" fill="black"/>
<path d="M49 238H44.8V242.2H49V238Z" fill="black"/>
<path d="M57.3999 238H53.2V242.2H57.3999V238Z" fill="black"/>
<path d="M65.8001 238H61.6001V242.2H65.8001V238Z" fill="black"/>
<path d="M70 238H65.8V242.2H70V238Z" fill="black"/>
<path d="M78.4 238H74.2V242.2H78.4V238Z" fill="black"/>
<path d="M82.5999 238H78.3999V242.2H82.5999V238Z" fill="black"/>
<path d="M86.8001 238H82.6001V242.2H86.8001V238Z" fill="black"/>
<path d="M107.8 238H103.6V242.2H107.8V238Z" fill="black"/>
<path d="M112 238H107.8V242.2H112V238Z" fill="black"/>
<path d="M120.4 238H116.2V242.2H120.4V238Z" fill="black"/>
<path d="M124.6 238H120.4V242.2H124.6V238Z" fill="black"/>
<path d="M133 238H128.8V242.2H133V238Z" fill="black"/>
<path d="M141.4 238H137.2V242.2H141.4V238Z" fill="black"/>
<path d="M145.6 238H141.4V242.2H145.6V238Z" fill="black"/>
<path d="M154 238H149.8V242.2H154V238Z" fill="black"/>
<path d="M158.2 238H154V242.2H158.2V238Z" fill="black"/>
<path d="M162.4 238H158.2V242.2H162.4V238Z" fill="black"/>
<path d="M179.2 238H175V242.2H179.2V238Z" fill="black"/>
<path d="M183.4 238H179.2V242.2H183.4V238Z" fill="black"/>
<path d="M187.6 238H183.4V242.2H187.6V238Z" fill="black"/>
<path d="M200.2 238H196V242.2H200.2V238Z" fill="black"/>
<path d="M208.6 238H204.4V242.2H208.6V238Z" fill="black"/>
<path d="M212.8 238H208.6V242.2H212.8V238Z" fill="black"/>
<path d="M221.2 238H217V242.2H221.2V238Z" fill="black"/>
<path d="M229.6 238H225.4V242.2H229.6V238Z" fill="black"/>
<path d="M238 238H233.8V242.2H238V238Z" fill="black"/>
<path d="M242.2 238H238V242.2H242.2V238Z" fill="black"/>
<path d="M246.4 238H242.2V242.2H246.4V238Z" fill="black"/>
<path d="M32.2 242.2H28V246.4H32.2V242.2Z" fill="black"/>
<path d="M57.3999 242.2H53.2V246.4H57.3999V242.2Z" fill="black"/>
<path d="M65.8001 242.2H61.6001V246.4H65.8001V242.2Z" fill="black"/>
<path d="M74.2 242.2H70V246.4H74.2V242.2Z" fill="black"/>
<path d="M82.5999 242.2H78.3999V246.4H82.5999V242.2Z" fill="black"/>
<path d="M99.3999 242.2H95.2V246.4H99.3999V242.2Z" fill="black"/>
<path d="M112 242.2H107.8V246.4H112V242.2Z" fill="black"/>
<path d="M124.6 242.2H120.4V246.4H124.6V242.2Z" fill="black"/>
<path d="M141.4 242.2H137.2V246.4H141.4V242.2Z" fill="black"/>
<path d="M145.6 242.2H141.4V246.4H145.6V242.2Z" fill="black"/>
<path d="M158.2 242.2H154V246.4H158.2V242.2Z" fill="black"/>
<path d="M166.6 242.2H162.4V246.4H166.6V242.2Z" fill="black"/>
<path d="M170.8 242.2H166.6V246.4H170.8V242.2Z" fill="black"/>
<path d="M183.4 242.2H179.2V246.4H183.4V242.2Z" fill="black"/>
<path d="M200.2 242.2H196V246.4H200.2V242.2Z" fill="black"/>
<path d="M204.4 242.2H200.2V246.4H204.4V242.2Z" fill="black"/>
<path d="M212.8 242.2H208.6V246.4H212.8V242.2Z" fill="black"/>
<path d="M217 242.2H212.8V246.4H217V242.2Z" fill="black"/>
<path d="M246.4 242.2H242.2V246.4H246.4V242.2Z" fill="black"/>
<path d="M32.2 246.4H28V250.6H32.2V246.4Z" fill="black"/>
<path d="M36.3999 246.4H32.2V250.6H36.3999V246.4Z" fill="black"/>
<path d="M40.5999 246.4H36.3999V250.6H40.5999V246.4Z" fill="black"/>
<path d="M44.8001 246.4H40.6001V250.6H44.8001V246.4Z" fill="black"/>
<path d="M49 246.4H44.8V250.6H49V246.4Z" fill="black"/>
<path d="M53.2 246.4H49V250.6H53.2V246.4Z" fill="black"/>
<path d="M57.3999 246.4H53.2V250.6H57.3999V246.4Z" fill="black"/>
<path d="M65.8001 246.4H61.6001V250.6H65.8001V246.4Z" fill="black"/>
<path d="M70 246.4H65.8V250.6H70V246.4Z" fill="black"/>
<path d="M74.2 246.4H70V250.6H74.2V246.4Z" fill="black"/>
<path d="M82.5999 246.4H78.3999V250.6H82.5999V246.4Z" fill="black"/>
<path d="M86.8001 246.4H82.6001V250.6H86.8001V246.4Z" fill="black"/>
<path d="M95.2 246.4H91V250.6H95.2V246.4Z" fill="black"/>
<path d="M99.3999 246.4H95.2V250.6H99.3999V246.4Z" fill="black"/>
<path d="M120.4 246.4H116.2V250.6H120.4V246.4Z" fill="black"/>
<path d="M145.6 246.4H141.4V250.6H145.6V246.4Z" fill="black"/>
<path d="M154 246.4H149.8V250.6H154V246.4Z" fill="black"/>
<path d="M162.4 246.4H158.2V250.6H162.4V246.4Z" fill="black"/>
<path d="M166.6 246.4H162.4V250.6H166.6V246.4Z" fill="black"/>
<path d="M170.8 246.4H166.6V250.6H170.8V246.4Z" fill="black"/>
<path d="M175 246.4H170.8V250.6H175V246.4Z" fill="black"/>
<path d="M191.8 246.4H187.6V250.6H191.8V246.4Z" fill="black"/>
<path d="M196 246.4H191.8V250.6H196V246.4Z" fill="black"/>
<path d="M208.6 246.4H204.4V250.6H208.6V246.4Z" fill="black"/>
<path d="M217 246.4H212.8V250.6H217V246.4Z" fill="black"/>
<path d="M229.6 246.4H225.4V250.6H229.6V246.4Z" fill="black"/>
<path d="M238 246.4H233.8V250.6H238V246.4Z" fill="black"/>
<path d="M246.4 246.4H242.2V250.6H246.4V246.4Z" fill="black"/>
</svg>
