<svg width="26" height="26" viewBox="0 0 26 26" fill="none" xmlns="http://www.w3.org/2000/svg">
<path d="M13.1728 12.5883C13.1403 12.5883 13.1186 12.5883 13.0861 12.5883C13.032 12.5775 12.9561 12.5775 12.8911 12.5883C9.74945 12.4908 7.37695 10.0208 7.37695 6.97663C7.37695 3.87829 9.90112 1.35413 12.9995 1.35413C16.0978 1.35413 18.622 3.87829 18.622 6.97663C18.6111 10.0208 16.2278 12.4908 13.2053 12.5883C13.1945 12.5883 13.1836 12.5883 13.1728 12.5883ZM12.9995 2.97913C10.8003 2.97913 9.00195 4.77746 9.00195 6.97663C9.00195 9.14329 10.692 10.8875 12.8478 10.9633C12.902 10.9525 13.0536 10.9525 13.1945 10.9633C15.3178 10.8658 16.9861 9.12163 16.997 6.97663C16.997 4.77746 15.1986 2.97913 12.9995 2.97913Z" fill="#862FC0"/>
<path d="M13.1833 24.4292C11.0599 24.4292 8.92576 23.8875 7.31159 22.8042C5.80576 21.8075 4.98242 20.4425 4.98242 18.9584C4.98242 17.4742 5.80576 16.0984 7.31159 15.0909C10.5616 12.935 15.8266 12.935 19.0549 15.0909C20.5499 16.0875 21.3841 17.4525 21.3841 18.9367C21.3841 20.4209 20.5608 21.7967 19.0549 22.8042C17.4299 23.8875 15.3066 24.4292 13.1833 24.4292ZM8.21076 16.4559C7.17076 17.1492 6.60742 18.0375 6.60742 18.9692C6.60742 19.89 7.18159 20.7784 8.21076 21.4609C10.9083 23.27 15.4583 23.27 18.1558 21.4609C19.1958 20.7675 19.7591 19.8792 19.7591 18.9475C19.7591 18.0267 19.1849 17.1384 18.1558 16.4559C15.4583 14.6575 10.9083 14.6575 8.21076 16.4559Z" fill="#862FC0"/>
</svg>
