<svg width="26" height="26" viewBox="0 0 26 26" fill="none" xmlns="http://www.w3.org/2000/svg">
<g clip-path="url(#clip0_257_1203)">
<path d="M3.50131 21.4018L10.4346 25.3244C11.2169 25.7672 12.1004 25.9999 12.9993 25.9999C13.8982 25.9999 14.7818 25.7672 15.564 25.3244L22.4973 21.4018C23.296 20.9491 23.9606 20.2929 24.4235 19.5001C24.8864 18.7072 25.1312 17.8059 25.1329 16.8878V9.11252C25.1316 8.19433 24.8871 7.29287 24.4241 6.49994C23.9612 5.707 23.2963 5.05092 22.4973 4.59848L15.564 0.675518C14.779 0.240776 13.8963 0.0126953 12.9989 0.0126953C12.1015 0.0126953 11.2188 0.240776 10.4338 0.675518L3.50044 4.59848C2.70173 5.05112 2.0372 5.70728 1.57448 6.5002C1.11176 7.29311 0.867381 8.19447 0.866211 9.11252V16.8878C0.867557 17.8059 1.11211 18.7073 1.57497 19.5002C2.03784 20.2931 2.70249 20.9493 3.50131 21.4018ZM1.73288 9.11252C1.734 8.34772 1.93773 7.59687 2.32334 6.9364C2.70896 6.27592 3.26268 5.72941 3.92814 5.35248L10.8615 1.42952C11.5138 1.06055 12.2505 0.866636 13 0.866636C13.7494 0.866636 14.4861 1.06055 15.1385 1.42952L22.0718 5.35292C22.7371 5.72985 23.2907 6.27633 23.6761 6.93672C24.0616 7.59712 24.2652 8.34786 24.2662 9.11252V16.8878C24.265 17.6525 24.0613 18.4032 23.6758 19.0636C23.2902 19.724 22.7367 20.2704 22.0714 20.6474L15.138 24.5704C14.4837 24.9325 13.7481 25.1225 13.0002 25.1225C12.2523 25.1225 11.5167 24.9325 10.8623 24.5704L3.92901 20.6474C3.26342 20.2707 2.70954 19.7243 2.32377 19.0639C1.938 18.4035 1.73412 17.6526 1.73288 16.8878V9.11252Z" fill="#862FC0"/>
<path d="M4.5685 19.516L11.5018 23.4389C11.9592 23.6961 12.475 23.8311 12.9997 23.8311C13.5243 23.8311 14.0401 23.6961 14.4975 23.4389L21.4308 19.516C21.8962 19.2527 22.2835 18.8708 22.5533 18.4091C22.823 17.9474 22.9656 17.4225 22.9665 16.8878V9.11251C22.9657 8.57774 22.8231 8.05274 22.5534 7.59099C22.2836 7.12924 21.8963 6.74724 21.4308 6.48392L14.4975 2.56095C14.0402 2.30379 13.5243 2.1687 12.9997 2.1687C12.475 2.1687 11.9592 2.30379 11.5018 2.56095L4.5685 6.48392C4.10322 6.7474 3.71604 7.12944 3.44636 7.59117C3.17668 8.05289 3.03413 8.57781 3.0332 9.11251V16.8878C3.0342 17.4225 3.17679 17.9473 3.44647 18.4089C3.71615 18.8706 4.10328 19.2525 4.5685 19.516ZM3.89987 9.11251C3.90034 8.73085 4.00202 8.35614 4.19454 8.0266C4.38706 7.69705 4.66353 7.42446 4.99577 7.23662L11.9291 3.31322C12.2561 3.1294 12.6249 3.03285 13.0001 3.03285C13.3752 3.03285 13.7441 3.1294 14.0711 3.31322L21.0044 7.23662C21.3365 7.42455 21.6129 7.69717 21.8053 8.02671C21.9978 8.35624 22.0994 8.73091 22.0999 9.11251V16.8878C22.0993 17.2693 21.9976 17.6439 21.8052 17.9733C21.6127 18.3028 21.3364 18.5754 21.0044 18.7633L14.0711 22.6862C13.7439 22.8697 13.3752 22.966 13.0001 22.966C12.625 22.966 12.2562 22.8697 11.9291 22.6862L4.99577 18.7633C4.66363 18.5754 4.38722 18.3029 4.1947 17.9735C4.00219 17.644 3.90046 17.2694 3.89987 16.8878V9.11251Z" fill="#862FC0"/>
<path d="M6.06715 16.9C6.18208 16.9 6.2923 16.8543 6.37356 16.773C6.45483 16.6918 6.50048 16.5816 6.50048 16.4666V11.3689L9.14598 16.6603C9.18198 16.7324 9.23733 16.7929 9.30584 16.8353C9.37434 16.8776 9.45329 16.9 9.53382 16.9C9.56735 16.8998 9.60077 16.8961 9.63348 16.8887C9.72852 16.8662 9.81319 16.8123 9.87375 16.7357C9.93432 16.6591 9.96723 16.5643 9.96715 16.4666V9.5333C9.96715 9.41837 9.9215 9.30815 9.84023 9.22688C9.75896 9.14562 9.64874 9.09996 9.53382 9.09996C9.41889 9.09996 9.30867 9.14562 9.2274 9.22688C9.14614 9.30815 9.10048 9.41837 9.10048 9.5333V14.631L6.45715 9.3396C6.41422 9.25093 6.34237 9.17954 6.25343 9.13719C6.16449 9.09484 6.06378 9.08405 5.96788 9.10661C5.87199 9.12917 5.78665 9.18373 5.72592 9.26129C5.6652 9.33886 5.63271 9.4348 5.63382 9.5333V16.4666C5.63382 16.5816 5.67947 16.6918 5.76074 16.773C5.842 16.8543 5.95222 16.9 6.06715 16.9Z" fill="#862FC0"/>
<path d="M11.6999 16.9C11.8149 16.9 11.9251 16.8543 12.0063 16.7731C12.0876 16.6918 12.1333 16.5816 12.1333 16.4666V13.4333H13.8666C13.9815 13.4333 14.0917 13.3877 14.173 13.3064C14.2543 13.2251 14.2999 13.1149 14.2999 13C14.2999 12.885 14.2543 12.7748 14.173 12.6936C14.0917 12.6123 13.9815 12.5666 13.8666 12.5666H12.1333V9.96664H15.1666C15.2815 9.96664 15.3917 9.92099 15.473 9.83972C15.5543 9.75846 15.5999 9.64824 15.5999 9.53331C15.5999 9.41838 15.5543 9.30816 15.473 9.2269C15.3917 9.14563 15.2815 9.09998 15.1666 9.09998H11.6999C11.585 9.09998 11.4748 9.14563 11.3935 9.2269C11.3123 9.30816 11.2666 9.41838 11.2666 9.53331V16.4666C11.2666 16.5816 11.3123 16.6918 11.3935 16.7731C11.4748 16.8543 11.585 16.9 11.6999 16.9Z" fill="#862FC0"/>
<path d="M16.4665 9.96664H17.7665V16.4666C17.7665 16.5816 17.8122 16.6918 17.8935 16.7731C17.9747 16.8543 18.0849 16.9 18.1999 16.9C18.3148 16.9 18.425 16.8543 18.5063 16.7731C18.5875 16.6918 18.6332 16.5816 18.6332 16.4666V9.96664H19.9332C20.0481 9.96664 20.1584 9.92099 20.2396 9.83972C20.3209 9.75846 20.3665 9.64824 20.3665 9.53331C20.3665 9.41838 20.3209 9.30816 20.2396 9.2269C20.1584 9.14563 20.0481 9.09998 19.9332 9.09998H16.4665C16.3516 9.09998 16.2414 9.14563 16.1601 9.2269C16.0789 9.30816 16.0332 9.41838 16.0332 9.53331C16.0332 9.64824 16.0789 9.75846 16.1601 9.83972C16.2414 9.92099 16.3516 9.96664 16.4665 9.96664Z" fill="#862FC0"/>
</g>
<defs>
<clipPath id="clip0_257_1203">
<rect width="26" height="26" fill="white"/>
</clipPath>
</defs>
</svg>
