<svg width="26" height="26" viewBox="0 0 26 26" fill="none" xmlns="http://www.w3.org/2000/svg">
<path d="M17.1602 12.4922C17.4406 12.4922 17.668 12.2648 17.668 11.9844C17.668 11.7039 17.4406 11.4766 17.1602 11.4766C16.8797 11.4766 16.6523 11.7039 16.6523 11.9844C16.6523 12.2648 16.8797 12.4922 17.1602 12.4922Z" fill="#862FC0"/>
<path d="M17.247 14.1602C16.9698 14.119 16.7113 14.3107 16.6702 14.5882C16.5315 15.5253 15.7393 16.3026 14.5512 16.6674C13.2813 17.0574 11.5186 16.9266 10.4434 15.7557C10.2536 15.5491 9.93239 15.5355 9.72586 15.7251C9.51929 15.9148 9.50563 16.2361 9.69529 16.4426C10.3178 17.1205 11.1632 17.5825 12.1403 17.7786C12.4853 17.8479 12.8432 17.8823 13.2034 17.8823C13.7599 17.8823 14.3218 17.8003 14.8493 17.6383C16.421 17.1557 17.4773 16.0711 17.6749 14.737C17.716 14.4595 17.5244 14.2013 17.247 14.1602Z" fill="#862FC0"/>
<path d="M22.6391 10.1602C21.8521 9.24792 20.766 8.6564 19.4586 8.41883C20.7103 7.57411 21.7899 6.73345 22.5597 5.99992C23.7335 4.88151 24.1271 4.09558 23.7984 3.52671C23.4327 2.8931 22.3771 2.89747 20.4761 3.5406C18.8699 4.08398 16.869 5.02773 14.842 6.19804C14.4919 6.40015 14.145 6.60711 13.8057 6.81567C13.554 6.10487 13.72 5.29292 14.2753 4.58887C14.6913 4.06151 14.7841 3.39171 14.5177 2.84075C14.2385 2.2633 13.6255 1.91757 12.8772 1.91602H12.8568C10.2154 1.91602 7.63186 2.95822 5.58205 4.85064C3.52969 6.7454 2.27321 9.25368 2.04409 11.9134C1.76841 15.1165 2.7923 18.1617 4.92706 20.4881C7.0241 22.7734 9.99709 24.0841 13.0837 24.0841C14.7454 24.0841 16.3054 23.78 17.7202 23.1803C19.0139 22.632 20.1628 21.849 21.1349 20.853C22.0362 19.9295 22.7468 18.8665 23.247 17.6933C23.7231 16.5769 23.9831 15.3938 23.9992 14.2721C24.0226 12.6407 23.5523 11.2189 22.6391 10.1602ZM13.8563 7.80388C14.3145 7.51488 14.7918 7.22691 15.2749 6.94799C17.1491 5.86591 19.0154 4.97464 20.53 4.43832C22.1974 3.84797 22.8801 3.8865 23.0392 3.96271C23.0255 4.06346 22.9003 4.51171 21.8062 5.51932C20.8925 6.36071 19.5583 7.35017 18.0494 8.30544C17.5724 8.60752 17.0759 8.90774 16.5739 9.19766C15.8818 9.59711 15.1902 9.97064 14.5114 10.3126C14.376 9.91738 14.2024 9.53381 13.9912 9.16787C13.7864 8.81322 13.549 8.48027 13.2835 8.17221C13.4714 8.04907 13.6625 7.92594 13.8563 7.80388ZM13.727 10.6967C12.5044 11.2765 11.3826 11.7185 10.4867 11.9749C10.4401 11.751 10.3581 11.5345 10.2418 11.3328C10.1315 11.1416 9.99315 10.9708 9.83325 10.8234C10.5039 10.1761 11.4479 9.42622 12.5594 8.65904C12.8175 8.94744 13.0462 9.2629 13.2413 9.60075C13.443 9.95016 13.6054 10.3177 13.727 10.6967ZM23.1333 14.2596C23.0716 18.568 19.2118 23.2181 13.0837 23.2181C10.239 23.2181 7.49859 22.0097 5.56513 19.9027C3.59628 17.7572 2.65228 14.9462 2.90686 11.9877C3.34412 6.91162 7.80765 2.78195 12.8568 2.78195H12.8763C13.2905 2.78282 13.6046 2.94163 13.7381 3.21774C13.8609 3.47155 13.8075 3.78363 13.5954 4.05259C12.815 5.04193 12.6193 6.2587 13.0602 7.28462C12.8281 7.43417 12.6 7.58437 12.3795 7.73335C12.3785 7.73405 12.3775 7.73474 12.3765 7.73543C10.9997 8.66445 9.83706 9.58854 9.06352 10.3662C8.47685 10.1657 7.83224 10.2241 7.28436 10.5404C6.38482 11.06 5.20368 13.4814 4.97607 13.9615C4.91511 14.09 4.92121 14.2403 4.99231 14.3635C5.06344 14.4866 5.19052 14.567 5.33227 14.5786C5.57158 14.598 6.25112 14.647 7.00748 14.647C7.92529 14.647 8.9561 14.5747 9.44925 14.2899C9.98345 13.9815 10.3537 13.4663 10.482 12.874C11.5437 12.5953 12.931 12.0501 14.4335 11.318C15.2753 10.9083 16.1411 10.4473 17.0069 9.9476C17.446 9.69397 17.8802 9.4325 18.3022 9.16878C18.3047 9.16891 18.3072 9.1693 18.3098 9.16938C21.9185 9.27286 23.1677 11.8667 23.1333 14.2596ZM9.66366 12.4965C9.63595 12.9319 9.39401 13.322 9.01628 13.54C8.60682 13.7765 7.20019 13.8084 6.04525 13.7556C6.57672 12.7293 7.30753 11.5271 7.71742 11.2903C8.10441 11.0669 8.57227 11.0571 8.96922 11.2642C9.18739 11.3778 9.36803 11.5511 9.49168 11.7655C9.62032 11.9885 9.67977 12.2413 9.66366 12.4965Z" fill="#862FC0"/>
<path d="M9.03516 3.14026C7.91513 3.14026 7.00391 4.05148 7.00391 5.17151C7.00391 6.29154 7.91513 7.20276 9.03516 7.20276C10.1552 7.20276 11.0664 6.29154 11.0664 5.17151C11.0664 4.05148 10.1552 3.14026 9.03516 3.14026ZM9.03516 6.18713C8.47514 6.18713 8.01953 5.73152 8.01953 5.17151C8.01953 4.61149 8.47514 4.15588 9.03516 4.15588C9.59517 4.15588 10.0508 4.61149 10.0508 5.17151C10.0508 5.73152 9.59517 6.18713 9.03516 6.18713Z" fill="#862FC0"/>
<path d="M6.49609 16.7858C5.37606 16.7858 4.46484 17.697 4.46484 18.817C4.46484 19.937 5.37606 20.8483 6.49609 20.8483C7.61613 20.8483 8.52734 19.937 8.52734 18.817C8.52734 17.697 7.61613 16.7858 6.49609 16.7858ZM6.49609 19.8326C5.93608 19.8326 5.48047 19.377 5.48047 18.817C5.48047 18.257 5.93608 17.8014 6.49609 17.8014C7.05611 17.8014 7.51172 18.257 7.51172 18.817C7.51172 19.377 7.05611 19.8326 6.49609 19.8326Z" fill="#862FC0"/>
<path d="M11.5742 19.8326C10.4542 19.8326 9.54297 20.7439 9.54297 21.8639C9.54297 22.9839 10.4542 23.8951 11.5742 23.8951C12.6943 23.8951 13.6055 22.9839 13.6055 21.8639C13.6055 20.7439 12.6943 19.8326 11.5742 19.8326ZM11.5742 22.8795C11.0142 22.8795 10.5586 22.4239 10.5586 21.8639C10.5586 21.3039 11.0142 20.8483 11.5742 20.8483C12.1342 20.8483 12.5898 21.3039 12.5898 21.8639C12.5898 22.4239 12.1342 22.8795 11.5742 22.8795Z" fill="#862FC0"/>
<path d="M17.668 18.817C16.5479 18.817 15.6367 19.7282 15.6367 20.8483C15.6367 21.9683 16.5479 22.8795 17.668 22.8795C18.788 22.8795 19.6992 21.9683 19.6992 20.8483C19.6992 19.7282 18.788 18.817 17.668 18.817ZM17.668 21.8639C17.108 21.8639 16.6523 21.4083 16.6523 20.8483C16.6523 20.2883 17.108 19.8326 17.668 19.8326C18.228 19.8326 18.6836 20.2883 18.6836 20.8483C18.6836 21.4083 18.228 21.8639 17.668 21.8639Z" fill="#862FC0"/>
<path d="M21.7305 13.7389C20.6104 13.7389 19.6992 14.6501 19.6992 15.7701C19.6992 16.8902 20.6104 17.8014 21.7305 17.8014C22.8505 17.8014 23.7617 16.8902 23.7617 15.7701C23.7617 14.6501 22.8505 13.7389 21.7305 13.7389ZM21.7305 16.7858C21.1705 16.7858 20.7148 16.3302 20.7148 15.7701C20.7148 15.2101 21.1705 14.7545 21.7305 14.7545C22.2905 14.7545 22.7461 15.2101 22.7461 15.7701C22.7461 16.3302 22.2905 16.7858 21.7305 16.7858Z" fill="#862FC0"/>
</svg>
