<svg width="26" height="26" viewBox="0 0 26 26" fill="none" xmlns="http://www.w3.org/2000/svg">
<path d="M16.7805 22.49C16.5747 22.49 16.3688 22.4141 16.2063 22.2516C15.8922 21.9375 15.8922 21.4175 16.2063 21.1033L21.6338 15.6758C21.948 15.3616 22.468 15.3616 22.7822 15.6758C23.0963 15.99 23.0963 16.51 22.7822 16.8241L17.3547 22.2516C17.1922 22.4033 16.9863 22.49 16.7805 22.49Z" fill="#862FC0"/>
<path d="M22.2087 17.0516H3.79199C3.34783 17.0516 2.97949 16.6833 2.97949 16.2391C2.97949 15.795 3.34783 15.4266 3.79199 15.4266H22.2087C22.6528 15.4266 23.0212 15.795 23.0212 16.2391C23.0212 16.6833 22.6528 17.0516 22.2087 17.0516Z" fill="#862FC0"/>
<path d="M3.79124 10.5734C3.5854 10.5734 3.37957 10.4975 3.21707 10.335C2.9029 10.0209 2.9029 9.50085 3.21707 9.18668L8.64457 3.75918C8.95874 3.44502 9.47874 3.44502 9.7929 3.75918C10.1071 4.07335 10.1071 4.59335 9.7929 4.90752L4.3654 10.335C4.21374 10.4867 3.99707 10.5734 3.79124 10.5734Z" fill="#862FC0"/>
<path d="M22.2087 10.5734H3.79199C3.34783 10.5734 2.97949 10.205 2.97949 9.76086C2.97949 9.3167 3.34783 8.94836 3.79199 8.94836H22.2087C22.6528 8.94836 23.0212 9.3167 23.0212 9.76086C23.0212 10.205 22.6528 10.5734 22.2087 10.5734Z" fill="#862FC0"/>
</svg>
