<svg width="38" height="38" viewBox="0 0 38 38" fill="none" xmlns="http://www.w3.org/2000/svg">
<path d="M33.25 36.0209H4.75C4.10083 36.0209 3.5625 35.4825 3.5625 34.8334C3.5625 34.1842 4.10083 33.6459 4.75 33.6459H33.25C33.8992 33.6459 34.4375 34.1842 34.4375 34.8334C34.4375 35.4825 33.8992 36.0209 33.25 36.0209Z" fill="#862FC0"/>
<path d="M8.86663 31.2708H6.33333C4.81333 31.2708 3.5625 30.02 3.5625 28.5V14.8516C3.5625 13.3316 4.81333 12.0808 6.33333 12.0808H8.86663C10.3866 12.0808 11.6375 13.3316 11.6375 14.8516V28.5C11.6375 30.02 10.3866 31.2708 8.86663 31.2708ZM6.33333 14.44C6.11167 14.44 5.9375 14.6141 5.9375 14.8358V28.5C5.9375 28.7216 6.11167 28.8958 6.33333 28.8958H8.86663C9.08829 28.8958 9.26246 28.7216 9.26246 28.5V14.8516C9.26246 14.63 9.08829 14.4558 8.86663 14.4558H6.33333V14.44Z" fill="#862FC0"/>
<path d="M20.267 31.2709H17.7337C16.2137 31.2709 14.9629 30.02 14.9629 28.5V9.80086C14.9629 8.28086 16.2137 7.03003 17.7337 7.03003H20.267C21.787 7.03003 23.0379 8.28086 23.0379 9.80086V28.5C23.0379 30.02 21.787 31.2709 20.267 31.2709ZM17.7337 9.40503C17.5121 9.40503 17.3379 9.5792 17.3379 9.80086V28.5C17.3379 28.7217 17.5121 28.8959 17.7337 28.8959H20.267C20.4887 28.8959 20.6629 28.7217 20.6629 28.5V9.80086C20.6629 9.5792 20.4887 9.40503 20.267 9.40503H17.7337Z" fill="#862FC0"/>
<path d="M31.6664 31.2708H29.1331C27.6131 31.2708 26.3623 30.02 26.3623 28.5V4.74996C26.3623 3.22996 27.6131 1.97913 29.1331 1.97913H31.6664C33.1864 1.97913 34.4373 3.22996 34.4373 4.74996V28.5C34.4373 30.02 33.1864 31.2708 31.6664 31.2708ZM29.1331 4.35413C28.9115 4.35413 28.7373 4.52829 28.7373 4.74996V28.5C28.7373 28.7216 28.9115 28.8958 29.1331 28.8958H31.6664C31.8881 28.8958 32.0623 28.7216 32.0623 28.5V4.74996C32.0623 4.52829 31.8881 4.35413 31.6664 4.35413H29.1331Z" fill="#862FC0"/>
</svg>
