<svg width="105" height="67" viewBox="0 0 105 67" fill="none" xmlns="http://www.w3.org/2000/svg">
<path opacity="0.5" d="M13.1441 24.776C6.83647 25.3843 1 15.2683 1 15.2683V66.3862H104V3.38366C104 3.38366 99.7974 18.6487 92.3057 17.249C87.046 16.2664 88.7996 6.0913 83.7598 7.74135C80.2248 8.89874 82.4276 13.4628 79.262 15.2683C72.8 18.954 75.7048 1.37309 68.0175 1.00674C60.0183 0.625521 63.3004 16.5538 55.4236 15.2683C49.7846 14.348 51.6278 6.23246 45.9782 5.36443C39.979 4.44269 36.228 8.37974 32.9345 12.8914C31.3998 14.9937 32.7693 17.7077 30.2358 18.8337C26.6805 20.4137 26.5335 13.3769 22.5895 12.8914C16.2192 12.1071 19.5382 24.1593 13.1441 24.776Z" fill="url(#paint0_linear_254_783)"/>
<path d="M1 15.2683C1 15.2683 6.83647 25.3843 13.1441 24.776C19.5381 24.1593 16.2192 12.1071 22.5895 12.8914C26.5335 13.3769 26.6805 20.4137 30.2358 18.8337C32.7693 17.7077 31.3998 14.9937 32.9345 12.8914C36.228 8.37974 39.979 4.44269 45.9782 5.36443C51.6278 6.23246 49.7846 14.348 55.4236 15.2683C63.3004 16.5538 60.0183 0.625521 68.0175 1.00674C75.7048 1.37309 72.8 18.954 79.262 15.2683C82.4276 13.4627 80.2248 8.89874 83.7598 7.74135C88.7996 6.0913 87.046 16.2664 92.3057 17.249C99.7974 18.6487 104 3.38366 104 3.38366" stroke="#04C182" stroke-width="1.5" stroke-linecap="round"/>
<defs>
<linearGradient id="paint0_linear_254_783" x1="52.5" y1="4.16923" x2="52.5" y2="72.8016" gradientUnits="userSpaceOnUse">
<stop stop-color="#04C182" stop-opacity="0.33"/>
<stop offset="1" stop-color="#04C182" stop-opacity="0"/>
</linearGradient>
</defs>
</svg>
