<svg width="345" height="47" viewBox="0 0 345 47" fill="none" xmlns="http://www.w3.org/2000/svg">
<mask id="mask0_277_138421" style="mask-type:alpha" maskUnits="userSpaceOnUse" x="0" y="0" width="345" height="47">
<path d="M60.6406 34.041V11.9219H65.5074V29.6172H76.5361V34.041H60.6406Z" fill="white"/>
<path d="M77.8008 34.041V11.9219H94.4851V16.2515H82.6352V20.7386H93.0634V25.0683H82.6352V29.7128H94.6425V34.0425H77.8008V34.041Z" fill="white"/>
<path d="M107.215 34.4195C100.326 34.4195 95.5859 29.5851 95.5859 23.0435V22.9802C95.5859 16.6918 100.484 11.541 107.183 11.541C111.165 11.541 113.565 12.6153 115.873 14.5741L112.807 18.2709C111.102 16.8493 109.584 16.0281 107.025 16.0281C103.486 16.0281 100.673 19.1569 100.673 22.917V22.9802C100.673 27.0244 103.455 29.9957 107.372 29.9957C109.141 29.9957 110.722 29.5527 111.954 28.6682V25.5086H107.058V21.3055H116.663V30.9125C114.388 32.8389 111.261 34.4195 107.215 34.4195Z" fill="white"/>
<path d="M119.16 34.041V11.9219H124.027V34.041H119.16Z" fill="white"/>
<path d="M137.899 34.4195C131.073 34.4195 126.176 29.3319 126.176 23.0435V22.9802C126.176 16.6918 131.137 11.541 137.962 11.541C144.788 11.541 149.686 16.6286 149.686 22.917V22.9802C149.686 29.2687 144.725 34.4195 137.899 34.4195ZM144.598 22.9802C144.598 19.1878 141.817 16.0281 137.899 16.0281C133.982 16.0281 131.263 19.1245 131.263 22.917V22.9802C131.263 26.7727 134.045 29.9324 137.962 29.9324C141.881 29.9324 144.598 26.836 144.598 23.0435V22.9802Z" fill="white"/>
<path d="M167.129 34.041L156.417 19.9792V34.041H151.613V11.9219H156.1L166.465 25.5406V11.9219H171.269V34.041H167.129Z" fill="white"/>
<path d="M44.2794 14.1191C43.1227 11.3745 41.4671 8.90797 39.3611 6.79025L39.367 6.78289L45.785 1.22001L31.9351 8.65779C31.9351 8.65779 31.9351 8.65779 31.9336 8.65779L10.2707 20.2913L19.3789 25.3038L10.8211 34.4119L10.7255 34.5105C7.8322 31.4862 6.05295 27.3921 6.05295 22.8902C6.05295 13.604 13.6217 6.05 22.9241 6.05C24.6931 6.05 26.3987 6.32373 28.0014 6.82999L34.8461 3.25679C33.941 2.71522 32.9962 2.23398 32.0161 1.8175C29.1743 0.61074 26.1559 0 23.0448 0C19.9352 0 16.9168 0.612212 14.0735 1.8175C11.3289 2.98159 8.86531 4.64898 6.74905 6.77112C4.6328 8.89326 2.97276 11.3657 1.81162 14.1191C0.609269 16.9712 0 19.9999 0 23.1198C0 26.2397 0.609269 29.2684 1.81162 32.1205C2.89182 34.6841 4.40764 37.0035 6.31933 39.0256L0.672551 44.3162L34.4134 25.2449L26.4061 19.9881L35.0241 11.1861L35.03 11.1787C37.9748 14.2118 39.7909 18.3428 39.7909 22.8917C39.7909 32.1779 32.2221 39.7319 22.9197 39.7319C21.0021 39.7319 19.1581 39.4096 17.4392 38.8195L10.5371 42.5443C11.6541 43.2698 12.8344 43.8982 14.0735 44.4236C16.9153 45.6304 19.9337 46.2411 23.0448 46.2411C26.1544 46.2411 29.1728 45.6289 32.0161 44.4236C34.7607 43.2595 37.2243 41.5921 39.3405 39.47C41.4568 37.3479 43.1168 34.8755 44.278 32.122C45.4803 29.2699 46.0896 26.2412 46.0896 23.1213C46.0925 19.9984 45.4818 16.9712 44.2794 14.1191Z" fill="white"/>
<path d="M200.735 12.0117H203.167V34.1308H201.176L186.894 15.9926V34.1308H184.461V12.0117H186.799L200.735 29.7394V12.0117Z" fill="white"/>
<path d="M224.852 14.2869H211.402V21.8395H223.43V24.1147H211.402V31.8571H225.011V34.1323H208.906V12.0117H224.853V14.2869H224.852Z" fill="white"/>
<path d="M235.371 34.1308H232.875V14.3178H225.449V12.0117H243.402V14.3178H235.371V34.1308Z" fill="white"/>
<path d="M258.326 11.7891H260.438L266.675 30.2746L273.172 11.8523H275.868L267.746 34.1304H265.569L259.333 16.182L253.063 34.1304H250.919L242.797 11.8523H245.59L252.087 30.2746L258.326 11.7891Z" fill="white"/>
<path d="M299.084 27.036C298.525 28.4164 297.74 29.632 296.731 30.6857C295.72 31.7395 294.505 32.5768 293.087 33.1979C291.668 33.8189 290.098 34.1294 288.379 34.1294C286.659 34.1294 285.094 33.8233 283.687 33.2126C282.279 32.6018 281.069 31.7748 280.06 30.7314C279.049 29.688 278.27 28.4768 277.721 27.0978C277.174 25.7189 276.898 24.259 276.898 22.7211C276.898 21.1832 277.178 19.7248 277.737 18.3444C278.297 16.9654 279.081 15.7484 280.09 14.6947C281.1 13.641 282.316 12.8036 283.734 12.1825C285.153 11.5615 286.722 11.251 288.442 11.251C290.161 11.251 291.725 11.5571 293.134 12.1678C294.542 12.7786 295.75 13.6056 296.761 14.649C297.771 15.6925 298.551 16.9036 299.1 18.2826C299.649 19.663 299.923 21.1214 299.923 22.6593C299.923 24.1972 299.643 25.6556 299.084 27.036ZM296.617 19.1509C296.176 18.0339 295.558 17.0655 294.763 16.2443C293.967 15.4231 293.026 14.7697 291.942 14.2855C290.856 13.8014 289.668 13.5585 288.379 13.5585C287.088 13.5585 285.901 13.7955 284.816 14.2694C283.73 14.7432 282.801 15.3908 282.027 16.2134C281.253 17.0346 280.645 17.9985 280.205 19.1052C279.764 20.2119 279.544 21.3966 279.544 22.6608C279.544 23.9249 279.765 25.1155 280.205 26.231C280.645 27.348 281.263 28.3164 282.06 29.1376C282.854 29.9587 283.795 30.6122 284.881 31.0963C285.965 31.5805 287.154 31.8233 288.444 31.8233C289.733 31.8233 290.92 31.5864 292.007 31.1125C293.091 30.6386 294.021 29.9911 294.795 29.1685C295.569 28.3473 296.176 27.3833 296.617 26.2766C297.057 25.1714 297.278 23.9853 297.278 22.7211C297.278 21.4584 297.059 20.2678 296.617 19.1509Z" fill="white"/>
<path d="M344.212 34.1308H341.083L332.583 23.4186L327.875 28.1897V34.1308H325.379V12.0117H327.875V25.2199L340.578 12.0117H343.801L334.322 21.6805L344.212 34.1308Z" fill="white"/>
<path d="M318.859 34.1308L312.444 25.5363H306.125V34.1308H303.629V12.0117H313.14C314.362 12.0117 315.463 12.1707 316.443 12.4856C317.423 12.802 318.26 13.2494 318.955 13.8292C319.649 14.4091 320.187 15.1052 320.566 15.916C320.946 16.7284 321.134 17.6291 321.134 18.6195C321.134 19.5466 320.987 20.3737 320.691 21.1007C320.396 21.8277 319.981 22.4605 319.443 22.9977C318.906 23.5348 318.269 23.9837 317.532 24.3413C316.794 24.7004 315.994 24.9521 315.13 25.0992L321.923 34.1308H318.859ZM317.149 15.476C316.157 14.7049 314.764 14.3193 312.968 14.3193H306.125V23.3244H312.936C313.76 23.3244 314.519 23.2184 315.217 23.008C315.914 22.7961 316.516 22.4944 317.023 22.1044C317.529 21.7129 317.925 21.2317 318.21 20.6622C318.496 20.0912 318.638 19.4466 318.638 18.7284C318.638 17.3303 318.141 16.2472 317.149 15.476Z" fill="white"/>
</mask>
<g mask="url(#mask0_277_138421)">
<rect x="-38.3398" y="-27.2646" width="917.622" height="168.699" rx="50" fill="url(#paint0_linear_277_138421)"/>
</g>
<defs>
<linearGradient id="paint0_linear_277_138421" x1="421.841" y1="57.085" x2="1955.71" y2="47.3768" gradientUnits="userSpaceOnUse">
<stop stop-color="#3553D5"/>
<stop offset="1" stop-color="#0C194E"/>
</linearGradient>
</defs>
</svg>
