<svg width="220" height="45" viewBox="0 0 220 45" fill="none" xmlns="http://www.w3.org/2000/svg">
<g clip-path="url(#clip0_244_5129)">
<path fill-rule="evenodd" clip-rule="evenodd" d="M13.5908 37.415L17.5516 26.9581L15.9013 22.9252L15.3979 26.8747L13.1284 32.1094C13.3494 33.8927 13.4694 35.6191 13.5908 37.4147V37.415Z" fill="white"/>
<path fill-rule="evenodd" clip-rule="evenodd" d="M23.3891 26.8785L22.7047 26.3713L17.9998 27.6783L15.125 38.6662C15.5278 39.3401 15.9283 40.0154 16.3288 40.6896L19.9136 28.4792L22.7047 26.3713L27.417 27.6714L23.3891 26.8785Z" fill="white"/>
<path fill-rule="evenodd" clip-rule="evenodd" d="M22.4666 30.0233C23.1232 30.1742 23.5697 30.0724 23.8016 29.7159C23.3453 29.9672 22.8792 29.9399 22.4545 29.6314C21.9884 29.9948 21.6524 29.9114 21.1331 29.7159L20.8224 29.5938C20.6477 29.5308 20.4449 29.4601 20.2205 29.3905L17.7617 42.1014C19.4278 43.0587 21.0105 43.8939 22.7045 44.7678L26.6948 42.7034C25.3126 43.2174 24.1247 43.655 22.7109 44.1782L22.4669 30.0233H22.4666Z" fill="white"/>
<path fill-rule="evenodd" clip-rule="evenodd" d="M20.4804 21.7168C20.1636 21.6826 15.9866 21.5581 16.6395 22.0848C17.9865 23.1528 17.3711 25.6457 17.54 25.7704C18.4526 26.4593 21.2534 21.7855 20.4804 21.7171V21.7168Z" fill="white"/>
<path fill-rule="evenodd" clip-rule="evenodd" d="M13.2681 28.696L14.9696 25.6273L14.9005 22.0972L13.4332 23.925L13.3129 27.4163L13.3058 27.6084L13.296 27.8185L13.2681 28.696Z" fill="white"/>
<path fill-rule="evenodd" clip-rule="evenodd" d="M25.4264 13.6567C23.0528 13.939 20.5929 14.3263 18.2895 14.9409C17.3283 15.1968 16.3538 15.5041 15.4412 15.8856C15.3635 15.9175 15.417 15.8994 15.4642 15.8937C17.0757 15.6617 18.7542 15.4938 20.3814 15.4538C21.0817 15.4366 21.9261 15.4366 22.6181 15.5406C22.6788 15.5498 22.7369 15.559 22.7965 15.5702C17.5044 15.898 -4.55651 19.3574 12.2666 25.4444C7.14198 24.5328 4.30719 23.2512 4.27065 21.0656C4.2344 18.1695 10.9999 16.6889 13.3772 16.2387C13.643 16.1884 13.9086 16.0969 14.1744 16.0308C14.2763 16.0069 14.3128 15.992 14.4063 15.9509C14.6198 15.8583 14.5119 15.8664 14.3528 15.8641C14.2205 15.8629 13.9523 15.8664 14.0651 15.6743C14.1221 15.5783 14.1974 15.4711 14.2581 15.3739C14.9789 14.236 15.5747 13.0366 16.1294 11.8208C16.2094 11.6437 18.2397 6.63645 18.9751 4.97302C19.0565 4.78903 19.1414 4.58807 19.2312 4.40868C19.3368 4.19392 19.7482 3.34381 19.8998 3.06868C20.3901 2.17631 21.0734 1.12438 21.9422 0.520931C23.3474 -0.450215 24.7831 0.0741691 26.0536 0.969992C24.9264 0.369135 23.5051 0.0183958 22.5197 1.04647C22.112 1.47023 21.8657 2.05527 21.7345 2.60812C21.681 2.83207 21.8134 2.84012 21.6655 3.144C21.5999 3.27884 21.6048 3.3349 21.5901 3.48209C21.4701 4.7252 21.6531 6.0767 21.9348 7.29222C21.3608 6.90266 21.0222 6.53468 20.9192 6.18739C20.7298 7.85541 21.6194 8.85157 23.5853 9.175C20.8743 9.68328 19.0442 11.1777 18.0953 13.6567C20.5115 13.1688 23.0102 13.1688 25.4264 13.6567Z" fill="white"/>
<path fill-rule="evenodd" clip-rule="evenodd" d="M28.8146 21.9316C28.0853 22.3315 27.3303 23.3185 27.2771 25.2059C26.9664 25.3134 26.8208 25.5224 26.0259 24.5559C26.9604 25.9715 27.5778 26.4545 27.8825 26.0011C27.6954 23.9938 28.0062 22.6354 28.8143 21.9316H28.8146Z" fill="#6A3190"/>
<path fill-rule="evenodd" clip-rule="evenodd" d="M31.9675 23.925L31.7721 27.6311L30.9312 26.6933C31.317 27.3353 31.7212 28.0882 32.1349 28.696L31.9675 23.925Z" fill="#6A3190"/>
<path fill-rule="evenodd" clip-rule="evenodd" d="M29.6448 31.6526L31.8121 37.4151C31.8777 36.22 32.0305 34.4516 32.2744 32.1097C32.0549 33.2303 31.8377 34.3513 31.6179 35.4719L29.6448 31.6529V31.6526Z" fill="#6A3190"/>
<path fill-rule="evenodd" clip-rule="evenodd" d="M26.2444 31.0618C27.1884 34.2699 28.1228 37.4846 29.0743 40.6893L30.2746 38.6659C30.1169 38.8065 29.2383 39.5468 29.2006 39.5787C29.2006 39.5787 28.2114 37.1842 26.2444 31.0618Z" fill="#6A3190"/>
<path fill-rule="evenodd" clip-rule="evenodd" d="M29.8946 15.7612C26.5998 10.6179 22.6996 -0.34728 29.7479 5.88352C29.1022 3.50051 27.9543 2.52821 26.7117 1.48059C27.8438 2.69725 28.5841 3.62729 28.8706 4.57429C28.2141 3.94123 27.1219 3.4134 26.2603 3.47521C26.3584 3.10061 26.72 2.8594 26.9821 2.76568C25.0927 2.8548 24.6399 5.06647 25.8172 8.43788C24.9604 7.5044 24.4071 6.26617 23.9241 5.07567C24.1557 7.82438 27.8755 13.5685 29.8946 15.7609V15.7612Z" fill="#6A3190"/>
<path fill-rule="evenodd" clip-rule="evenodd" d="M26.3633 15.9897C33.8034 16.6362 39.3349 18.9097 39.3349 21.0061C39.3349 23.7022 34.4893 24.686 32.5778 25.4444C37.7024 24.5328 40.5726 23.2508 40.5726 21.0653C40.5726 18.8798 34.4769 16.4796 26.3633 15.9894V15.9897Z" fill="#6A3190"/>
<path fill-rule="evenodd" clip-rule="evenodd" d="M20.5941 25.039C21.2858 25.0083 20.9886 24.4873 21.1364 23.7732C20.9373 23.9699 19.7457 25.039 20.5941 25.039ZM21.9763 23.7479C21.3586 24.4048 21.6595 25.2239 22.6144 25.2469C23.4372 25.2664 24.5754 24.9246 24.9189 24.9545C25.0475 24.9672 25.1618 25.054 25.215 25.1808C25.2682 25.3076 25.2538 25.455 25.1773 25.568C25.5461 25.384 25.755 24.9568 25.6883 24.525C25.5669 23.7494 25.0427 23.9184 24.5245 23.4613C23.4033 22.3027 23.4493 19.7871 23.2868 19.1587C23.2445 19.3507 23.2151 19.6158 23.1849 19.924C23.0684 21.0811 22.9277 22.8578 21.9763 23.7476V23.7479Z" fill="white"/>
</g>
<path d="M53.6573 20.463L49.8538 7.806H52.9871L54.8889 14.46C54.9734 14.7613 55.0458 15.0687 55.1062 15.3821C55.1787 15.6835 55.233 15.9728 55.2692 16.25C55.3175 16.5273 55.3537 16.7864 55.3779 17.0275C55.402 17.2565 55.4262 17.4494 55.4503 17.6061H55.0519C55.1243 17.1601 55.1847 16.7623 55.233 16.4127C55.2934 16.0632 55.3598 15.7377 55.4322 15.4363C55.5047 15.1229 55.5952 14.7975 55.7039 14.46L57.5876 9.4514H60.0508L61.8982 14.46C62.0431 14.8577 62.1638 15.2314 62.2604 15.581C62.357 15.9306 62.4295 16.2681 62.4778 16.5936C62.5381 16.907 62.5864 17.2204 62.6227 17.5338L62.2604 17.588C62.2846 17.3711 62.3027 17.1722 62.3148 16.9913C62.3268 16.7985 62.3389 16.6177 62.351 16.4489C62.3751 16.2681 62.3993 16.0813 62.4234 15.8884C62.4476 15.6955 62.4838 15.4846 62.5321 15.2555C62.5804 15.0144 62.6468 14.7432 62.7313 14.4419L64.615 7.806H67.6759L63.8724 20.463H61.5178L58.5113 13.1762L58.8554 13.2123L56.0843 20.463H53.6573Z" fill="white"/>
<path d="M69.1097 20.463V17.8773H71.2469V10.3916H69.1097V7.806H76.4813V10.3916H74.3259V17.8773H76.4813V20.463H69.1097Z" fill="white"/>
<path d="M78.9026 20.463V18.4198L85.7127 9.37908L86.7813 10.6267H79.3735V7.806H88.9366V9.83111L82.1628 18.8899L81.076 17.7688H89.1358V20.463H78.9026Z" fill="white"/>
<path d="M90.1613 20.463L95.1783 7.806H97.7864L102.767 20.463H99.6519L97.2612 14.0441C97.1646 13.7909 97.068 13.5197 96.9714 13.2304C96.8748 12.9411 96.7782 12.6458 96.6816 12.3444C96.585 12.031 96.4884 11.7297 96.3918 11.4404C96.3073 11.139 96.2348 10.8618 96.1744 10.6086L96.7178 10.5905C96.6454 10.8919 96.5608 11.1872 96.4642 11.4765C96.3797 11.7658 96.2892 12.0551 96.1926 12.3444C96.108 12.6217 96.0114 12.905 95.9028 13.1943C95.7941 13.4715 95.6915 13.7608 95.5949 14.0622L93.2041 20.463H90.1613ZM92.5521 18.0401L93.512 15.7256H99.344L100.286 18.0401H92.5521Z" fill="white"/>
<path d="M104.349 20.463V7.806H110.054C110.863 7.806 111.594 7.98078 112.246 8.33036C112.91 8.67993 113.429 9.1621 113.803 9.77687C114.178 10.3796 114.365 11.0667 114.365 11.8381C114.365 12.6337 114.178 13.351 113.803 13.9898C113.429 14.6167 112.916 15.1109 112.264 15.4725C111.612 15.8341 110.875 16.015 110.054 16.015H107.283V20.463H104.349ZM111.376 20.463L108.153 14.7493L111.304 14.2972L114.89 20.463H111.376ZM107.283 13.6644H109.783C110.097 13.6644 110.368 13.5981 110.598 13.4655C110.839 13.3208 111.02 13.1219 111.141 12.8688C111.274 12.6156 111.34 12.3263 111.34 12.0009C111.34 11.6754 111.268 11.3921 111.123 11.1511C110.978 10.8979 110.767 10.705 110.489 10.5725C110.223 10.4399 109.897 10.3736 109.511 10.3736H107.283V13.6644Z" fill="white"/>
<path d="M117.066 20.463V7.806H122.373C123.303 7.806 124.154 7.9627 124.927 8.27611C125.7 8.57747 126.364 9.01142 126.919 9.57797C127.487 10.1445 127.921 10.8135 128.223 11.585C128.525 12.3565 128.676 13.2063 128.676 14.1345C128.676 15.0627 128.525 15.9185 128.223 16.702C127.921 17.4735 127.487 18.1425 126.919 18.7091C126.364 19.2636 125.7 19.6975 124.927 20.0109C124.154 20.3123 123.303 20.463 122.373 20.463H117.066ZM120.145 18.3655L119.729 17.7508H122.283C122.79 17.7508 123.242 17.6664 123.641 17.4976C124.039 17.3168 124.377 17.0697 124.655 16.7563C124.945 16.4429 125.168 16.0632 125.325 15.6172C125.482 15.1712 125.561 14.6769 125.561 14.1345C125.561 13.592 125.482 13.0978 125.325 12.6518C125.168 12.2058 124.945 11.8261 124.655 11.5127C124.377 11.1993 124.039 10.9582 123.641 10.7894C123.242 10.6086 122.79 10.5182 122.283 10.5182H119.674L120.145 9.9396V18.3655Z" fill="white"/>
<path d="M142.745 20.6438C141.731 20.6438 140.813 20.4811 139.992 20.1556C139.171 19.8301 138.464 19.3721 137.873 18.7814C137.281 18.1907 136.828 17.4976 136.514 16.702C136.2 15.8944 136.043 15.0205 136.043 14.0802C136.043 13.14 136.206 12.2781 136.532 11.4946C136.871 10.699 137.348 10.0059 137.963 9.41524C138.579 8.82458 139.304 8.36652 140.137 8.04105C140.982 7.71559 141.9 7.55286 142.89 7.55286C143.59 7.55286 144.248 7.64326 144.864 7.82408C145.492 8.00489 146.059 8.252 146.566 8.56541C147.074 8.87883 147.502 9.24045 147.852 9.6503L145.987 11.6212C145.685 11.3319 145.371 11.0908 145.045 10.8979C144.731 10.705 144.393 10.5544 144.031 10.4459C143.669 10.3253 143.282 10.2651 142.872 10.2651C142.34 10.2651 141.851 10.3615 141.405 10.5544C140.97 10.7472 140.584 11.0185 140.245 11.368C139.919 11.7056 139.666 12.1094 139.485 12.5795C139.304 13.0375 139.213 13.5378 139.213 14.0802C139.213 14.6227 139.31 15.129 139.503 15.5991C139.696 16.0692 139.962 16.479 140.3 16.8286C140.638 17.1661 141.036 17.4374 141.495 17.6423C141.966 17.8351 142.467 17.9316 142.998 17.9316C143.373 17.9316 143.723 17.8713 144.049 17.7508C144.387 17.6302 144.677 17.4675 144.918 17.2626C145.16 17.0576 145.353 16.8166 145.498 16.5393C145.643 16.25 145.715 15.9426 145.715 15.6172V15.147L146.114 15.7618H142.618V13.357H148.577C148.601 13.4896 148.619 13.6704 148.631 13.8994C148.643 14.1285 148.649 14.3515 148.649 14.5684C148.661 14.7854 148.667 14.9481 148.667 15.0566C148.667 15.8763 148.517 16.6297 148.215 17.3168C147.925 17.9919 147.514 18.5765 146.983 19.0707C146.452 19.5649 145.824 19.9507 145.099 20.2279C144.375 20.5052 143.59 20.6438 142.745 20.6438Z" fill="white"/>
<path d="M149.237 20.463L154.254 7.806H156.862L161.843 20.463H158.728L156.337 14.0441C156.241 13.7909 156.144 13.5197 156.047 13.2304C155.951 12.9411 155.854 12.6458 155.758 12.3444C155.661 12.031 155.564 11.7297 155.468 11.4404C155.383 11.139 155.311 10.8618 155.25 10.6086L155.794 10.5905C155.721 10.8919 155.637 11.1872 155.54 11.4765C155.456 11.7658 155.365 12.0551 155.269 12.3444C155.184 12.6217 155.087 12.905 154.979 13.1943C154.87 13.4715 154.767 13.7608 154.671 14.0622L152.28 20.463H149.237ZM151.628 18.0401L152.588 15.7256H158.42L159.362 18.0401H151.628Z" fill="white"/>
<path d="M163.425 20.463V7.806H166.504V17.7508H172.155V20.463H163.425Z" fill="white"/>
<path d="M174.462 20.463V7.806H177.541V17.7508H183.192V20.463H174.462Z" fill="white"/>
<path d="M185.499 20.463V7.806H194.338V10.4278H188.487V17.8412H194.519V20.463H185.499ZM186.948 15.2736V12.7784H193.523V15.2736H186.948Z" fill="white"/>
<path d="M197.173 20.463V7.806H202.878C203.687 7.806 204.417 7.98078 205.069 8.33036C205.734 8.67993 206.253 9.1621 206.627 9.77687C207.001 10.3796 207.189 11.0667 207.189 11.8381C207.189 12.6337 207.001 13.351 206.627 13.9898C206.253 14.6167 205.74 15.1109 205.088 15.4725C204.436 15.8341 203.699 16.015 202.878 16.015H200.107V20.463H197.173ZM204.2 20.463L200.976 14.7493L204.128 14.2972L207.714 20.463H204.2ZM200.107 13.6644H202.606C202.92 13.6644 203.192 13.5981 203.421 13.4655C203.663 13.3208 203.844 13.1219 203.965 12.8688C204.097 12.6156 204.164 12.3263 204.164 12.0009C204.164 11.6754 204.091 11.3921 203.947 11.1511C203.802 10.8979 203.59 10.705 203.313 10.5725C203.047 10.4399 202.721 10.3736 202.335 10.3736H200.107V13.6644Z" fill="white"/>
<path d="M212.266 20.463V14.1526L212.393 15.0386L207.267 7.806H210.763L214.675 13.4112L213.081 13.357L216.613 7.806H220L215.092 15.2375L215.363 14.0079V20.463H212.266Z" fill="white"/>
<path d="M55.5852 37.3038V28.2743H56.8385L62.3687 35.6656L62.162 35.7816C62.1275 35.5667 62.0974 35.3345 62.0716 35.0851C62.0457 34.8271 62.0199 34.5562 61.994 34.2724C61.9768 33.9801 61.9596 33.6748 61.9423 33.3566C61.9337 33.0298 61.9251 32.6901 61.9165 32.3376C61.9079 31.985 61.9036 31.6195 61.9036 31.2411V28.2743H63.299V37.3038H62.0199L56.5801 30.1834L56.7223 30.0028C56.7653 30.5274 56.7998 30.9745 56.8256 31.3443C56.8601 31.7055 56.8859 32.0151 56.9031 32.2731C56.929 32.5224 56.9462 32.7288 56.9548 32.8922C56.9634 33.047 56.9678 33.176 56.9678 33.2792C56.9764 33.3824 56.9807 33.4727 56.9807 33.5501V37.3038H55.5852Z" fill="#6A3190"/>
<path d="M68.4154 37.3038V28.2743H69.8108V37.3038H68.4154ZM69.0356 33.4598V32.1183H73.7001V33.4598H69.0356ZM69.0356 29.6158V28.2743H74.2815V29.6158H69.0356Z" fill="#6A3190"/>
<path d="M80.6801 37.3038V29.6158H78.1476V28.2743H84.6856V29.6158H82.0756V37.3038H80.6801Z" fill="#6A3190"/>
<path d="M95.1962 37.3038V28.2743H96.5658L99.8607 33.6275L99.2017 33.6146L102.535 28.2743H103.827V37.3038H102.432V33.6017C102.432 32.8277 102.449 32.1312 102.484 31.512C102.527 30.8928 102.596 30.278 102.69 29.6674L102.871 30.1447L99.9123 34.711H99.0596L96.1911 30.1963L96.3332 29.6674C96.428 30.2436 96.4926 30.8369 96.527 31.4475C96.5701 32.0495 96.5916 32.7675 96.5916 33.6017V37.3038H95.1962Z" fill="#6A3190"/>
<path d="M108.004 37.3038L111.506 28.2743H112.927L116.403 37.3038H114.917L112.85 31.8603C112.824 31.8001 112.772 31.6539 112.695 31.4217C112.626 31.1895 112.544 30.9315 112.449 30.6478C112.354 30.364 112.268 30.106 112.191 29.8738C112.113 29.633 112.061 29.4782 112.036 29.4094L112.333 29.3965C112.281 29.5427 112.216 29.7276 112.139 29.9512C112.07 30.1748 111.993 30.4113 111.906 30.6607C111.829 30.91 111.751 31.1465 111.674 31.3701C111.596 31.5851 111.532 31.7657 111.48 31.9119L109.426 37.3038H108.004ZM109.555 35.0593L110.072 33.7178H114.18L114.775 35.0593H109.555Z" fill="#6A3190"/>
<path d="M120.579 37.3038V28.2743H124.429C124.946 28.2743 125.42 28.4033 125.851 28.6613C126.29 28.9107 126.639 29.2546 126.897 29.6932C127.156 30.1232 127.285 30.6091 127.285 31.1508C127.285 31.641 127.156 32.0968 126.897 32.5181C126.639 32.9395 126.294 33.2792 125.864 33.5372C125.433 33.7866 124.955 33.9113 124.429 33.9113H121.974V37.3038H120.579ZM125.954 37.3038L123.654 33.2276L125.088 32.9051L127.647 37.3167L125.954 37.3038ZM121.974 32.5697H124.559C124.808 32.5697 125.032 32.5095 125.23 32.3892C125.429 32.2602 125.584 32.0882 125.696 31.8732C125.808 31.6496 125.864 31.4045 125.864 31.1379C125.864 30.8369 125.79 30.5747 125.644 30.3511C125.506 30.1189 125.308 29.9383 125.05 29.8093C124.8 29.6803 124.515 29.6158 124.197 29.6158H121.974V32.5697Z" fill="#6A3190"/>
<path d="M133.31 34.5691L133.233 33.0083L137.975 28.2743H139.809L133.31 34.5691ZM132.147 37.3038V28.2743H133.543V37.3038H132.147ZM138.143 37.3038L134.68 32.6858L135.713 31.7958L139.887 37.3038H138.143Z" fill="#6A3190"/>
<path d="M144.195 37.3038V28.2743H149.893V29.6158H145.591V35.9622H149.893V37.3038H144.195ZM144.828 33.3437V32.0022H149.183V33.3437H144.828Z" fill="#6A3190"/>
<path d="M156.435 37.3038V29.6158H153.902V28.2743H160.44V29.6158H157.83V37.3038H156.435Z" fill="#6A3190"/>
<path d="M164.745 37.3038V28.2743H168.427C168.918 28.2743 169.362 28.399 169.758 28.6484C170.163 28.8892 170.486 29.2202 170.727 29.6416C170.969 30.063 171.089 30.5317 171.089 31.0476C171.089 31.5636 170.969 32.0323 170.727 32.4536C170.486 32.875 170.163 33.2147 169.758 33.4727C169.362 33.7221 168.918 33.8468 168.427 33.8468H166.14V37.3038H164.745ZM166.14 32.5052H168.402C168.634 32.5052 168.845 32.4407 169.035 32.3118C169.224 32.1742 169.375 31.9979 169.487 31.7829C169.608 31.5593 169.668 31.3142 169.668 31.0476C169.668 30.781 169.608 30.5403 169.487 30.3253C169.375 30.1103 169.224 29.9383 169.035 29.8093C168.845 29.6803 168.634 29.6158 168.402 29.6158H166.14V32.5052Z" fill="#6A3190"/>
<path d="M175.518 37.3038V28.2743H176.914V35.9622H181.152V37.3038H175.518Z" fill="#6A3190"/>
<path d="M184.894 37.3038L188.396 28.2743H189.817L193.293 37.3038H191.807L189.74 31.8603C189.714 31.8001 189.662 31.6539 189.585 31.4217C189.516 31.1895 189.434 30.9315 189.339 30.6478C189.244 30.364 189.158 30.106 189.081 29.8738C189.003 29.633 188.952 29.4782 188.926 29.4094L189.223 29.3965C189.171 29.5427 189.107 29.7276 189.029 29.9512C188.96 30.1748 188.883 30.4113 188.796 30.6607C188.719 30.91 188.641 31.1465 188.564 31.3701C188.486 31.5851 188.422 31.7657 188.37 31.9119L186.316 37.3038H184.894ZM186.445 35.0593L186.962 33.7178H191.071L191.665 35.0593H186.445Z" fill="#6A3190"/>
<path d="M200.886 37.4328C200.257 37.4328 199.68 37.321 199.155 37.0974C198.629 36.8738 198.173 36.5556 197.785 36.1428C197.398 35.7215 197.096 35.227 196.881 34.6594C196.674 34.0918 196.571 33.4684 196.571 32.789C196.571 32.1441 196.683 31.5464 196.907 30.996C197.139 30.4371 197.458 29.9469 197.863 29.5255C198.268 29.1041 198.737 28.7774 199.271 28.5452C199.805 28.313 200.382 28.1969 201.002 28.1969C201.442 28.1969 201.868 28.2657 202.282 28.4033C202.704 28.5323 203.083 28.7172 203.419 28.958C203.763 29.1901 204.043 29.4567 204.259 29.7577L203.328 30.7251C203.078 30.4758 202.824 30.2694 202.566 30.106C202.316 29.934 202.058 29.805 201.791 29.719C201.532 29.633 201.27 29.59 201.002 29.59C200.58 29.59 200.184 29.6717 199.814 29.8351C199.452 29.9899 199.133 30.2092 198.858 30.493C198.591 30.7767 198.38 31.1164 198.224 31.512C198.069 31.899 197.992 32.3247 197.992 32.789C197.992 33.2792 198.065 33.7264 198.212 34.1305C198.367 34.5261 198.582 34.8658 198.858 35.1496C199.133 35.4334 199.461 35.6527 199.84 35.8074C200.227 35.9536 200.654 36.0267 201.119 36.0267C201.403 36.0267 201.683 35.988 201.959 35.9106C202.234 35.8332 202.493 35.7215 202.734 35.5753C202.975 35.4291 203.195 35.2571 203.393 35.0593L204.091 36.1944C203.892 36.4266 203.621 36.6373 203.277 36.8265C202.941 37.0157 202.562 37.1662 202.14 37.278C201.726 37.3812 201.308 37.4328 200.886 37.4328Z" fill="#6A3190"/>
<path d="M208.57 37.3038V28.2743H214.269V29.6158H209.966V35.9622H214.269V37.3038H208.57ZM209.204 33.3437V32.0022H213.558V33.3437H209.204Z" fill="#6A3190"/>
<defs>
<clipPath id="clip0_244_5129">
<rect width="36.3018" height="44.7679" fill="white" transform="translate(4.27075)"/>
</clipPath>
</defs>
</svg>
