<svg width="30" height="30" viewBox="0 0 30 30" fill="none" xmlns="http://www.w3.org/2000/svg">
<g clip-path="url(#clip0_105_3423)">
<path d="M7.44996 16.2256L2.61246 24.9131C2.44996 25.2131 2.46246 25.5881 2.64996 25.8756C2.83746 26.1631 3.16246 26.3381 3.51246 26.3006L7.36246 26.0131L9.06246 29.4756C9.22496 29.7881 9.53746 29.9881 9.87496 30.0006H9.89996C10.2375 30.0006 10.5625 29.8131 10.725 29.5256L13.875 23.9256L10.8125 18.5131C9.54996 17.9756 8.41246 17.1881 7.44996 16.2256Z" fill="#3568C1"/>
<path d="M27.375 24.9129L22.5 16.2754C20.9125 17.8629 18.825 18.9379 16.5 19.2629C16.0125 19.3379 15.5125 19.3754 15 19.3754C14.45 19.3754 13.9125 19.3379 13.3875 19.2504L14.95 22.0129L19.1875 29.5254C19.35 29.8129 19.6625 30.0004 20 30.0004H20.025C20.375 29.9879 20.6875 29.7879 20.85 29.4754L22.5625 26.0129L26.4875 26.3129C26.8375 26.3379 27.1625 26.1754 27.35 25.8754C27.5375 25.5879 27.55 25.2129 27.375 24.9129Z" fill="#3568C1"/>
<path d="M14.9998 0C10.1748 0 6.24985 3.925 6.24985 8.75C6.24985 13.575 10.1748 17.5 14.9998 17.5C19.8248 17.5 23.7498 13.575 23.7498 8.75C23.7498 3.925 19.8248 0 14.9998 0ZM16.2498 12.8125C16.2498 13.33 15.8298 13.75 15.3123 13.75C14.7948 13.75 14.3748 13.33 14.3748 12.8125V6.8225C14.0098 6.6925 13.7498 6.34625 13.7498 5.9375C13.7498 5.42 14.1698 5 14.6873 5H15.3123C15.8298 5 16.2498 5.42 16.2498 5.9375V12.8125Z" fill="#FFC107"/>
</g>
<defs>
<clipPath id="clip0_105_3423">
<rect width="30" height="30" fill="white"/>
</clipPath>
</defs>
</svg>
