<svg width="30" height="30" viewBox="0 0 30 30" fill="none" xmlns="http://www.w3.org/2000/svg">
<g clip-path="url(#clip0_105_3474)">
<path d="M14.9999 0C10.1749 0 6.2499 3.925 6.2499 8.75C6.2499 13.575 10.1749 17.5 14.9999 17.5C19.8249 17.5 23.7499 13.575 23.7499 8.75C23.7499 3.925 19.8249 0 14.9999 0ZM16.5624 11.875C17.0799 11.875 17.4999 12.295 17.4999 12.8125C17.4999 13.33 17.0799 13.75 16.5624 13.75H13.4374C12.9199 13.75 12.4999 13.33 12.4999 12.8125V11.0938C12.4999 9.62875 13.6212 8.4375 14.9999 8.4375C15.3387 8.4375 15.6249 8.08 15.6249 7.65625C15.6249 7.2325 15.3387 6.875 14.9999 6.875H13.4374C12.9199 6.875 12.4999 6.455 12.4999 5.9375C12.4999 5.42 12.9199 5 13.4374 5H14.9999C16.3787 5 17.4999 6.19125 17.4999 7.65625C17.4999 9.12125 16.3787 10.3125 14.9999 10.3125C14.6612 10.3125 14.3749 10.67 14.3749 11.0938V11.875H16.5624Z" fill="#D6DADE"/>
<path d="M7.44995 16.2256L2.61245 24.9131C2.44995 25.2131 2.46245 25.5881 2.64995 25.8756C2.83745 26.1631 3.16245 26.3381 3.51245 26.3006L7.36245 26.0131L9.06245 29.4756C9.22495 29.7881 9.53745 29.9881 9.87495 30.0006H9.89995C10.2375 30.0006 10.5625 29.8131 10.725 29.5256L13.875 23.9256L10.8125 18.5131C9.54995 17.9756 8.41245 17.1881 7.44995 16.2256Z" fill="#3568C1"/>
<path d="M27.375 24.9129L22.5 16.2754C20.9125 17.8629 18.825 18.9379 16.5 19.2629C16.0125 19.3379 15.5125 19.3754 15 19.3754C14.45 19.3754 13.9125 19.3379 13.3875 19.2504L14.95 22.0129L19.1875 29.5254C19.35 29.8129 19.6625 30.0004 20 30.0004H20.025C20.375 29.9879 20.6875 29.7879 20.85 29.4754L22.5625 26.0129L26.4875 26.3129C26.8375 26.3379 27.1625 26.1754 27.35 25.8754C27.5375 25.5879 27.55 25.2129 27.375 24.9129Z" fill="#3568C1"/>
</g>
<defs>
<clipPath id="clip0_105_3474">
<rect width="30" height="30" fill="white"/>
</clipPath>
</defs>
</svg>
