<svg width="17" height="22" viewBox="0 0 17 22" fill="none" xmlns="http://www.w3.org/2000/svg">
<g clip-path="url(#clip0_1302_527)">
<path d="M0.643337 0.95617L2.9922 5.86902C4.46024 4.62248 6.36869 3.81589 8.27714 3.66924L6.7357 0.442887C6.66229 0.149582 6.44209 0.00292969 6.14848 0.00292969H1.08375C0.936945 0.00292969 0.790142 0.0762556 0.643337 0.149582C0.569937 0.296234 0.496534 0.442887 0.496534 0.589539C0.496534 0.736191 0.569937 0.882844 0.643337 0.95617ZM0.496534 13.7882C0.496534 18.3345 4.16663 22.0008 8.71755 22.0008C13.2685 22.0008 16.9386 18.3345 16.9386 13.7882C16.9386 9.24203 13.2685 5.57572 8.71755 5.57572C4.16663 5.50239 0.496534 9.24203 0.496534 13.7882ZM4.90065 11.5151L7.10271 11.1485L8.05693 9.02205C8.42394 8.28879 8.93775 8.28879 9.23136 9.02205L10.1856 11.1485L12.3876 11.5151C13.1217 11.6618 13.2685 12.1751 12.7547 12.7617L11.1398 14.3749L11.5068 16.7213C11.6536 17.5279 11.2132 17.8212 10.5526 17.4546L8.57074 16.3547L6.58889 17.4546C5.92828 17.8212 5.48786 17.4546 5.63467 16.7213L6.00168 14.3749L4.31343 12.7617C3.94642 12.1751 4.16663 11.5885 4.90065 11.5151ZM16.8652 0.95617C16.9386 0.882844 17.012 0.736191 17.012 0.589539C17.012 0.442887 16.9386 0.296234 16.8652 0.149582C16.7918 0.0029294 16.5716 0.00292969 16.4247 0.00292969H11.36C11.0664 0.00292969 10.8462 0.222908 10.7728 0.442887L9.23136 3.66924C11.2132 3.81589 13.0483 4.62248 14.5163 5.86902L16.8652 0.95617Z" fill="url(#paint0_linear_1302_527)"/>
</g>
<defs>
<linearGradient id="paint0_linear_1302_527" x1="8.75425" y1="0.00292969" x2="8.75425" y2="22.0008" gradientUnits="userSpaceOnUse">
<stop stop-color="#133572"/>
<stop offset="1" stop-color="#3568C1"/>
</linearGradient>
<clipPath id="clip0_1302_527">
<rect width="17" height="22" fill="white" transform="matrix(-1 0 0 1 17 0)"/>
</clipPath>
</defs>
</svg>
