<svg width="38" height="38" viewBox="0 0 38 38" fill="none" xmlns="http://www.w3.org/2000/svg">
<path d="M20.6628 25.7292H17.6862C15.5803 25.7292 13.8545 23.9558 13.8545 21.7708C13.8545 21.1217 14.3928 20.5833 15.042 20.5833C15.6912 20.5833 16.2295 21.1217 16.2295 21.7708C16.2295 22.6417 16.8787 23.3542 17.6862 23.3542H20.6628C21.2803 23.3542 21.7712 22.8 21.7712 22.1192C21.7712 21.2642 21.5337 21.1375 20.9953 20.9475L16.2295 19.285C15.2162 18.9367 13.8545 18.1925 13.8545 15.865C13.8545 13.8858 15.422 12.255 17.3378 12.255H20.3145C22.4203 12.255 24.1462 14.0283 24.1462 16.2133C24.1462 16.8625 23.6078 17.4008 22.9587 17.4008C22.3095 17.4008 21.7712 16.8625 21.7712 16.2133C21.7712 15.3425 21.122 14.63 20.3145 14.63H17.3378C16.7203 14.63 16.2295 15.1842 16.2295 15.865C16.2295 16.72 16.467 16.8467 17.0053 17.0367L21.7712 18.6992C22.7845 19.0475 24.1462 19.7917 24.1462 22.1192C24.1462 24.1142 22.5786 25.7292 20.6628 25.7292Z" fill="#862FC0"/>
<path d="M19 27.3125C18.3508 27.3125 17.8125 26.7742 17.8125 26.125V11.875C17.8125 11.2258 18.3508 10.6875 19 10.6875C19.6492 10.6875 20.1875 11.2258 20.1875 11.875V26.125C20.1875 26.7742 19.6492 27.3125 19 27.3125Z" fill="#862FC0"/>
<path d="M19.0003 36.0208C9.61116 36.0208 1.97949 28.3891 1.97949 19C1.97949 9.61079 9.61116 1.97913 19.0003 1.97913C19.6495 1.97913 20.1878 2.51746 20.1878 3.16663C20.1878 3.81579 19.6495 4.35413 19.0003 4.35413C10.9253 4.35413 4.35449 10.925 4.35449 19C4.35449 27.075 10.9253 33.6458 19.0003 33.6458C27.0753 33.6458 33.6462 27.075 33.6462 19C33.6462 18.3508 34.1845 17.8125 34.8337 17.8125C35.4828 17.8125 36.0212 18.3508 36.0212 19C36.0212 28.3891 28.3895 36.0208 19.0003 36.0208Z" fill="#862FC0"/>
<path d="M33.2503 12.2708H26.917C26.2678 12.2708 25.7295 11.7325 25.7295 11.0833V4.75C25.7295 4.10083 26.2678 3.5625 26.917 3.5625C27.5662 3.5625 28.1045 4.10083 28.1045 4.75V9.89583H33.2503C33.8995 9.89583 34.4378 10.4342 34.4378 11.0833C34.4378 11.7325 33.8995 12.2708 33.2503 12.2708Z" fill="#862FC0"/>
<path d="M26.9169 12.2709C26.6161 12.2709 26.3153 12.16 26.0778 11.9225C25.6186 11.4634 25.6186 10.7034 26.0778 10.2442L33.9944 2.32753C34.4536 1.86836 35.2136 1.86836 35.6728 2.32753C36.1319 2.7867 36.1319 3.54669 35.6728 4.00586L27.7561 11.9225C27.5186 12.16 27.2178 12.2709 26.9169 12.2709Z" fill="#862FC0"/>
</svg>
