<svg width="105" height="67" viewBox="0 0 105 67" fill="none" xmlns="http://www.w3.org/2000/svg">
<path opacity="0.5" d="M91.8559 24.776C98.1635 25.3843 104 15.2683 104 15.2683V66.3862H1V3.38366C1 3.38366 5.20256 18.6487 12.6943 17.249C17.954 16.2664 16.2004 6.0913 21.2402 7.74135C24.7752 8.89874 22.5724 13.4628 25.738 15.2683C32.2 18.954 29.2952 1.37309 36.9825 1.00674C44.9817 0.625521 41.6996 16.5538 49.5764 15.2683C55.2154 14.348 53.3722 6.23246 59.0218 5.36443C65.021 4.44269 68.772 8.37974 72.0655 12.8914C73.6002 14.9937 72.2307 17.7077 74.7642 18.8337C78.3195 20.4137 78.4665 13.3769 82.4105 12.8914C88.7808 12.1071 85.4618 24.1593 91.8559 24.776Z" fill="url(#paint0_linear_254_786)"/>
<path d="M104 15.2683C104 15.2683 98.1635 25.3843 91.8559 24.776C85.4619 24.1593 88.7808 12.1071 82.4105 12.8914C78.4665 13.3769 78.3195 20.4137 74.7642 18.8337C72.2307 17.7077 73.6002 14.9937 72.0655 12.8914C68.772 8.37974 65.021 4.44269 59.0218 5.36443C53.3722 6.23246 55.2154 14.348 49.5764 15.2683C41.6996 16.5538 44.9817 0.625521 36.9825 1.00674C29.2952 1.37309 32.2 18.954 25.738 15.2683C22.5724 13.4627 24.7752 8.89874 21.2402 7.74135C16.2004 6.0913 17.954 16.2664 12.6943 17.249C5.20256 18.6487 1 3.38366 1 3.38366" stroke="#E84A4A" stroke-width="1.5" stroke-linecap="round"/>
<defs>
<linearGradient id="paint0_linear_254_786" x1="52.5" y1="4.16923" x2="52.5" y2="72.8016" gradientUnits="userSpaceOnUse">
<stop stop-color="#E84A4A" stop-opacity="0.33"/>
<stop offset="1" stop-color="#E84A4A" stop-opacity="0"/>
</linearGradient>
</defs>
</svg>
