<svg width="39" height="38" viewBox="0 0 39 38" fill="none" xmlns="http://www.w3.org/2000/svg">
<rect x="0.75" width="38" height="38" rx="19" fill="#FEEDE8"/>
<path d="M16.5013 8.1665C13.663 8.1665 11.3555 10.474 11.3555 13.3123C11.3555 16.0965 13.533 18.3498 16.3713 18.4473C16.458 18.4365 16.5446 18.4365 16.6096 18.4473C16.6313 18.4473 16.6421 18.4473 16.6638 18.4473C16.6746 18.4473 16.6746 18.4473 16.6855 18.4473C19.4588 18.3498 21.6363 16.0965 21.6471 13.3123C21.6471 10.474 19.3396 8.1665 16.5013 8.1665Z" fill="#F04914"/>
<path d="M22.005 21.3291C18.9825 19.3141 14.0533 19.3141 11.0092 21.3291C9.63333 22.25 8.875 23.4958 8.875 24.8283C8.875 26.1608 9.63333 27.3958 10.9983 28.3058C12.515 29.3241 14.5083 29.8333 16.5017 29.8333C18.495 29.8333 20.4883 29.3241 22.005 28.3058C23.37 27.385 24.1283 26.15 24.1283 24.8066C24.1175 23.4741 23.37 22.2391 22.005 21.3291Z" fill="#F04914"/>
<path d="M28.4052 13.9516C28.5785 16.0533 27.0835 17.8949 25.0143 18.1441C25.0035 18.1441 25.0035 18.1441 24.9927 18.1441H24.9602C24.8952 18.1441 24.8302 18.1441 24.776 18.1658C23.7252 18.2199 22.761 17.8841 22.0352 17.2666C23.151 16.2699 23.7902 14.7749 23.6602 13.1499C23.5843 12.2724 23.281 11.4708 22.826 10.7883C23.2377 10.5824 23.7143 10.4524 24.2018 10.4091C26.3252 10.2249 28.221 11.8066 28.4052 13.9516Z" fill="#F04914"/>
<path d="M30.5729 23.9723C30.4862 25.0231 29.8146 25.9331 28.6879 26.5506C27.6046 27.1464 26.2396 27.4281 24.8854 27.3956C25.6654 26.6914 26.1204 25.8139 26.2071 24.8823C26.3154 23.5389 25.6763 22.2498 24.3979 21.2206C23.6721 20.6464 22.8271 20.1914 21.9062 19.8556C24.3004 19.1623 27.3121 19.6281 29.1646 21.1231C30.1613 21.9248 30.6704 22.9323 30.5729 23.9723Z" fill="#F04914"/>
</svg>
