<svg width="38" height="38" viewBox="0 0 38 38" fill="none" xmlns="http://www.w3.org/2000/svg">
<rect width="38" height="38" rx="19" fill="#FFF5E6"/>
<path d="M24.9892 14.4173C24.9133 14.4065 24.8375 14.4065 24.7617 14.4173C23.0825 14.3632 21.75 12.9873 21.75 11.2973C21.75 9.57484 23.1475 8.1665 24.8808 8.1665C26.6033 8.1665 28.0117 9.564 28.0117 11.2973C28.0008 12.9873 26.6683 14.3632 24.9892 14.4173Z" fill="#FF9900"/>
<path d="M28.5235 21.9249C27.3102 22.7374 25.6094 23.0408 24.0385 22.8349C24.4502 21.9466 24.6669 20.9608 24.6777 19.9208C24.6777 18.8374 24.4394 17.8083 23.9844 16.9091C25.5877 16.6924 27.2885 16.9958 28.5127 17.8083C30.2244 18.9349 30.2244 20.7874 28.5235 21.9249Z" fill="#FF9900"/>
<path d="M12.9765 14.4173C13.0523 14.4065 13.1282 14.4065 13.204 14.4173C14.8832 14.3632 16.2157 12.9873 16.2157 11.2973C16.2157 9.564 14.8182 8.1665 13.0848 8.1665C11.3623 8.1665 9.96484 9.564 9.96484 11.2973C9.96484 12.9873 11.2973 14.3632 12.9765 14.4173Z" fill="#FF9900"/>
<path d="M13.0947 19.921C13.0947 20.9718 13.3222 21.9685 13.7339 22.8677C12.2064 23.0302 10.6139 22.7052 9.44391 21.936C7.73224 20.7985 7.73224 18.946 9.44391 17.8085C10.6031 17.0285 12.2389 16.7143 13.7772 16.8877C13.3331 17.7977 13.0947 18.8268 13.0947 19.921Z" fill="#FF9900"/>
<path d="M19.1292 23.1925C19.0426 23.1817 18.9451 23.1817 18.8476 23.1925C16.8542 23.1275 15.2617 21.4917 15.2617 19.4767C15.2726 17.4183 16.9301 15.75 18.9992 15.75C21.0576 15.75 22.7259 17.4183 22.7259 19.4767C22.7151 21.4917 21.1334 23.1275 19.1292 23.1925Z" fill="#FF9900"/>
<path d="M15.6097 25.4349C13.9739 26.529 13.9739 28.3274 15.6097 29.4107C17.473 30.6565 20.528 30.6565 22.3914 29.4107C24.0272 28.3165 24.0272 26.5182 22.3914 25.4349C20.5389 24.189 17.4839 24.189 15.6097 25.4349Z" fill="#FF9900"/>
</svg>
