<svg width="22" height="22" viewBox="0 0 22 22" fill="none" xmlns="http://www.w3.org/2000/svg">
<g clip-path="url(#clip0_595_533)">
<path fill-rule="evenodd" clip-rule="evenodd" d="M5 16V12C5 11.7348 5.10533 11.4804 5.29293 11.2929L16.2929 0.292933C16.4804 0.1054 16.7348 0 17 0C17.2652 0 17.5196 0.1054 17.707 0.292867L21.707 4.29287C22.0975 4.6834 22.0975 5.31653 21.707 5.70707L10.7071 16.7071C10.5195 16.8946 10.2652 17 10 17H6C5.44773 17 5 16.5523 5 16ZM9.17199 10.2422L7 12.4142V15H9.5858L11.7578 12.828L11.7929 12.7929L9.2071 10.2071L9.17199 10.2422Z" fill="#D6D6D6"/>
<path d="M21 10.0001C20.4477 10.0001 20 10.4478 20 11.0001V20H2V2H11C11.5523 2 12 1.55227 12 1C12 0.447733 11.5523 0 11 0H1C0.447733 0 0 0.447733 0 1V21C0 21.5523 0.447733 22 1 22H21C21.5523 22 22 21.5523 22 21V11.0001C22 10.4477 21.5523 10.0001 21 10.0001Z" fill="#D6D6D6"/>
</g>
<defs>
<clipPath id="clip0_595_533">
<rect width="22" height="22" fill="white"/>
</clipPath>
</defs>
</svg>
