<svg width="252" height="42" viewBox="0 0 252 42" fill="none" xmlns="http://www.w3.org/2000/svg">
<rect x="0.5" y="0.5" width="251" height="41" rx="4.5" stroke="#F5F6FD"/>
<rect width="42" height="42" rx="5" fill="#3654D6"/>
<path d="M14.13 17.25V15.794H17.042V26H15.432V17.25H14.13ZM22.6225 16.27C23.6585 16.27 24.5639 16.4707 25.3385 16.872C26.1225 17.264 26.7245 17.8333 27.1445 18.58C27.5739 19.3173 27.7885 20.1807 27.7885 21.17C27.7885 22.1593 27.5739 23.018 27.1445 23.746C26.7245 24.474 26.1225 25.034 25.3385 25.426C24.5639 25.8087 23.6585 26 22.6225 26H19.4445V16.27H22.6225ZM22.6225 24.698C23.7612 24.698 24.6339 24.39 25.2405 23.774C25.8472 23.158 26.1505 22.29 26.1505 21.17C26.1505 20.0407 25.8472 19.1587 25.2405 18.524C24.6339 17.8893 23.7612 17.572 22.6225 17.572H21.0405V24.698H22.6225Z" fill="white"/>
<path d="M61.308 17.026L57.416 26H55.806L59.74 17.194H54.56V15.836H61.308V17.026ZM66.062 16.27C67.098 16.27 68.0033 16.4707 68.778 16.872C69.562 17.264 70.164 17.8333 70.584 18.58C71.0133 19.3173 71.228 20.1807 71.228 21.17C71.228 22.1593 71.0133 23.018 70.584 23.746C70.164 24.474 69.562 25.034 68.778 25.426C68.0033 25.8087 67.098 26 66.062 26H62.884V16.27H66.062ZM66.062 24.698C67.2007 24.698 68.0733 24.39 68.68 23.774C69.2867 23.158 69.59 22.29 69.59 21.17C69.59 20.0407 69.2867 19.1587 68.68 18.524C68.0733 17.8893 67.2007 17.572 66.062 17.572H64.48V24.698H66.062Z" fill="#A2A4A6"/>
<path d="M96.63 17.25V15.794H99.542V26H97.932V17.25H96.63ZM112.193 16.27V26H110.597V19.336L107.629 26H106.523L103.541 19.336V26H101.945V16.27H103.667L107.083 23.9L110.485 16.27H112.193Z" fill="#A2A4A6"/>
<path d="M140.63 17.25V15.794H143.542V26H141.932V17.25H140.63ZM153.155 16.27L149.935 22.472V26H148.339V22.472L145.105 16.27H146.883L149.137 21.044L151.391 16.27H153.155Z" fill="#A2A4A6"/>
<path d="M186.916 24.012H182.842L182.142 26H180.476L183.962 16.256H185.81L189.296 26H187.616L186.916 24.012ZM186.468 22.71L184.886 18.188L183.29 22.71H186.468ZM192.408 15.64V26H190.812V15.64H192.408ZM196.099 15.64V26H194.503V15.64H196.099Z" fill="#A2A4A6"/>
<rect width="42" height="42" transform="translate(210)" fill="#F5F6FD"/>
<path d="M235.75 12.56V11C235.75 10.59 235.41 10.25 235 10.25C234.59 10.25 234.25 10.59 234.25 11V12.5H227.75V11C227.75 10.59 227.41 10.25 227 10.25C226.59 10.25 226.25 10.59 226.25 11V12.56C223.55 12.81 222.24 14.42 222.04 16.81C222.02 17.1 222.26 17.34 222.54 17.34H239.46C239.75 17.34 239.99 17.09 239.96 16.81C239.76 14.42 238.45 12.81 235.75 12.56Z" fill="#3654D6"/>
<path d="M239 18.8398H223C222.45 18.8398 222 19.2898 222 19.8398V25.9998C222 28.9998 223.5 30.9998 227 30.9998H235C238.5 30.9998 240 28.9998 240 25.9998V19.8398C240 19.2898 239.55 18.8398 239 18.8398ZM228.21 27.2098C228.16 27.2498 228.11 27.2998 228.06 27.3298C228 27.3698 227.94 27.3998 227.88 27.4198C227.82 27.4498 227.76 27.4698 227.7 27.4798C227.63 27.4898 227.57 27.4998 227.5 27.4998C227.37 27.4998 227.24 27.4698 227.12 27.4198C226.99 27.3698 226.89 27.2998 226.79 27.2098C226.61 27.0198 226.5 26.7598 226.5 26.4998C226.5 26.2398 226.61 25.9798 226.79 25.7898C226.89 25.6998 226.99 25.6298 227.12 25.5798C227.3 25.4998 227.5 25.4798 227.7 25.5198C227.76 25.5298 227.82 25.5498 227.88 25.5798C227.94 25.5998 228 25.6298 228.06 25.6698C228.11 25.7098 228.16 25.7498 228.21 25.7898C228.39 25.9798 228.5 26.2398 228.5 26.4998C228.5 26.7598 228.39 27.0198 228.21 27.2098ZM228.21 23.7098C228.02 23.8898 227.76 23.9998 227.5 23.9998C227.24 23.9998 226.98 23.8898 226.79 23.7098C226.61 23.5198 226.5 23.2598 226.5 22.9998C226.5 22.7398 226.61 22.4798 226.79 22.2898C227.07 22.0098 227.51 21.9198 227.88 22.0798C228.01 22.1298 228.12 22.1998 228.21 22.2898C228.39 22.4798 228.5 22.7398 228.5 22.9998C228.5 23.2598 228.39 23.5198 228.21 23.7098ZM231.71 27.2098C231.52 27.3898 231.26 27.4998 231 27.4998C230.74 27.4998 230.48 27.3898 230.29 27.2098C230.11 27.0198 230 26.7598 230 26.4998C230 26.2398 230.11 25.9798 230.29 25.7898C230.66 25.4198 231.34 25.4198 231.71 25.7898C231.89 25.9798 232 26.2398 232 26.4998C232 26.7598 231.89 27.0198 231.71 27.2098ZM231.71 23.7098C231.66 23.7498 231.61 23.7898 231.56 23.8298C231.5 23.8698 231.44 23.8998 231.38 23.9198C231.32 23.9498 231.26 23.9698 231.2 23.9798C231.13 23.9898 231.07 23.9998 231 23.9998C230.74 23.9998 230.48 23.8898 230.29 23.7098C230.11 23.5198 230 23.2598 230 22.9998C230 22.7398 230.11 22.4798 230.29 22.2898C230.38 22.1998 230.49 22.1298 230.62 22.0798C230.99 21.9198 231.43 22.0098 231.71 22.2898C231.89 22.4798 232 22.7398 232 22.9998C232 23.2598 231.89 23.5198 231.71 23.7098ZM235.21 27.2098C235.02 27.3898 234.76 27.4998 234.5 27.4998C234.24 27.4998 233.98 27.3898 233.79 27.2098C233.61 27.0198 233.5 26.7598 233.5 26.4998C233.5 26.2398 233.61 25.9798 233.79 25.7898C234.16 25.4198 234.84 25.4198 235.21 25.7898C235.39 25.9798 235.5 26.2398 235.5 26.4998C235.5 26.7598 235.39 27.0198 235.21 27.2098ZM235.21 23.7098C235.16 23.7498 235.11 23.7898 235.06 23.8298C235 23.8698 234.94 23.8998 234.88 23.9198C234.82 23.9498 234.76 23.9698 234.7 23.9798C234.63 23.9898 234.56 23.9998 234.5 23.9998C234.24 23.9998 233.98 23.8898 233.79 23.7098C233.61 23.5198 233.5 23.2598 233.5 22.9998C233.5 22.7398 233.61 22.4798 233.79 22.2898C233.89 22.1998 233.99 22.1298 234.12 22.0798C234.3 21.9998 234.5 21.9798 234.7 22.0198C234.76 22.0298 234.82 22.0498 234.88 22.0798C234.94 22.0998 235 22.1298 235.06 22.1698C235.11 22.2098 235.16 22.2498 235.21 22.2898C235.39 22.4798 235.5 22.7398 235.5 22.9998C235.5 23.2598 235.39 23.5198 235.21 23.7098Z" fill="#3654D6"/>
</svg>
