<svg width="18" height="17" viewBox="0 0 18 17" fill="none" xmlns="http://www.w3.org/2000/svg">
<g opacity="0.4">
<path fill-rule="evenodd" clip-rule="evenodd" d="M10.7374 7.85832C11.102 7.85832 11.3903 8.14166 11.3903 8.49999C11.3903 8.84999 11.102 9.14166 10.7374 9.14166H5.65023V13.125C5.65023 15.1667 7.33749 16.8333 9.42324 16.8333H13.5524C15.6296 16.8333 17.3169 15.175 17.3169 13.1333V3.87499C17.3169 1.82499 15.6212 0.166656 13.5439 0.166656H9.40628C7.33748 0.166656 5.65023 1.82499 5.65023 3.86666V7.85832H10.7374ZM2.62503 5.61683L0.191692 8.04183C0.0666924 8.16683 2.67029e-05 8.32516 2.67029e-05 8.50016C2.67029e-05 8.66683 0.0666924 8.83349 0.191692 8.95016L2.62503 11.3752C2.75003 11.5002 2.91669 11.5668 3.07503 11.5668C3.24169 11.5668 3.40836 11.5002 3.53336 11.3752C3.78336 11.1252 3.78336 10.7168 3.53336 10.4668L2.20003 9.14183H5.65003V7.85849H2.20003L3.53336 6.53349C3.78336 6.28349 3.78336 5.87516 3.53336 5.62516C3.28336 5.36683 2.87503 5.36683 2.62503 5.61683Z" fill="#030229"/>
</g>
</svg>
