<svg width="121" height="42" viewBox="0 0 121 42" fill="none" xmlns="http://www.w3.org/2000/svg">
<rect y="0.5" width="121" height="41" rx="20.5" fill="#DAE0EB"/>
<path d="M19.256 25.598C18.6027 25.598 18.0147 25.486 17.492 25.262C16.9693 25.0287 16.5587 24.702 16.26 24.282C15.9613 23.862 15.812 23.372 15.812 22.812H17.52C17.5573 23.232 17.7207 23.5773 18.01 23.848C18.3087 24.1187 18.724 24.254 19.256 24.254C19.8067 24.254 20.236 24.1233 20.544 23.862C20.852 23.5913 21.006 23.246 21.006 22.826C21.006 22.4993 20.908 22.2333 20.712 22.028C20.5253 21.8227 20.2873 21.664 19.998 21.552C19.718 21.44 19.326 21.3187 18.822 21.188C18.1873 21.02 17.6693 20.852 17.268 20.684C16.876 20.5067 16.54 20.236 16.26 19.872C15.98 19.508 15.84 19.0227 15.84 18.416C15.84 17.856 15.98 17.366 16.26 16.946C16.54 16.526 16.932 16.204 17.436 15.98C17.94 15.756 18.5233 15.644 19.186 15.644C20.1287 15.644 20.8987 15.882 21.496 16.358C22.1027 16.8247 22.4387 17.4687 22.504 18.29H20.74C20.712 17.9353 20.544 17.632 20.236 17.38C19.928 17.128 19.522 17.002 19.018 17.002C18.5607 17.002 18.1873 17.1187 17.898 17.352C17.6087 17.5853 17.464 17.9213 17.464 18.36C17.464 18.6587 17.5527 18.906 17.73 19.102C17.9167 19.2887 18.15 19.438 18.43 19.55C18.71 19.662 19.0927 19.7833 19.578 19.914C20.222 20.0913 20.7447 20.2687 21.146 20.446C21.5567 20.6233 21.902 20.8987 22.182 21.272C22.4713 21.636 22.616 22.126 22.616 22.742C22.616 23.2367 22.4807 23.7033 22.21 24.142C21.9487 24.5807 21.5613 24.9353 21.048 25.206C20.544 25.4673 19.9467 25.598 19.256 25.598ZM34.8592 17.786L32.4652 25.5H30.7852L29.2312 19.802L27.6772 25.5H25.9972L23.5892 17.786H25.2132L26.8232 23.988L28.4612 17.786H30.1272L31.6952 23.96L33.2912 17.786H34.8592ZM43.122 21.454C43.122 21.7433 43.1033 22.0047 43.066 22.238H37.172C37.2186 22.854 37.4473 23.3487 37.858 23.722C38.2686 24.0953 38.7726 24.282 39.37 24.282C40.2286 24.282 40.8353 23.9227 41.19 23.204H42.912C42.6786 23.9133 42.254 24.4967 41.638 24.954C41.0313 25.402 40.2753 25.626 39.37 25.626C38.6326 25.626 37.97 25.4627 37.382 25.136C36.8033 24.8 36.346 24.3333 36.01 23.736C35.6833 23.1293 35.52 22.4293 35.52 21.636C35.52 20.8427 35.6786 20.1473 35.996 19.55C36.3226 18.9433 36.7753 18.4767 37.354 18.15C37.942 17.8233 38.614 17.66 39.37 17.66C40.098 17.66 40.7466 17.8187 41.316 18.136C41.8853 18.4533 42.3286 18.9013 42.646 19.48C42.9633 20.0493 43.122 20.7073 43.122 21.454ZM41.456 20.95C41.4466 20.362 41.2366 19.8907 40.826 19.536C40.4153 19.1813 39.9066 19.004 39.3 19.004C38.7493 19.004 38.278 19.1813 37.886 19.536C37.494 19.8813 37.2606 20.3527 37.186 20.95H41.456ZM51.7626 21.454C51.7626 21.7433 51.7439 22.0047 51.7066 22.238H45.8126C45.8592 22.854 46.0879 23.3487 46.4986 23.722C46.9092 24.0953 47.4132 24.282 48.0106 24.282C48.8692 24.282 49.4759 23.9227 49.8306 23.204H51.5526C51.3192 23.9133 50.8946 24.4967 50.2786 24.954C49.6719 25.402 48.9159 25.626 48.0106 25.626C47.2732 25.626 46.6106 25.4627 46.0226 25.136C45.4439 24.8 44.9866 24.3333 44.6506 23.736C44.3239 23.1293 44.1606 22.4293 44.1606 21.636C44.1606 20.8427 44.3192 20.1473 44.6366 19.55C44.9632 18.9433 45.4159 18.4767 45.9946 18.15C46.5826 17.8233 47.2546 17.66 48.0106 17.66C48.7386 17.66 49.3872 17.8187 49.9566 18.136C50.5259 18.4533 50.9692 18.9013 51.2866 19.48C51.6039 20.0493 51.7626 20.7073 51.7626 21.454ZM50.0966 20.95C50.0872 20.362 49.8772 19.8907 49.4666 19.536C49.0559 19.1813 48.5472 19.004 47.9406 19.004C47.3899 19.004 46.9186 19.1813 46.5266 19.536C46.1346 19.8813 45.9012 20.3527 45.8266 20.95H50.0966ZM54.9292 18.92C55.1999 18.5653 55.5685 18.2667 56.0352 18.024C56.5019 17.7813 57.0292 17.66 57.6172 17.66C58.2892 17.66 58.9005 17.828 59.4512 18.164C60.0112 18.4907 60.4499 18.9527 60.7672 19.55C61.0845 20.1473 61.2432 20.8333 61.2432 21.608C61.2432 22.3827 61.0845 23.078 60.7672 23.694C60.4499 24.3007 60.0112 24.7767 59.4512 25.122C58.9005 25.458 58.2892 25.626 57.6172 25.626C57.0292 25.626 56.5065 25.5093 56.0492 25.276C55.5919 25.0333 55.2185 24.7347 54.9292 24.38V29.168H53.3332V17.786H54.9292V18.92ZM59.6192 21.608C59.6192 21.076 59.5072 20.6187 59.2832 20.236C59.0685 19.844 58.7792 19.55 58.4152 19.354C58.0605 19.1487 57.6779 19.046 57.2672 19.046C56.8659 19.046 56.4832 19.1487 56.1192 19.354C55.7645 19.5593 55.4752 19.858 55.2512 20.25C55.0365 20.642 54.9292 21.104 54.9292 21.636C54.9292 22.168 55.0365 22.6347 55.2512 23.036C55.4752 23.428 55.7645 23.7267 56.1192 23.932C56.4832 24.1373 56.8659 24.24 57.2672 24.24C57.6779 24.24 58.0605 24.1373 58.4152 23.932C58.7792 23.7173 59.0685 23.4093 59.2832 23.008C59.5072 22.6067 59.6192 22.14 59.6192 21.608ZM71.5122 25.5L69.2722 21.608H68.0542V25.5H66.4582V15.77H69.8182C70.5649 15.77 71.1949 15.9007 71.7082 16.162C72.2309 16.4233 72.6182 16.7733 72.8702 17.212C73.1315 17.6507 73.2622 18.1407 73.2622 18.682C73.2622 19.3167 73.0755 19.8953 72.7022 20.418C72.3382 20.9313 71.7735 21.2813 71.0082 21.468L73.4162 25.5H71.5122ZM68.0542 20.334H69.8182C70.4155 20.334 70.8635 20.1847 71.1622 19.886C71.4702 19.5873 71.6242 19.186 71.6242 18.682C71.6242 18.178 71.4749 17.786 71.1762 17.506C70.8775 17.2167 70.4249 17.072 69.8182 17.072H68.0542V20.334ZM74.7719 21.608C74.7719 20.8333 74.9306 20.1473 75.2479 19.55C75.5746 18.9527 76.0132 18.4907 76.5639 18.164C77.1239 17.828 77.7399 17.66 78.4119 17.66C79.0186 17.66 79.5459 17.7813 79.9939 18.024C80.4512 18.2573 80.8152 18.5513 81.0859 18.906V17.786H82.6959V25.5H81.0859V24.352C80.8152 24.716 80.4466 25.0193 79.9799 25.262C79.5132 25.5047 78.9812 25.626 78.3839 25.626C77.7212 25.626 77.1146 25.458 76.5639 25.122C76.0132 24.7767 75.5746 24.3007 75.2479 23.694C74.9306 23.078 74.7719 22.3827 74.7719 21.608ZM81.0859 21.636C81.0859 21.104 80.9739 20.642 80.7499 20.25C80.5352 19.858 80.2506 19.5593 79.8959 19.354C79.5412 19.1487 79.1586 19.046 78.7479 19.046C78.3372 19.046 77.9546 19.1487 77.5999 19.354C77.2452 19.55 76.9559 19.844 76.7319 20.236C76.5172 20.6187 76.4099 21.076 76.4099 21.608C76.4099 22.14 76.5172 22.6067 76.7319 23.008C76.9559 23.4093 77.2452 23.7173 77.5999 23.932C77.9639 24.1373 78.3466 24.24 78.7479 24.24C79.1586 24.24 79.5412 24.1373 79.8959 23.932C80.2506 23.7267 80.5352 23.428 80.7499 23.036C80.9739 22.6347 81.0859 22.168 81.0859 21.636ZM88.0262 19.088H86.5982V25.5H84.9882V19.088H84.0782V17.786H84.9882V17.24C84.9882 16.3533 85.2215 15.7093 85.6882 15.308C86.1642 14.8973 86.9062 14.692 87.9142 14.692V16.022C87.4289 16.022 87.0882 16.1153 86.8922 16.302C86.6962 16.4793 86.5982 16.792 86.5982 17.24V17.786H88.0262V19.088ZM92.6746 19.088H91.2466V25.5H89.6366V19.088H88.7266V17.786H89.6366V17.24C89.6366 16.3533 89.87 15.7093 90.3366 15.308C90.8126 14.8973 91.5546 14.692 92.5626 14.692V16.022C92.0773 16.022 91.7366 16.1153 91.5406 16.302C91.3446 16.4793 91.2466 16.792 91.2466 17.24V17.786H92.6746V19.088ZM95.6851 15.14V25.5H94.0891V15.14H95.6851ZM104.85 21.454C104.85 21.7433 104.832 22.0047 104.794 22.238H98.9005C98.9471 22.854 99.1758 23.3487 99.5865 23.722C99.9971 24.0953 100.501 24.282 101.098 24.282C101.957 24.282 102.564 23.9227 102.918 23.204H104.64C104.407 23.9133 103.982 24.4967 103.366 24.954C102.76 25.402 102.004 25.626 101.098 25.626C100.361 25.626 99.6985 25.4627 99.1105 25.136C98.5318 24.8 98.0745 24.3333 97.7385 23.736C97.4118 23.1293 97.2485 22.4293 97.2485 21.636C97.2485 20.8427 97.4071 20.1473 97.7245 19.55C98.0511 18.9433 98.5038 18.4767 99.0825 18.15C99.6705 17.8233 100.342 17.66 101.098 17.66C101.826 17.66 102.475 17.8187 103.044 18.136C103.614 18.4533 104.057 18.9013 104.374 19.48C104.692 20.0493 104.85 20.7073 104.85 21.454ZM103.184 20.95C103.175 20.362 102.965 19.8907 102.554 19.536C102.144 19.1813 101.635 19.004 101.028 19.004C100.478 19.004 100.006 19.1813 99.6145 19.536C99.2225 19.8813 98.9891 20.3527 98.9145 20.95H103.184Z" fill="white"/>
</svg>
