<svg width="220" height="45" viewBox="0 0 220 45" fill="none" xmlns="http://www.w3.org/2000/svg">
<g clip-path="url(#clip0_267_8412)">
<path fill-rule="evenodd" clip-rule="evenodd" d="M13.5908 37.415L17.5516 26.9581L15.9013 22.9252L15.3979 26.8747L13.1284 32.1094C13.3494 33.8927 13.4694 35.6191 13.5908 37.4147V37.415Z" fill="white"/>
<path fill-rule="evenodd" clip-rule="evenodd" d="M23.3891 26.8785L22.7047 26.3713L17.9998 27.6783L15.125 38.6662C15.5278 39.3401 15.9283 40.0154 16.3288 40.6896L19.9136 28.4792L22.7047 26.3713L27.417 27.6714L23.3891 26.8785Z" fill="white"/>
<path fill-rule="evenodd" clip-rule="evenodd" d="M22.4666 30.0233C23.1232 30.1742 23.5697 30.0724 23.8016 29.7159C23.3453 29.9672 22.8792 29.9399 22.4545 29.6314C21.9884 29.9948 21.6524 29.9114 21.1331 29.7159L20.8224 29.5938C20.6477 29.5308 20.4449 29.4601 20.2205 29.3905L17.7617 42.1014C19.4278 43.0587 21.0105 43.8939 22.7045 44.7678L26.6948 42.7034C25.3126 43.2174 24.1247 43.655 22.7109 44.1782L22.4669 30.0233H22.4666Z" fill="white"/>
<path fill-rule="evenodd" clip-rule="evenodd" d="M20.4804 21.7168C20.1636 21.6826 15.9866 21.5581 16.6395 22.0848C17.9865 23.1528 17.3711 25.6457 17.54 25.7704C18.4526 26.4593 21.2534 21.7855 20.4804 21.7171V21.7168Z" fill="white"/>
<path fill-rule="evenodd" clip-rule="evenodd" d="M13.2681 28.696L14.9696 25.6273L14.9005 22.0972L13.4332 23.925L13.3129 27.4163L13.3058 27.6084L13.296 27.8185L13.2681 28.696Z" fill="white"/>
<path fill-rule="evenodd" clip-rule="evenodd" d="M25.4264 13.6567C23.0528 13.939 20.5929 14.3263 18.2895 14.9409C17.3283 15.1968 16.3538 15.5041 15.4412 15.8856C15.3635 15.9175 15.417 15.8994 15.4642 15.8937C17.0757 15.6617 18.7542 15.4938 20.3814 15.4538C21.0817 15.4366 21.9261 15.4366 22.6181 15.5406C22.6788 15.5498 22.7369 15.559 22.7965 15.5702C17.5044 15.898 -4.55651 19.3574 12.2666 25.4444C7.14198 24.5328 4.30719 23.2512 4.27065 21.0656C4.2344 18.1695 10.9999 16.6889 13.3772 16.2387C13.643 16.1884 13.9086 16.0969 14.1744 16.0308C14.2763 16.0069 14.3128 15.992 14.4063 15.9509C14.6198 15.8583 14.5119 15.8664 14.3528 15.8641C14.2205 15.8629 13.9523 15.8664 14.0651 15.6743C14.1221 15.5783 14.1974 15.4711 14.2581 15.3739C14.9789 14.236 15.5747 13.0366 16.1294 11.8208C16.2094 11.6437 18.2397 6.63645 18.9751 4.97302C19.0565 4.78903 19.1414 4.58807 19.2312 4.40868C19.3368 4.19392 19.7482 3.34381 19.8998 3.06868C20.3901 2.17631 21.0734 1.12438 21.9422 0.520931C23.3474 -0.450215 24.7831 0.0741691 26.0536 0.969992C24.9264 0.369135 23.5051 0.0183958 22.5197 1.04647C22.112 1.47023 21.8657 2.05527 21.7345 2.60812C21.681 2.83207 21.8134 2.84012 21.6655 3.144C21.5999 3.27884 21.6048 3.3349 21.5901 3.48209C21.4701 4.7252 21.6531 6.0767 21.9348 7.29222C21.3608 6.90266 21.0222 6.53468 20.9192 6.18739C20.7298 7.85541 21.6194 8.85157 23.5853 9.175C20.8743 9.68328 19.0442 11.1777 18.0953 13.6567C20.5115 13.1688 23.0102 13.1688 25.4264 13.6567Z" fill="white"/>
<path fill-rule="evenodd" clip-rule="evenodd" d="M28.8146 21.9316C28.0853 22.3315 27.3303 23.3185 27.2771 25.2059C26.9664 25.3134 26.8208 25.5224 26.0259 24.5559C26.9604 25.9715 27.5778 26.4545 27.8825 26.0011C27.6954 23.9938 28.0062 22.6354 28.8143 21.9316H28.8146Z" fill="#6A3190"/>
<path fill-rule="evenodd" clip-rule="evenodd" d="M31.968 23.925L31.7726 27.6311L30.9316 26.6933C31.3175 27.3353 31.7217 28.0882 32.1354 28.696L31.968 23.925Z" fill="#6A3190"/>
<path fill-rule="evenodd" clip-rule="evenodd" d="M29.645 31.6526L31.8123 37.4151C31.8779 36.22 32.0307 34.4516 32.2747 32.1097C32.0551 33.2303 31.8379 34.3513 31.6181 35.4719L29.645 31.6529V31.6526Z" fill="#6A3190"/>
<path fill-rule="evenodd" clip-rule="evenodd" d="M26.2446 31.0618C27.1886 34.2699 28.1231 37.4846 29.0745 40.6893L30.2748 38.6659C30.1172 38.8065 29.2385 39.5468 29.2008 39.5787C29.2008 39.5787 28.2117 37.1842 26.2446 31.0618Z" fill="#6A3190"/>
<path fill-rule="evenodd" clip-rule="evenodd" d="M29.8948 15.7612C26.6 10.6179 22.6998 -0.34728 29.7481 5.88352C29.1025 3.50051 27.9545 2.52821 26.7119 1.48059C27.844 2.69725 28.5843 3.62729 28.8709 4.57429C28.2143 3.94123 27.1222 3.4134 26.2605 3.47521C26.3586 3.10061 26.7203 2.8594 26.9824 2.76568C25.093 2.8548 24.6401 5.06647 25.8174 8.43788C24.9606 7.5044 24.4074 6.26617 23.9243 5.07567C24.1559 7.82438 27.8757 13.5685 29.8948 15.7609V15.7612Z" fill="#6A3190"/>
<path fill-rule="evenodd" clip-rule="evenodd" d="M26.3633 15.9897C33.8034 16.6363 39.3349 18.9098 39.3349 21.0062C39.3349 23.7023 34.4893 24.6861 32.5778 25.4445C37.7024 24.5328 40.5726 23.2509 40.5726 21.0654C40.5726 18.8799 34.4769 16.4796 26.3633 15.9894V15.9897Z" fill="#6A3190"/>
<path fill-rule="evenodd" clip-rule="evenodd" d="M20.5944 25.039C21.286 25.0083 20.9888 24.4873 21.1367 23.7732C20.9376 23.9699 19.7459 25.039 20.5944 25.039ZM21.9765 23.7479C21.3588 24.4048 21.6597 25.2239 22.6146 25.2469C23.4375 25.2664 24.5757 24.9246 24.9192 24.9545C25.0478 24.9672 25.162 25.054 25.2152 25.1808C25.2685 25.3076 25.2541 25.455 25.1775 25.568C25.5464 25.384 25.7553 24.9568 25.6885 24.525C25.5671 23.7494 25.0429 23.9184 24.5247 23.4613C23.4035 22.3027 23.4496 19.7871 23.287 19.1587C23.2447 19.3507 23.2154 19.6158 23.1852 19.924C23.0686 21.0811 22.928 22.8578 21.9765 23.7476V23.7479Z" fill="white"/>
</g>
<path d="M53.6575 20.463L49.854 7.80606H52.9874L54.8891 14.46C54.9736 14.7614 55.0461 15.0688 55.1065 15.3822C55.1789 15.6835 55.2332 15.9728 55.2695 16.2501C55.3178 16.5273 55.354 16.7865 55.3781 17.0276C55.4023 17.2566 55.4264 17.4495 55.4506 17.6062H55.0521C55.1246 17.1602 55.1849 16.7624 55.2332 16.4128C55.2936 16.0632 55.36 15.7378 55.4325 15.4364C55.5049 15.123 55.5955 14.7975 55.7042 14.46L57.5878 9.45147H60.051L61.8984 14.46C62.0433 14.8578 62.1641 15.2315 62.2607 15.5811C62.3573 15.9306 62.4297 16.2682 62.478 16.5936C62.5384 16.907 62.5867 17.2204 62.6229 17.5339L62.2607 17.5881C62.2848 17.3711 62.3029 17.1722 62.315 16.9914C62.3271 16.7985 62.3392 16.6177 62.3512 16.449C62.3754 16.2682 62.3995 16.0813 62.4237 15.8884C62.4478 15.6956 62.4841 15.4846 62.5324 15.2556C62.5807 15.0145 62.6471 14.7433 62.7316 14.4419L64.6152 7.80606H67.6761L63.8726 20.463H61.5181L58.5115 13.1762L58.8556 13.2124L56.0845 20.463H53.6575Z" fill="white"/>
<path d="M69.11 20.463V17.8774H71.2472V10.3917H69.11V7.80606H76.4815V10.3917H74.3262V17.8774H76.4815V20.463H69.11Z" fill="white"/>
<path d="M78.9028 20.463V18.4198L85.7129 9.37914L86.7815 10.6268H79.3738V7.80606H88.9369V9.83117L82.163 18.89L81.0763 17.7689H89.1361V20.463H78.9028Z" fill="white"/>
<path d="M90.1615 20.463L95.1785 7.80606H97.7867L102.767 20.463H99.6522L97.2614 14.0441C97.1648 13.791 97.0682 13.5198 96.9716 13.2305C96.875 12.9412 96.7784 12.6458 96.6818 12.3445C96.5852 12.0311 96.4886 11.7297 96.392 11.4404C96.3075 11.1391 96.2351 10.8618 96.1747 10.6087L96.718 10.5906C96.6456 10.8919 96.5611 11.1873 96.4645 11.4766C96.38 11.7659 96.2894 12.0552 96.1928 12.3445C96.1083 12.6217 96.0117 12.905 95.903 13.1943C95.7943 13.4716 95.6917 13.7609 95.5951 14.0622L93.2043 20.463H90.1615ZM92.5523 18.0401L93.5122 15.7257H99.3443L100.286 18.0401H92.5523Z" fill="white"/>
<path d="M104.349 20.463V7.80606H110.055C110.864 7.80606 111.594 7.98084 112.246 8.33042C112.91 8.67999 113.429 9.16216 113.804 9.77693C114.178 10.3796 114.365 11.0667 114.365 11.8382C114.365 12.6338 114.178 13.351 113.804 13.9899C113.429 14.6167 112.916 15.1109 112.264 15.4726C111.612 15.8342 110.876 16.015 110.055 16.015H107.283V20.463H104.349ZM111.377 20.463L108.153 14.7493L111.304 14.2973L114.89 20.463H111.377ZM107.283 13.6644H109.783C110.097 13.6644 110.368 13.5981 110.598 13.4655C110.839 13.3209 111.02 13.122 111.141 12.8688C111.274 12.6157 111.34 12.3264 111.34 12.0009C111.34 11.6755 111.268 11.3922 111.123 11.1511C110.978 10.898 110.767 10.7051 110.489 10.5725C110.224 10.4399 109.898 10.3736 109.511 10.3736H107.283V13.6644Z" fill="white"/>
<path d="M117.067 20.463V7.80606H122.373C123.303 7.80606 124.154 7.96276 124.927 8.27617C125.7 8.57753 126.364 9.01148 126.919 9.57803C127.487 10.1446 127.922 10.8136 128.223 11.5851C128.525 12.3565 128.676 13.2064 128.676 14.1345C128.676 15.0627 128.525 15.9186 128.223 16.7021C127.922 17.4736 127.487 18.1426 126.919 18.7091C126.364 19.2636 125.7 19.6976 124.927 20.011C124.154 20.3124 123.303 20.463 122.373 20.463H117.067ZM120.146 18.3656L119.729 17.7508H122.283C122.79 17.7508 123.243 17.6664 123.641 17.4977C124.04 17.3169 124.378 17.0698 124.655 16.7564C124.945 16.4429 125.169 16.0632 125.326 15.6172C125.483 15.1712 125.561 14.677 125.561 14.1345C125.561 13.5921 125.483 13.0979 125.326 12.6519C125.169 12.2059 124.945 11.8262 124.655 11.5127C124.378 11.1993 124.04 10.9582 123.641 10.7895C123.243 10.6087 122.79 10.5183 122.283 10.5183H119.675L120.146 9.93966V18.3656Z" fill="white"/>
<path d="M142.745 20.6439C141.731 20.6439 140.813 20.4811 139.992 20.1557C139.171 19.8302 138.465 19.3721 137.873 18.7815C137.281 18.1908 136.829 17.4977 136.515 16.7021C136.201 15.8945 136.044 15.0205 136.044 14.0803C136.044 13.1401 136.207 12.2782 136.533 11.4947C136.871 10.6991 137.348 10.006 137.964 9.4153C138.579 8.82464 139.304 8.36658 140.137 8.04112C140.982 7.71565 141.9 7.55292 142.89 7.55292C143.59 7.55292 144.248 7.64332 144.864 7.82414C145.492 8.00495 146.06 8.25207 146.567 8.56548C147.074 8.87889 147.503 9.24051 147.853 9.65036L145.987 11.6212C145.685 11.3319 145.371 11.0908 145.045 10.898C144.731 10.7051 144.393 10.5544 144.031 10.4459C143.669 10.3254 143.282 10.2651 142.872 10.2651C142.341 10.2651 141.852 10.3616 141.405 10.5544C140.97 10.7473 140.584 11.0185 140.246 11.3681C139.92 11.7056 139.666 12.1094 139.485 12.5795C139.304 13.0376 139.213 13.5379 139.213 14.0803C139.213 14.6227 139.31 15.129 139.503 15.5991C139.696 16.0693 139.962 16.4791 140.3 16.8287C140.638 17.1662 141.037 17.4374 141.495 17.6423C141.966 17.8352 142.467 17.9316 142.999 17.9316C143.373 17.9316 143.723 17.8714 144.049 17.7508C144.387 17.6303 144.677 17.4676 144.919 17.2626C145.16 17.0577 145.353 16.8166 145.498 16.5394C145.643 16.2501 145.715 15.9427 145.715 15.6172V15.1471L146.114 15.7619H142.618V13.357H148.577C148.601 13.4896 148.619 13.6705 148.632 13.8995C148.644 14.1285 148.65 14.3515 148.65 14.5685C148.662 14.7855 148.668 14.9482 148.668 15.0567C148.668 15.8764 148.517 16.6298 148.215 17.3169C147.925 17.9919 147.515 18.5765 146.983 19.0708C146.452 19.565 145.824 19.9507 145.1 20.228C144.375 20.5052 143.59 20.6439 142.745 20.6439Z" fill="white"/>
<path d="M149.238 20.463L154.255 7.80606H156.863L161.843 20.463H158.728L156.337 14.0441C156.241 13.791 156.144 13.5198 156.048 13.2305C155.951 12.9412 155.854 12.6458 155.758 12.3445C155.661 12.0311 155.565 11.7297 155.468 11.4404C155.384 11.1391 155.311 10.8618 155.251 10.6087L155.794 10.5906C155.722 10.8919 155.637 11.1873 155.54 11.4766C155.456 11.7659 155.365 12.0552 155.269 12.3445C155.184 12.6217 155.088 12.905 154.979 13.1943C154.87 13.4716 154.768 13.7609 154.671 14.0622L152.28 20.463H149.238ZM151.628 18.0401L152.588 15.7257H158.42L159.362 18.0401H151.628Z" fill="white"/>
<path d="M163.425 20.463V7.80606H166.504V17.7508H172.155V20.463H163.425Z" fill="white"/>
<path d="M174.462 20.463V7.80606H177.541V17.7508H183.192V20.463H174.462Z" fill="white"/>
<path d="M185.499 20.463V7.80606H194.338V10.4279H188.488V17.8412H194.519V20.463H185.499ZM186.948 15.2737V12.7784H193.523V15.2737H186.948Z" fill="white"/>
<path d="M197.173 20.463V7.80606H202.878C203.687 7.80606 204.418 7.98084 205.07 8.33042C205.734 8.67999 206.253 9.16216 206.627 9.77693C207.002 10.3796 207.189 11.0667 207.189 11.8382C207.189 12.6338 207.002 13.351 206.627 13.9899C206.253 14.6167 205.74 15.1109 205.088 15.4726C204.436 15.8342 203.699 16.015 202.878 16.015H200.107V20.463H197.173ZM204.2 20.463L200.976 14.7493L204.128 14.2973L207.714 20.463H204.2ZM200.107 13.6644H202.606C202.92 13.6644 203.192 13.5981 203.421 13.4655C203.663 13.3209 203.844 13.122 203.965 12.8688C204.098 12.6157 204.164 12.3264 204.164 12.0009C204.164 11.6755 204.092 11.3922 203.947 11.1511C203.802 10.898 203.591 10.7051 203.313 10.5725C203.047 10.4399 202.721 10.3736 202.335 10.3736H200.107V13.6644Z" fill="white"/>
<path d="M212.266 20.463V14.1526L212.393 15.0386L207.267 7.80606H210.763L214.675 13.4113L213.081 13.357L216.613 7.80606H220L215.092 15.2375L215.363 14.008V20.463H212.266Z" fill="white"/>
<path d="M55.5854 37.3038V28.2743H56.8388L62.369 35.6656L62.1622 35.7816C62.1278 35.5667 62.0976 35.3345 62.0718 35.0851C62.046 34.8271 62.0201 34.5562 61.9943 34.2724C61.977 33.9801 61.9598 33.6748 61.9426 33.3566C61.934 33.0298 61.9254 32.6901 61.9167 32.3376C61.9081 31.985 61.9038 31.6195 61.9038 31.2411V28.2743H63.2993V37.3038H62.0201L56.5804 30.1834L56.7225 30.0028C56.7656 30.5274 56.8 30.9745 56.8259 31.3443C56.8603 31.7055 56.8862 32.0151 56.9034 32.2731C56.9292 32.5224 56.9465 32.7288 56.9551 32.8922C56.9637 33.047 56.968 33.176 56.968 33.2792C56.9766 33.3824 56.9809 33.4727 56.9809 33.5501V37.3038H55.5854Z" fill="#6A3190"/>
<path d="M68.4156 37.3038V28.2743H69.8111V37.3038H68.4156ZM69.0358 33.4598V32.1183H73.7003V33.4598H69.0358ZM69.0358 29.6158V28.2743H74.2817V29.6158H69.0358Z" fill="#6A3190"/>
<path d="M80.6804 37.3038V29.6158H78.1479V28.2743H84.6859V29.6158H82.0758V37.3038H80.6804Z" fill="#6A3190"/>
<path d="M95.1964 37.3038V28.2743H96.566L99.8609 33.6275L99.2019 33.6146L102.536 28.2743H103.828V37.3038H102.432V33.6017C102.432 32.8277 102.449 32.1312 102.484 31.512C102.527 30.8928 102.596 30.278 102.691 29.6674L102.871 30.1447L99.9126 34.711H99.0598L96.1913 30.1963L96.3335 29.6674C96.4282 30.2436 96.4928 30.8369 96.5273 31.4475C96.5704 32.0495 96.5919 32.7675 96.5919 33.6017V37.3038H95.1964Z" fill="#6A3190"/>
<path d="M108.004 37.3038L111.506 28.2743H112.927L116.403 37.3038H114.917L112.85 31.8603C112.824 31.8001 112.772 31.6539 112.695 31.4217C112.626 31.1895 112.544 30.9315 112.449 30.6478C112.355 30.364 112.268 30.106 112.191 29.8738C112.113 29.633 112.062 29.4782 112.036 29.4094L112.333 29.3965C112.281 29.5427 112.217 29.7276 112.139 29.9512C112.07 30.1748 111.993 30.4113 111.907 30.6607C111.829 30.91 111.752 31.1465 111.674 31.3701C111.597 31.5851 111.532 31.7657 111.48 31.9119L109.426 37.3038H108.004ZM109.555 35.0593L110.072 33.7178H114.181L114.775 35.0593H109.555Z" fill="#6A3190"/>
<path d="M120.579 37.3038V28.2743H124.43C124.946 28.2743 125.42 28.4033 125.851 28.6613C126.29 28.9107 126.639 29.2546 126.898 29.6932C127.156 30.1232 127.285 30.6091 127.285 31.1508C127.285 31.641 127.156 32.0968 126.898 32.5181C126.639 32.9395 126.295 33.2792 125.864 33.5372C125.433 33.7866 124.955 33.9113 124.43 33.9113H121.975V37.3038H120.579ZM125.954 37.3038L123.654 33.2276L125.089 32.9051L127.647 37.3167L125.954 37.3038ZM121.975 32.5697H124.559C124.809 32.5697 125.033 32.5095 125.231 32.3892C125.429 32.2602 125.584 32.0882 125.696 31.8732C125.808 31.6496 125.864 31.4045 125.864 31.1379C125.864 30.8369 125.791 30.5747 125.644 30.3511C125.506 30.1189 125.308 29.9383 125.05 29.8093C124.8 29.6803 124.516 29.6158 124.197 29.6158H121.975V32.5697Z" fill="#6A3190"/>
<path d="M133.31 34.5691L133.233 33.0083L137.975 28.2743H139.81L133.31 34.5691ZM132.147 37.3038V28.2743H133.543V37.3038H132.147ZM138.143 37.3038L134.68 32.6858L135.714 31.7958L139.887 37.3038H138.143Z" fill="#6A3190"/>
<path d="M144.195 37.3038V28.2743H149.893V29.6158H145.591V35.9622H149.893V37.3038H144.195ZM144.828 33.3437V32.0022H149.183V33.3437H144.828Z" fill="#6A3190"/>
<path d="M156.435 37.3038V29.6158H153.902V28.2743H160.44V29.6158H157.83V37.3038H156.435Z" fill="#6A3190"/>
<path d="M164.745 37.3038V28.2743H168.428C168.919 28.2743 169.362 28.399 169.759 28.6484C170.163 28.8892 170.486 29.2202 170.728 29.6416C170.969 30.063 171.089 30.5317 171.089 31.0476C171.089 31.5636 170.969 32.0323 170.728 32.4536C170.486 32.875 170.163 33.2147 169.759 33.4727C169.362 33.7221 168.919 33.8468 168.428 33.8468H166.141V37.3038H164.745ZM166.141 32.5052H168.402C168.634 32.5052 168.846 32.4407 169.035 32.3118C169.225 32.1742 169.375 31.9979 169.487 31.7829C169.608 31.5593 169.668 31.3142 169.668 31.0476C169.668 30.781 169.608 30.5403 169.487 30.3253C169.375 30.1103 169.225 29.9383 169.035 29.8093C168.846 29.6803 168.634 29.6158 168.402 29.6158H166.141V32.5052Z" fill="#6A3190"/>
<path d="M175.519 37.3038V28.2743H176.914V35.9622H181.152V37.3038H175.519Z" fill="#6A3190"/>
<path d="M184.895 37.3038L188.396 28.2743H189.817L193.293 37.3038H191.807L189.74 31.8603C189.714 31.8001 189.662 31.6539 189.585 31.4217C189.516 31.1895 189.434 30.9315 189.339 30.6478C189.245 30.364 189.158 30.106 189.081 29.8738C189.003 29.633 188.952 29.4782 188.926 29.4094L189.223 29.3965C189.171 29.5427 189.107 29.7276 189.029 29.9512C188.96 30.1748 188.883 30.4113 188.797 30.6607C188.719 30.91 188.642 31.1465 188.564 31.3701C188.487 31.5851 188.422 31.7657 188.37 31.9119L186.316 37.3038H184.895ZM186.445 35.0593L186.962 33.7178H191.071L191.665 35.0593H186.445Z" fill="#6A3190"/>
<path d="M200.886 37.4328C200.258 37.4328 199.68 37.321 199.155 37.0974C198.63 36.8738 198.173 36.5556 197.785 36.1428C197.398 35.7215 197.096 35.227 196.881 34.6594C196.674 34.0918 196.571 33.4684 196.571 32.789C196.571 32.1441 196.683 31.5464 196.907 30.996C197.139 30.4371 197.458 29.9469 197.863 29.5255C198.268 29.1041 198.737 28.7774 199.271 28.5452C199.805 28.313 200.383 28.1969 201.003 28.1969C201.442 28.1969 201.868 28.2657 202.282 28.4033C202.704 28.5323 203.083 28.7172 203.419 28.958C203.764 29.1901 204.043 29.4567 204.259 29.7577L203.329 30.7251C203.079 30.4758 202.825 30.2694 202.566 30.106C202.316 29.934 202.058 29.805 201.791 29.719C201.532 29.633 201.27 29.59 201.003 29.59C200.581 29.59 200.184 29.6717 199.814 29.8351C199.452 29.9899 199.133 30.2092 198.858 30.493C198.591 30.7767 198.38 31.1164 198.225 31.512C198.07 31.899 197.992 32.3247 197.992 32.789C197.992 33.2792 198.065 33.7264 198.212 34.1305C198.367 34.5261 198.582 34.8658 198.858 35.1496C199.133 35.4334 199.461 35.6527 199.84 35.8074C200.227 35.9536 200.654 36.0267 201.119 36.0267C201.403 36.0267 201.683 35.988 201.959 35.9106C202.235 35.8332 202.493 35.7215 202.734 35.5753C202.975 35.4291 203.195 35.2571 203.393 35.0593L204.091 36.1944C203.893 36.4266 203.621 36.6373 203.277 36.8265C202.941 37.0157 202.562 37.1662 202.14 37.278C201.726 37.3812 201.309 37.4328 200.886 37.4328Z" fill="#6A3190"/>
<path d="M208.571 37.3038V28.2743H214.269V29.6158H209.966V35.9622H214.269V37.3038H208.571ZM209.204 33.3437V32.0022H213.558V33.3437H209.204Z" fill="#6A3190"/>
<defs>
<clipPath id="clip0_267_8412">
<rect width="36.3018" height="44.7679" fill="white" transform="translate(4.271)"/>
</clipPath>
</defs>
</svg>
